<!-- Generated with https://svgsprite.com/tools/svg-sprite-generator/
     Add all files in assets/icon, and choose HTML.
-->


<svg display="none">
	<defs>
		<g id="img-googleworkspace-inverted">
			<sodipodi:namedview xmlns:sodipodi="http://sodipodi.sourceforge.net/DTD/sodipodi-0.dtd" bordercolor="#666666" borderopacity="1" fit-margin-bottom="0" fit-margin-left="0" fit-margin-right="0" fit-margin-top="0" gridtolerance="10" guidetolerance="10" objecttolerance="10" pagecolor="#ffffff" showgrid="false" xmlns:inkscape="http://www.inkscape.org/namespaces/inkscape" inkscape:current-layer="Layer_1" inkscape:cx="150.158" inkscape:cy="66.472" inkscape:pagecheckerboard="0" inkscape:pageopacity="0" inkscape:pageshadow="2" inkscape:window-height="1003" inkscape:window-maximized="0" inkscape:window-width="2376" inkscape:window-x="0" inkscape:window-y="23" inkscape:zoom="2.73"/><g xmlns="http://www.w3.org/2000/svg" transform="translate(-21.19 -9.984)"><defs><path id="a" d="M-435.45 -1253.95H1502.29V-161.43000000000006H-435.45z"/></defs><clipPath id="b"><use width="100%" height="100%" overflow="visible" xmlns:xlink="http://www.w3.org/1999/xlink" xlink:href="#a"/></clipPath><g clip-path="url(#b)"><path fill="none" stroke="#DDDDDD" stroke-miterlimit="10" d="m 385.73,-1685.07 c 4.7,9.39 0,1954.96 0,1954.96"/><path fill="none" stroke="#DDDDDD" stroke-miterlimit="10" d="m 294.66,-1685.07 c 4.7,9.39 0,1954.96 0,1954.96"/><path fill="none" stroke="#DDDDDD" stroke-miterlimit="10" d="m 203.59,-1685.07 c 4.7,9.39 0,1954.96 0,1954.96"/><path fill="none" stroke="#DDDDDD" stroke-miterlimit="10" d="m 112.51,-1685.07 c 4.7,9.39 0,1954.96 0,1954.96"/><path fill="none" stroke="#DDDDDD" stroke-miterlimit="10" d="m 21.44,-1685.07 c 4.7,9.39 0,1954.96 0,1954.96"/></g></g><path xmlns="http://www.w3.org/2000/svg" fill="#62656B" d="m 397.42,151.11 c -0.53,0.27 -1.1,0.32 -1.69,0.32 -9.45,-0.01 -18.9,-0.01 -28.35,-0.01 -1.26,0 -1.17,0 -1.12,1.24 0.1,2.91 1.12,5.44 3.03,7.58 2.04,2.28 4.54,3.72 7.64,4.14 2.41,0.32 4.72,0.12 6.95,-0.83 2.52,-1.06 4.31,-2.95 5.74,-5.2 0.43,-0.68 0.76,-0.7 1.4,-0.36 1.44,0.76 2.9,1.49 4.4,2.14 0.88,0.38 0.81,0.82 0.38,1.49 -1.85,2.9 -4.22,5.26 -7.27,6.88 -2.5,1.33 -5.14,2.11 -8.01,2.35 -4.38,0.37 -8.47,-0.39 -12.2,-2.69 -4.26,-2.62 -7.03,-6.43 -8.49,-11.19 -0.84,-2.71 -1.15,-5.5 -0.94,-8.31 0.35,-4.64 1.78,-8.88 4.79,-12.55 3.05,-3.71 6.96,-5.94 11.64,-6.54 6.17,-0.79 11.82,0.58 16.33,5.15 2.53,2.55 3.97,5.74 4.74,9.22 0.32,1.43 0.66,2.85 0.58,4.33 -0.02,0.32 -0.1,0.74 0.44,0.76 0.01,0.7 0.01,1.39 0.01,2.08 z m -19.38,-5.73 c 3.42,0 6.84,0 10.26,0 0.97,0 1.07,-0.15 0.9,-1.1 -0.24,-1.34 -0.71,-2.59 -1.5,-3.7 -1.94,-2.73 -4.63,-4.03 -7.91,-4.47 -5.84,-0.78 -11.13,2.66 -12.65,8.33 -0.22,0.81 -0.05,0.97 0.74,0.97 3.38,-0.04 6.77,-0.03 10.16,-0.03 z" transform="translate(-21.19 -9.984)"/><path xmlns="http://www.w3.org/2000/svg" fill="#4485F3" d="m 115.59,44.08 c 5.27,0 10.55,0.01 15.82,-0.01 0.7,0 1.02,0.09 1.13,0.91 0.4,2.99 0.38,5.97 0.14,8.97 -0.25,3.13 -0.89,6.17 -1.94,9.12 -1.42,4.03 -3.55,7.62 -6.56,10.71 -2.65,2.73 -5.61,5.01 -8.97,6.73 -3.24,1.65 -6.72,2.68 -10.33,3.23 -2.28,0.35 -4.59,0.62 -6.89,0.55 -6.53,-0.21 -12.71,-1.73 -18.42,-5.02 -3.65,-2.1 -6.94,-4.62 -9.7,-7.77 -3.39,-3.87 -5.96,-8.24 -7.55,-13.18 -1.28,-3.97 -1.91,-8 -1.75,-12.17 0.04,-1.09 -0.08,-2.2 -0.07,-3.27 0.01,-1.09 0.49,-2.19 0.73,-3.3 1.26,-5.75 3.72,-10.96 7.4,-15.53 2.84,-3.53 6.23,-6.49 10.16,-8.79 4.23,-2.47 8.76,-4.02 13.57,-4.99 1.95,-0.39 3.8,-0.11 5.69,-0.24 1.93,-0.13 3.85,0.03 5.79,0.3 6.59,0.93 12.39,3.56 17.5,7.77 0.63,0.52 1.24,1.05 1.87,1.55 0.27,0.21 0.26,0.37 0.03,0.6 -2.11,2.1 -4.22,4.21 -6.32,6.33 -0.33,0.33 -0.52,0.15 -0.77,-0.08 -3.09,-2.86 -6.68,-4.85 -10.73,-5.95 -3.44,-0.94 -6.95,-1.03 -10.5,-0.67 -3.32,0.34 -6.42,1.32 -9.34,2.87 -4.65,2.48 -8.22,6.07 -10.87,10.61 -1.94,3.32 -3.12,6.92 -3.42,10.71 -0.37,4.74 0.06,9.41 2,13.87 2.32,5.34 5.96,9.51 10.84,12.61 3.15,2.01 6.6,3.26 10.33,3.66 4.26,0.45 8.49,0.35 12.61,-0.95 3.01,-0.95 5.72,-2.47 8.16,-4.5 2.29,-1.91 4.22,-4.08 5.49,-6.81 0.98,-2.11 1.59,-4.34 2,-6.62 0.23,-1.29 -0.02,-1.53 -1.36,-1.53 -7.22,0 -14.44,-0.02 -21.66,0.02 -0.88,0 -1.11,-0.25 -1.09,-1.1 0.05,-2.54 0.06,-5.08 0,-7.63 -0.02,-0.86 0.26,-1.04 1.07,-1.03 5.3,0.04 10.61,0.02 15.91,0.02 z" transform="translate(-21.19 -9.984)"/><path xmlns="http://www.w3.org/2000/svg" fill="#4485F3" d="m 288.23,61.47 c 0,7.06 0.05,14.12 -0.02,21.18 -0.05,5.63 -1.46,10.9 -4.89,15.47 -2.2,2.93 -5.13,4.89 -8.54,6.18 -3.73,1.41 -7.61,1.85 -11.53,1.47 -5.37,-0.53 -10.01,-2.74 -13.82,-6.62 -1.84,-1.87 -3.29,-4.01 -4.48,-6.34 -0.27,-0.54 -0.24,-0.88 0.39,-1.13 2.41,-0.97 4.81,-1.95 7.19,-2.99 0.69,-0.3 0.95,-0.09 1.27,0.51 1.69,3.15 4.05,5.61 7.48,6.9 2.48,0.93 5.02,0.95 7.58,0.45 4.92,-0.97 7.9,-4 9.24,-8.78 0.74,-2.66 0.61,-5.38 0.62,-8.09 0,-0.29 -0.02,-0.58 -0.32,-0.73 -0.39,-0.2 -0.57,0.13 -0.78,0.35 -2.9,3.05 -6.52,4.49 -10.66,4.84 -5.86,0.49 -10.93,-1.45 -15.43,-5.02 -4.63,-3.67 -7.39,-8.52 -8.46,-14.3 -1.36,-7.32 0.45,-13.89 5.05,-19.68 3.17,-4 7.27,-6.65 12.23,-7.92 5.94,-1.52 11.4,-0.54 16.3,3.22 0.42,0.32 0.76,0.75 1.15,1.11 0.17,0.17 0.32,0.43 0.62,0.31 0.33,-0.13 0.3,-0.44 0.3,-0.72 0,-0.78 0.02,-1.57 -0.01,-2.35 -0.02,-0.49 0.1,-0.75 0.67,-0.74 2.73,0.02 5.46,0.03 8.19,0 0.85,-0.01 0.67,0.55 0.67,1.02 -0.01,7.46 -0.01,14.93 -0.01,22.4 z m -9.02,-1.53 c 0.05,-0.72 -0.16,-1.98 -0.4,-3.24 -1.19,-6.13 -6.43,-11.65 -13.89,-10.75 -3.85,0.46 -6.83,2.28 -9.08,5.36 -2.75,3.78 -3.29,8.07 -2.49,12.53 0.56,3.11 2.07,5.81 4.51,7.92 2.83,2.45 6.14,3.44 9.83,3.12 2.99,-0.26 5.55,-1.53 7.59,-3.72 2.77,-2.98 3.9,-6.62 3.93,-11.22 z" transform="translate(-21.19 -9.984)"/><path xmlns="http://www.w3.org/2000/svg" fill="#63666B" d="m 21.19,112.57 c 2.35,0 4.6,0 6.86,0 0.45,0 0.59,0.29 0.68,0.64 1.4,5.3 2.78,10.6 4.21,15.9 1.95,7.25 3.94,14.49 5.9,21.74 0.54,2.01 1.06,4.03 1.58,6.05 0.09,0.34 0.13,0.78 0.52,0.8 0.42,0.03 0.45,-0.45 0.56,-0.76 2.2,-6.58 4.4,-13.15 6.59,-19.73 1.79,-5.39 3.58,-10.79 5.34,-16.19 0.19,-0.59 0.47,-0.76 1.07,-0.74 1.66,0.04 3.33,0.05 4.99,0 0.65,-0.02 0.92,0.19 1.12,0.81 2.23,6.8 4.49,13.58 6.74,20.37 1.65,4.98 3.31,9.96 4.96,14.94 0.07,0.21 0.14,0.41 0.23,0.61 0.11,0.25 0.18,0.56 0.56,0.54 0.39,-0.02 0.39,-0.33 0.46,-0.6 0.77,-3.05 1.54,-6.1 2.32,-9.14 1.4,-5.49 2.81,-10.98 4.2,-16.46 1.52,-5.97 3.05,-11.94 4.54,-17.92 0.17,-0.68 0.47,-0.89 1.16,-0.87 1.82,0.05 3.64,0.05 5.46,0 0.72,-0.02 0.93,0.12 0.73,0.88 -1.59,5.86 -3.15,11.73 -4.71,17.6 -1.44,5.42 -2.85,10.85 -4.3,16.27 -1.19,4.45 -2.41,8.9 -3.61,13.35 -0.74,2.77 -1.48,5.53 -2.2,8.3 -0.14,0.55 -0.4,0.75 -0.98,0.74 -1.85,-0.04 -3.7,-0.05 -5.56,0 -0.71,0.02 -1.03,-0.2 -1.25,-0.89 -1.72,-5.39 -3.49,-10.76 -5.24,-16.13 -2.17,-6.65 -4.35,-13.3 -6.52,-19.95 -0.12,-0.36 -0.17,-0.85 -0.61,-0.84 -0.44,0.01 -0.46,0.53 -0.57,0.87 -2.46,7.57 -4.92,15.15 -7.39,22.72 -1.45,4.45 -2.95,8.89 -4.4,13.34 -0.21,0.65 -0.5,0.89 -1.19,0.87 -1.85,-0.05 -3.7,-0.05 -5.56,0 -0.62,0.01 -0.85,-0.17 -1.01,-0.77 -1.32,-4.84 -2.68,-9.67 -4.03,-14.5 -1.26,-4.5 -2.52,-9 -3.77,-13.51 -1.15,-4.14 -2.26,-8.3 -3.41,-12.44 -1.17,-4.23 -2.38,-8.46 -3.57,-12.69 -0.29,-1.03 -0.58,-2.08 -0.9,-3.21 z" transform="translate(-21.19 -9.984)"/><path xmlns="http://www.w3.org/2000/svg" fill="#E74537" d="M 185.07,60.44 C 185,74.17 174.58,84.32 161.16,84.3 147.22,84.28 137.13,74.05 137.08,60.41 c -0.04,-13.73 10.42,-24.32 24.94,-23.9 12.57,0.36 23.1,10.18 23.05,23.93 z m -37.51,-0.08 c 0.05,0.95 0.03,1.88 0.2,2.82 0.93,5.08 3.62,8.81 8.43,10.84 4.95,2.09 11.21,0.63 14.65,-3.31 4.72,-5.41 5.16,-13.37 1.07,-19.32 -3.89,-5.65 -12.03,-7.3 -17.79,-3.58 -4.56,2.94 -6.51,7.26 -6.56,12.55 z" transform="translate(-21.19 -9.984)"/><path xmlns="http://www.w3.org/2000/svg" fill="#FABC09" d="m 237.81,60.33 c -0.08,13.91 -10.49,24.03 -24,23.97 -13.79,-0.06 -23.95,-10.07 -23.98,-23.88 -0.04,-13.86 10.46,-24.22 24.8,-23.89 12.72,0.29 23.09,10.1 23.18,23.8 z m -25.08,14.62 c 5.07,-0.02 8.45,-1.46 10.97,-4.47 4.39,-5.24 4.8,-11.13 2.04,-17.21 -1.98,-4.36 -7,-8.13 -13.49,-7.31 -3.71,0.47 -6.71,2.14 -8.96,5.1 -3,3.93 -3.49,8.38 -2.56,13.1 1.13,5.82 6.54,10.91 12,10.79 z" transform="translate(-21.19 -9.984)"/><path xmlns="http://www.w3.org/2000/svg" fill="#E74537" d="m 311.77,60.87 c -0.04,-6.45 1.62,-11.76 5.3,-16.29 3.37,-4.15 7.77,-6.74 13.08,-7.72 4.3,-0.8 8.48,-0.41 12.48,1.35 2.94,1.29 5.37,3.26 7.48,5.69 2.47,2.85 4,6.19 5.35,9.64 0.21,0.54 0.17,0.79 -0.42,1.03 -6.7,2.74 -13.39,5.52 -20.08,8.28 -3.48,1.44 -6.95,2.89 -10.43,4.3 -0.82,0.33 -0.9,0.69 -0.46,1.46 2.06,3.62 5.08,5.91 9.2,6.41 5.55,0.67 10.19,-1.11 13.54,-5.74 0.45,-0.62 0.74,-0.63 1.33,-0.23 2.14,1.47 4.31,2.91 6.49,4.32 0.56,0.36 0.58,0.58 0.17,1.12 -3.83,5.06 -8.79,8.37 -15.06,9.45 -6.99,1.2 -13.46,-0.28 -19.1,-4.65 -4.67,-3.62 -7.39,-8.49 -8.5,-14.28 -0.28,-1.57 -0.43,-3.15 -0.37,-4.14 z m 10.25,-2.16 c 0.2,0.21 -0.44,1.15 0.66,0.7 6.55,-2.73 13.12,-5.44 19.67,-8.16 1.27,-0.53 1.34,-0.66 0.53,-1.79 -2.15,-2.98 -5.29,-4.06 -8.72,-3.8 -6.81,0.5 -11.83,5.83 -12.14,13.05 z" transform="translate(-21.19 -9.984)"/><path xmlns="http://www.w3.org/2000/svg" fill="#62656B" d="m 236.63,158.78 c 0,-9.04 0.01,-18.08 -0.02,-27.12 0,-0.83 0.2,-1.08 1.04,-1.04 1.69,0.07 3.39,0.04 5.08,0.01 0.57,-0.01 0.77,0.16 0.75,0.74 -0.04,1.29 -0.02,2.57 -0.01,3.86 0,0.29 -0.13,0.69 0.28,0.8 0.32,0.09 0.5,-0.23 0.66,-0.45 2.52,-3.66 6.24,-5.36 10.41,-6.02 4.89,-0.78 9.34,0.55 13.18,3.71 4.32,3.55 6.89,8.15 7.64,13.67 0.87,6.39 -0.61,12.23 -4.71,17.29 -2.79,3.45 -6.33,5.86 -10.74,6.52 -5.61,0.84 -10.67,-0.51 -14.76,-4.66 -0.44,-0.44 -0.77,-0.99 -1.15,-1.48 -0.13,-0.17 -0.27,-0.39 -0.52,-0.33 -0.27,0.06 -0.32,0.32 -0.28,0.53 0.27,1.51 0.08,3.05 0.27,4.57 0.04,0.34 0.11,0.67 0.11,1.02 0,5.15 -0.02,10.29 0.02,15.44 0.01,0.87 -0.2,1.23 -1.14,1.19 -1.72,-0.07 -3.45,-0.06 -5.18,0 -0.75,0.02 -0.94,-0.21 -0.94,-0.95 0.02,-9.1 0.01,-18.2 0.01,-27.3 z m 31.85,-8.59 c 0.21,-4.02 -1.01,-7.71 -3.95,-10.65 -2.73,-2.73 -6.08,-3.88 -10.01,-3.41 -5.17,0.62 -9,4.54 -10.29,9.27 -0.65,2.37 -0.72,4.8 -0.44,7.26 0.36,3.2 1.58,5.93 3.81,8.27 4.26,4.46 12.22,4.64 16.78,0.11 2.98,-2.97 4.26,-6.57 4.1,-10.85 z" transform="translate(-21.19 -9.984)"/><path xmlns="http://www.w3.org/2000/svg" fill="#62656B" d="m 313.72,155.61 c 0,4.95 -0.02,9.03 0.02,13.1 0.01,0.8 -0.24,1.01 -1.01,0.99 -1.63,-0.06 -3.26,-0.05 -4.9,0 -0.76,0.02 -0.99,-0.27 -0.96,-0.99 0.04,-1.16 0.02,-2.32 0.01,-3.48 0,-0.3 0.09,-0.66 -0.34,-0.76 -0.37,-0.08 -0.46,0.22 -0.63,0.44 -1.69,2.23 -3.71,4.07 -6.38,5.08 -2.19,0.83 -4.41,1.08 -6.78,0.89 -2.33,-0.19 -4.5,-0.73 -6.51,-1.86 -3.35,-1.89 -5.78,-4.55 -6.68,-8.42 -1.47,-6.36 1.55,-11.91 7.59,-14.48 2.17,-0.93 4.46,-1.31 6.8,-1.56 4.17,-0.45 8.12,0.32 11.94,1.91 0.68,0.29 0.93,0.18 1.01,-0.61 0.59,-5.74 -4.11,-9.44 -8.28,-10.02 -4.57,-0.64 -8.57,0.6 -11.47,4.46 -0.24,0.33 -0.42,0.49 -0.83,0.22 -1.63,-1.05 -3.27,-2.09 -4.93,-3.09 -0.66,-0.4 -0.71,-0.71 -0.22,-1.32 2.43,-3.06 5.54,-5.03 9.3,-5.99 2.08,-0.53 4.22,-0.93 6.37,-0.79 5.01,0.33 9.69,1.51 13.21,5.48 2.04,2.3 3.14,5.03 3.48,8.04 0.49,4.54 0.03,9.09 0.19,12.76 z m -26.99,2.63 c -0.11,1.31 0.63,2.76 1.91,3.92 2.11,1.93 4.63,2.55 7.46,2.24 5.28,-0.57 9.68,-4.61 10.57,-9.81 0.24,-1.43 0.09,-1.82 -1.21,-2.48 -1.11,-0.57 -2.25,-1.07 -3.5,-1.3 -1.17,-0.22 -2.35,-0.31 -3.53,-0.41 -2.64,-0.21 -5.2,0.06 -7.55,1.33 -2.37,1.29 -4.12,3.08 -4.15,6.51 z" transform="translate(-21.19 -9.984)"/><path xmlns="http://www.w3.org/2000/svg" fill="#63666B" d="m 199.6,169.69 c -2.91,0 -5.57,-0.01 -8.24,0.01 -0.42,0 -0.59,-0.23 -0.79,-0.54 -3.67,-5.56 -7.36,-11.11 -11.04,-16.66 -0.16,-0.23 -0.33,-0.45 -0.49,-0.69 -0.32,-0.48 -0.73,-0.51 -1.1,-0.14 -1.84,1.8 -3.65,3.63 -5.47,5.44 -0.29,0.29 -0.21,0.64 -0.21,0.98 0,3.58 -0.02,7.16 0.01,10.73 0.01,0.7 -0.18,0.91 -0.89,0.89 -1.72,-0.05 -3.45,-0.06 -5.18,0 -0.8,0.03 -0.99,-0.24 -0.99,-1.01 0.02,-11.92 0.02,-23.85 0.02,-35.77 0,-6.46 0.01,-12.93 -0.02,-19.39 0,-0.8 0.24,-1 1,-0.98 1.72,0.06 3.45,0.07 5.18,-0.01 0.86,-0.04 0.87,0.37 0.87,1 -0.01,10.8 -0.01,21.59 0,32.39 0,0.53 -0.33,1.28 0.26,1.55 0.68,0.31 0.99,-0.52 1.37,-0.91 2.74,-2.8 5.57,-5.51 8.25,-8.37 2.27,-2.42 4.67,-4.71 7.02,-7.06 0.27,-0.27 0.51,-0.52 0.95,-0.52 2.76,0.02 5.52,0.01 8.29,0.02 0.08,0 0.16,0.06 0.29,0.1 -0.24,0.53 -0.69,0.82 -1.06,1.19 -4.53,4.53 -9.05,9.06 -13.59,13.57 -0.47,0.47 -0.51,0.79 -0.13,1.34 4.67,6.78 9.31,13.57 13.97,20.36 0.53,0.77 1.06,1.53 1.72,2.48 z" transform="translate(-21.19 -9.984)"/><path xmlns="http://www.w3.org/2000/svg" fill="#62656B" d="m 131.96,150.29 c 0.05,4.8 -1.25,9.17 -4.18,13.01 -3.23,4.23 -7.51,6.78 -12.76,7.48 -5.73,0.76 -11.08,-0.38 -15.69,-4.06 -3.75,-2.98 -5.97,-6.92 -6.96,-11.57 -0.36,-1.7 -0.63,-3.42 -0.58,-5.18 0.19,-5.88 2.02,-11.06 6.35,-15.22 2.85,-2.74 6.24,-4.36 10.09,-5.02 5.84,-1.01 11.24,0.12 15.96,3.77 3.98,3.09 6.4,7.2 7.4,12.14 0.31,1.53 0.46,3.08 0.37,4.65 z m -7.22,0.02 c 0.11,-0.83 -0.1,-1.63 -0.18,-2.43 -0.23,-2.25 -0.87,-4.4 -2.19,-6.22 -3,-4.14 -7.01,-6.17 -12.24,-5.51 -5,0.63 -9,4.5 -10.36,9.16 -0.76,2.62 -0.78,5.31 -0.4,8 0.47,3.26 1.96,5.97 4.45,8.12 2.93,2.53 6.37,3.31 10.15,2.75 4.08,-0.6 6.99,-2.86 8.99,-6.38 1.31,-2.32 1.67,-4.88 1.78,-7.49 z" transform="translate(-21.19 -9.984)"/><path xmlns="http://www.w3.org/2000/svg" fill="#38A856" d="m 295.96,47.81 c 0,-11.33 0,-22.65 0,-33.98 0,-1.28 0,-1.28 1.31,-1.28 2.7,0 5.4,0.02 8.09,-0.01 0.79,-0.01 1.02,0.25 1.02,1.03 -0.02,22.81 -0.02,45.62 0,68.42 0,0.71 -0.2,0.9 -0.9,0.89 -2.85,-0.04 -5.71,-0.05 -8.57,0 -0.81,0.01 -0.98,-0.25 -0.98,-1.01 0.04,-11.34 0.03,-22.7 0.03,-34.06 z" transform="translate(-21.19 -9.984)"/><path xmlns="http://www.w3.org/2000/svg" fill="#62656B" d="m 216.08,171.01 c -4.71,-0.09 -8.83,-1.4 -12.32,-4.51 -1.86,-1.66 -3.27,-3.58 -4.25,-5.86 -0.2,-0.46 -0.23,-0.66 0.33,-0.88 1.6,-0.63 3.19,-1.3 4.73,-2.06 0.71,-0.34 1.01,-0.2 1.33,0.47 1.25,2.65 3.2,4.63 5.92,5.74 1.74,0.71 3.55,0.9 5.48,0.68 1.96,-0.22 3.69,-0.77 5.27,-1.93 2.34,-1.73 2.09,-5.09 0.09,-6.76 -1.73,-1.45 -3.81,-2.08 -5.95,-2.61 -3.38,-0.84 -6.84,-1.47 -10.01,-3.01 -1.96,-0.95 -3.73,-2.15 -4.93,-4.06 -1.7,-2.71 -1.9,-5.58 -0.92,-8.54 1.2,-3.63 4,-5.66 7.38,-6.99 2.48,-0.98 5.13,-1.46 7.78,-1.33 4.61,0.22 8.82,1.64 12.17,5 1,1 1.76,2.19 2.38,3.47 0.19,0.38 0.12,0.52 -0.27,0.68 -1.71,0.69 -3.41,1.41 -5.11,2.13 -0.43,0.18 -0.67,0.17 -0.97,-0.3 -2,-3.12 -4.9,-4.53 -8.59,-4.56 -2.16,-0.02 -4.16,0.24 -5.97,1.49 -3.07,2.12 -2.86,5.5 0.46,7.23 1.57,0.82 3.29,1.14 4.98,1.6 3.31,0.89 6.71,1.47 9.82,3 2.72,1.34 5.02,3.19 5.97,6.17 1.15,3.63 0.81,7.12 -1.72,10.16 -2.63,3.16 -6.14,4.71 -10.1,5.37 -1.03,0.16 -2.07,0.15 -2.98,0.21 z" transform="translate(-21.19 -9.984)"/><path xmlns="http://www.w3.org/2000/svg" fill="#62656B" d="m 325.96,150.04 c -0.04,3.5 0.68,6.65 2.78,9.36 2.05,2.65 4.54,4.56 8.03,4.98 3.04,0.36 5.89,-0.02 8.54,-1.61 1.91,-1.15 3.24,-2.83 4.23,-4.78 0.29,-0.56 0.51,-0.7 1.12,-0.43 1.51,0.69 3.03,1.34 4.58,1.93 0.87,0.32 0.85,0.76 0.48,1.46 -2.55,4.93 -6.48,8.18 -11.88,9.43 -6.35,1.47 -12.3,0.43 -17.5,-3.64 -3.79,-2.97 -6,-6.98 -7.01,-11.65 -1.38,-6.39 -0.33,-12.37 3.47,-17.69 3.1,-4.34 7.41,-6.84 12.72,-7.71 4.28,-0.71 8.31,-0.15 12.15,1.79 3.65,1.84 6.26,4.72 7.96,8.43 0.18,0.39 0.27,0.61 -0.29,0.82 -1.67,0.63 -3.31,1.33 -4.93,2.06 -0.67,0.3 -0.96,0.17 -1.29,-0.48 -1.48,-2.95 -3.7,-5.15 -6.96,-6.01 -6.08,-1.61 -11.18,0.68 -14.39,6.16 -1.37,2.35 -1.88,4.98 -1.81,7.58 z" transform="translate(-21.19 -9.984)"/><path xmlns="http://www.w3.org/2000/svg" fill="#63666C" d="m 137.56,150.2 c 0,-6.21 0.01,-12.42 -0.02,-18.63 0,-0.74 0.19,-0.97 0.94,-0.94 1.63,0.06 3.26,0.06 4.89,0 0.85,-0.03 1.08,0.3 1.05,1.1 -0.05,1.44 -0.02,2.89 -0.01,4.33 0,0.26 -0.11,0.63 0.26,0.72 0.36,0.09 0.44,-0.27 0.57,-0.51 2.05,-3.78 5.42,-5.64 9.46,-6.56 2.06,-0.47 4.01,0.04 5.98,0.48 0.57,0.13 0.75,0.42 0.56,1.02 -0.58,1.81 -1.13,3.63 -1.65,5.46 -0.15,0.51 -0.39,0.53 -0.86,0.45 -1.98,-0.33 -4.02,-0.45 -5.97,-0.01 -4.05,0.92 -7.52,5.11 -8.03,9.23 -0.24,1.91 -0.14,3.81 -0.15,5.72 -0.03,5.58 -0.02,11.17 0,16.75 0,0.69 -0.16,0.92 -0.88,0.9 -1.72,-0.05 -3.45,-0.08 -5.17,0.01 -0.9,0.05 -1,-0.3 -1,-1.07 0.04,-6.15 0.03,-12.3 0.03,-18.45 z" transform="translate(-21.19 -9.984)"/>
		</g>
		<g id="img-googleworkspace">
			<sodipodi:namedview xmlns:sodipodi="http://sodipodi.sourceforge.net/DTD/sodipodi-0.dtd" bordercolor="#666666" borderopacity="1" fit-margin-bottom="0" fit-margin-left="0" fit-margin-right="0" fit-margin-top="0" gridtolerance="10" guidetolerance="10" objecttolerance="10" pagecolor="#ffffff" showgrid="false" xmlns:inkscape="http://www.inkscape.org/namespaces/inkscape" inkscape:current-layer="Layer_1" inkscape:cx="150.158" inkscape:cy="66.472" inkscape:pagecheckerboard="0" inkscape:pageopacity="0" inkscape:pageshadow="2" inkscape:window-height="1003" inkscape:window-maximized="0" inkscape:window-width="2376" inkscape:window-x="0" inkscape:window-y="23" inkscape:zoom="2.73"/><g xmlns="http://www.w3.org/2000/svg" transform="translate(-21.19 -9.984)"><defs><path id="a" d="M-435.45 -1253.95H1502.29V-161.43000000000006H-435.45z"/></defs><clipPath id="b"><use width="100%" height="100%" overflow="visible" xmlns:xlink="http://www.w3.org/1999/xlink" xlink:href="#a"/></clipPath><g clip-path="url(#b)"><path fill="none" stroke="#DDDDDD" stroke-miterlimit="10" d="m 385.73,-1685.07 c 4.7,9.39 0,1954.96 0,1954.96"/><path fill="none" stroke="#DDDDDD" stroke-miterlimit="10" d="m 294.66,-1685.07 c 4.7,9.39 0,1954.96 0,1954.96"/><path fill="none" stroke="#DDDDDD" stroke-miterlimit="10" d="m 203.59,-1685.07 c 4.7,9.39 0,1954.96 0,1954.96"/><path fill="none" stroke="#DDDDDD" stroke-miterlimit="10" d="m 112.51,-1685.07 c 4.7,9.39 0,1954.96 0,1954.96"/><path fill="none" stroke="#DDDDDD" stroke-miterlimit="10" d="m 21.44,-1685.07 c 4.7,9.39 0,1954.96 0,1954.96"/></g></g><path xmlns="http://www.w3.org/2000/svg" fill="#62656B" d="m 397.42,151.11 c -0.53,0.27 -1.1,0.32 -1.69,0.32 -9.45,-0.01 -18.9,-0.01 -28.35,-0.01 -1.26,0 -1.17,0 -1.12,1.24 0.1,2.91 1.12,5.44 3.03,7.58 2.04,2.28 4.54,3.72 7.64,4.14 2.41,0.32 4.72,0.12 6.95,-0.83 2.52,-1.06 4.31,-2.95 5.74,-5.2 0.43,-0.68 0.76,-0.7 1.4,-0.36 1.44,0.76 2.9,1.49 4.4,2.14 0.88,0.38 0.81,0.82 0.38,1.49 -1.85,2.9 -4.22,5.26 -7.27,6.88 -2.5,1.33 -5.14,2.11 -8.01,2.35 -4.38,0.37 -8.47,-0.39 -12.2,-2.69 -4.26,-2.62 -7.03,-6.43 -8.49,-11.19 -0.84,-2.71 -1.15,-5.5 -0.94,-8.31 0.35,-4.64 1.78,-8.88 4.79,-12.55 3.05,-3.71 6.96,-5.94 11.64,-6.54 6.17,-0.79 11.82,0.58 16.33,5.15 2.53,2.55 3.97,5.74 4.74,9.22 0.32,1.43 0.66,2.85 0.58,4.33 -0.02,0.32 -0.1,0.74 0.44,0.76 0.01,0.7 0.01,1.39 0.01,2.08 z m -19.38,-5.73 c 3.42,0 6.84,0 10.26,0 0.97,0 1.07,-0.15 0.9,-1.1 -0.24,-1.34 -0.71,-2.59 -1.5,-3.7 -1.94,-2.73 -4.63,-4.03 -7.91,-4.47 -5.84,-0.78 -11.13,2.66 -12.65,8.33 -0.22,0.81 -0.05,0.97 0.74,0.97 3.38,-0.04 6.77,-0.03 10.16,-0.03 z" transform="translate(-21.19 -9.984)"/><path xmlns="http://www.w3.org/2000/svg" fill="#4485F3" d="m 115.59,44.08 c 5.27,0 10.55,0.01 15.82,-0.01 0.7,0 1.02,0.09 1.13,0.91 0.4,2.99 0.38,5.97 0.14,8.97 -0.25,3.13 -0.89,6.17 -1.94,9.12 -1.42,4.03 -3.55,7.62 -6.56,10.71 -2.65,2.73 -5.61,5.01 -8.97,6.73 -3.24,1.65 -6.72,2.68 -10.33,3.23 -2.28,0.35 -4.59,0.62 -6.89,0.55 -6.53,-0.21 -12.71,-1.73 -18.42,-5.02 -3.65,-2.1 -6.94,-4.62 -9.7,-7.77 -3.39,-3.87 -5.96,-8.24 -7.55,-13.18 -1.28,-3.97 -1.91,-8 -1.75,-12.17 0.04,-1.09 -0.08,-2.2 -0.07,-3.27 0.01,-1.09 0.49,-2.19 0.73,-3.3 1.26,-5.75 3.72,-10.96 7.4,-15.53 2.84,-3.53 6.23,-6.49 10.16,-8.79 4.23,-2.47 8.76,-4.02 13.57,-4.99 1.95,-0.39 3.8,-0.11 5.69,-0.24 1.93,-0.13 3.85,0.03 5.79,0.3 6.59,0.93 12.39,3.56 17.5,7.77 0.63,0.52 1.24,1.05 1.87,1.55 0.27,0.21 0.26,0.37 0.03,0.6 -2.11,2.1 -4.22,4.21 -6.32,6.33 -0.33,0.33 -0.52,0.15 -0.77,-0.08 -3.09,-2.86 -6.68,-4.85 -10.73,-5.95 -3.44,-0.94 -6.95,-1.03 -10.5,-0.67 -3.32,0.34 -6.42,1.32 -9.34,2.87 -4.65,2.48 -8.22,6.07 -10.87,10.61 -1.94,3.32 -3.12,6.92 -3.42,10.71 -0.37,4.74 0.06,9.41 2,13.87 2.32,5.34 5.96,9.51 10.84,12.61 3.15,2.01 6.6,3.26 10.33,3.66 4.26,0.45 8.49,0.35 12.61,-0.95 3.01,-0.95 5.72,-2.47 8.16,-4.5 2.29,-1.91 4.22,-4.08 5.49,-6.81 0.98,-2.11 1.59,-4.34 2,-6.62 0.23,-1.29 -0.02,-1.53 -1.36,-1.53 -7.22,0 -14.44,-0.02 -21.66,0.02 -0.88,0 -1.11,-0.25 -1.09,-1.1 0.05,-2.54 0.06,-5.08 0,-7.63 -0.02,-0.86 0.26,-1.04 1.07,-1.03 5.3,0.04 10.61,0.02 15.91,0.02 z" transform="translate(-21.19 -9.984)"/><path xmlns="http://www.w3.org/2000/svg" fill="#4485F3" d="m 288.23,61.47 c 0,7.06 0.05,14.12 -0.02,21.18 -0.05,5.63 -1.46,10.9 -4.89,15.47 -2.2,2.93 -5.13,4.89 -8.54,6.18 -3.73,1.41 -7.61,1.85 -11.53,1.47 -5.37,-0.53 -10.01,-2.74 -13.82,-6.62 -1.84,-1.87 -3.29,-4.01 -4.48,-6.34 -0.27,-0.54 -0.24,-0.88 0.39,-1.13 2.41,-0.97 4.81,-1.95 7.19,-2.99 0.69,-0.3 0.95,-0.09 1.27,0.51 1.69,3.15 4.05,5.61 7.48,6.9 2.48,0.93 5.02,0.95 7.58,0.45 4.92,-0.97 7.9,-4 9.24,-8.78 0.74,-2.66 0.61,-5.38 0.62,-8.09 0,-0.29 -0.02,-0.58 -0.32,-0.73 -0.39,-0.2 -0.57,0.13 -0.78,0.35 -2.9,3.05 -6.52,4.49 -10.66,4.84 -5.86,0.49 -10.93,-1.45 -15.43,-5.02 -4.63,-3.67 -7.39,-8.52 -8.46,-14.3 -1.36,-7.32 0.45,-13.89 5.05,-19.68 3.17,-4 7.27,-6.65 12.23,-7.92 5.94,-1.52 11.4,-0.54 16.3,3.22 0.42,0.32 0.76,0.75 1.15,1.11 0.17,0.17 0.32,0.43 0.62,0.31 0.33,-0.13 0.3,-0.44 0.3,-0.72 0,-0.78 0.02,-1.57 -0.01,-2.35 -0.02,-0.49 0.1,-0.75 0.67,-0.74 2.73,0.02 5.46,0.03 8.19,0 0.85,-0.01 0.67,0.55 0.67,1.02 -0.01,7.46 -0.01,14.93 -0.01,22.4 z m -9.02,-1.53 c 0.05,-0.72 -0.16,-1.98 -0.4,-3.24 -1.19,-6.13 -6.43,-11.65 -13.89,-10.75 -3.85,0.46 -6.83,2.28 -9.08,5.36 -2.75,3.78 -3.29,8.07 -2.49,12.53 0.56,3.11 2.07,5.81 4.51,7.92 2.83,2.45 6.14,3.44 9.83,3.12 2.99,-0.26 5.55,-1.53 7.59,-3.72 2.77,-2.98 3.9,-6.62 3.93,-11.22 z" transform="translate(-21.19 -9.984)"/><path xmlns="http://www.w3.org/2000/svg" fill="#63666B" d="m 21.19,112.57 c 2.35,0 4.6,0 6.86,0 0.45,0 0.59,0.29 0.68,0.64 1.4,5.3 2.78,10.6 4.21,15.9 1.95,7.25 3.94,14.49 5.9,21.74 0.54,2.01 1.06,4.03 1.58,6.05 0.09,0.34 0.13,0.78 0.52,0.8 0.42,0.03 0.45,-0.45 0.56,-0.76 2.2,-6.58 4.4,-13.15 6.59,-19.73 1.79,-5.39 3.58,-10.79 5.34,-16.19 0.19,-0.59 0.47,-0.76 1.07,-0.74 1.66,0.04 3.33,0.05 4.99,0 0.65,-0.02 0.92,0.19 1.12,0.81 2.23,6.8 4.49,13.58 6.74,20.37 1.65,4.98 3.31,9.96 4.96,14.94 0.07,0.21 0.14,0.41 0.23,0.61 0.11,0.25 0.18,0.56 0.56,0.54 0.39,-0.02 0.39,-0.33 0.46,-0.6 0.77,-3.05 1.54,-6.1 2.32,-9.14 1.4,-5.49 2.81,-10.98 4.2,-16.46 1.52,-5.97 3.05,-11.94 4.54,-17.92 0.17,-0.68 0.47,-0.89 1.16,-0.87 1.82,0.05 3.64,0.05 5.46,0 0.72,-0.02 0.93,0.12 0.73,0.88 -1.59,5.86 -3.15,11.73 -4.71,17.6 -1.44,5.42 -2.85,10.85 -4.3,16.27 -1.19,4.45 -2.41,8.9 -3.61,13.35 -0.74,2.77 -1.48,5.53 -2.2,8.3 -0.14,0.55 -0.4,0.75 -0.98,0.74 -1.85,-0.04 -3.7,-0.05 -5.56,0 -0.71,0.02 -1.03,-0.2 -1.25,-0.89 -1.72,-5.39 -3.49,-10.76 -5.24,-16.13 -2.17,-6.65 -4.35,-13.3 -6.52,-19.95 -0.12,-0.36 -0.17,-0.85 -0.61,-0.84 -0.44,0.01 -0.46,0.53 -0.57,0.87 -2.46,7.57 -4.92,15.15 -7.39,22.72 -1.45,4.45 -2.95,8.89 -4.4,13.34 -0.21,0.65 -0.5,0.89 -1.19,0.87 -1.85,-0.05 -3.7,-0.05 -5.56,0 -0.62,0.01 -0.85,-0.17 -1.01,-0.77 -1.32,-4.84 -2.68,-9.67 -4.03,-14.5 -1.26,-4.5 -2.52,-9 -3.77,-13.51 -1.15,-4.14 -2.26,-8.3 -3.41,-12.44 -1.17,-4.23 -2.38,-8.46 -3.57,-12.69 -0.29,-1.03 -0.58,-2.08 -0.9,-3.21 z" transform="translate(-21.19 -9.984)"/><path xmlns="http://www.w3.org/2000/svg" fill="#E74537" d="M 185.07,60.44 C 185,74.17 174.58,84.32 161.16,84.3 147.22,84.28 137.13,74.05 137.08,60.41 c -0.04,-13.73 10.42,-24.32 24.94,-23.9 12.57,0.36 23.1,10.18 23.05,23.93 z m -37.51,-0.08 c 0.05,0.95 0.03,1.88 0.2,2.82 0.93,5.08 3.62,8.81 8.43,10.84 4.95,2.09 11.21,0.63 14.65,-3.31 4.72,-5.41 5.16,-13.37 1.07,-19.32 -3.89,-5.65 -12.03,-7.3 -17.79,-3.58 -4.56,2.94 -6.51,7.26 -6.56,12.55 z" transform="translate(-21.19 -9.984)"/><path xmlns="http://www.w3.org/2000/svg" fill="#FABC09" d="m 237.81,60.33 c -0.08,13.91 -10.49,24.03 -24,23.97 -13.79,-0.06 -23.95,-10.07 -23.98,-23.88 -0.04,-13.86 10.46,-24.22 24.8,-23.89 12.72,0.29 23.09,10.1 23.18,23.8 z m -25.08,14.62 c 5.07,-0.02 8.45,-1.46 10.97,-4.47 4.39,-5.24 4.8,-11.13 2.04,-17.21 -1.98,-4.36 -7,-8.13 -13.49,-7.31 -3.71,0.47 -6.71,2.14 -8.96,5.1 -3,3.93 -3.49,8.38 -2.56,13.1 1.13,5.82 6.54,10.91 12,10.79 z" transform="translate(-21.19 -9.984)"/><path xmlns="http://www.w3.org/2000/svg" fill="#E74537" d="m 311.77,60.87 c -0.04,-6.45 1.62,-11.76 5.3,-16.29 3.37,-4.15 7.77,-6.74 13.08,-7.72 4.3,-0.8 8.48,-0.41 12.48,1.35 2.94,1.29 5.37,3.26 7.48,5.69 2.47,2.85 4,6.19 5.35,9.64 0.21,0.54 0.17,0.79 -0.42,1.03 -6.7,2.74 -13.39,5.52 -20.08,8.28 -3.48,1.44 -6.95,2.89 -10.43,4.3 -0.82,0.33 -0.9,0.69 -0.46,1.46 2.06,3.62 5.08,5.91 9.2,6.41 5.55,0.67 10.19,-1.11 13.54,-5.74 0.45,-0.62 0.74,-0.63 1.33,-0.23 2.14,1.47 4.31,2.91 6.49,4.32 0.56,0.36 0.58,0.58 0.17,1.12 -3.83,5.06 -8.79,8.37 -15.06,9.45 -6.99,1.2 -13.46,-0.28 -19.1,-4.65 -4.67,-3.62 -7.39,-8.49 -8.5,-14.28 -0.28,-1.57 -0.43,-3.15 -0.37,-4.14 z m 10.25,-2.16 c 0.2,0.21 -0.44,1.15 0.66,0.7 6.55,-2.73 13.12,-5.44 19.67,-8.16 1.27,-0.53 1.34,-0.66 0.53,-1.79 -2.15,-2.98 -5.29,-4.06 -8.72,-3.8 -6.81,0.5 -11.83,5.83 -12.14,13.05 z" transform="translate(-21.19 -9.984)"/><path xmlns="http://www.w3.org/2000/svg" fill="#62656B" d="m 236.63,158.78 c 0,-9.04 0.01,-18.08 -0.02,-27.12 0,-0.83 0.2,-1.08 1.04,-1.04 1.69,0.07 3.39,0.04 5.08,0.01 0.57,-0.01 0.77,0.16 0.75,0.74 -0.04,1.29 -0.02,2.57 -0.01,3.86 0,0.29 -0.13,0.69 0.28,0.8 0.32,0.09 0.5,-0.23 0.66,-0.45 2.52,-3.66 6.24,-5.36 10.41,-6.02 4.89,-0.78 9.34,0.55 13.18,3.71 4.32,3.55 6.89,8.15 7.64,13.67 0.87,6.39 -0.61,12.23 -4.71,17.29 -2.79,3.45 -6.33,5.86 -10.74,6.52 -5.61,0.84 -10.67,-0.51 -14.76,-4.66 -0.44,-0.44 -0.77,-0.99 -1.15,-1.48 -0.13,-0.17 -0.27,-0.39 -0.52,-0.33 -0.27,0.06 -0.32,0.32 -0.28,0.53 0.27,1.51 0.08,3.05 0.27,4.57 0.04,0.34 0.11,0.67 0.11,1.02 0,5.15 -0.02,10.29 0.02,15.44 0.01,0.87 -0.2,1.23 -1.14,1.19 -1.72,-0.07 -3.45,-0.06 -5.18,0 -0.75,0.02 -0.94,-0.21 -0.94,-0.95 0.02,-9.1 0.01,-18.2 0.01,-27.3 z m 31.85,-8.59 c 0.21,-4.02 -1.01,-7.71 -3.95,-10.65 -2.73,-2.73 -6.08,-3.88 -10.01,-3.41 -5.17,0.62 -9,4.54 -10.29,9.27 -0.65,2.37 -0.72,4.8 -0.44,7.26 0.36,3.2 1.58,5.93 3.81,8.27 4.26,4.46 12.22,4.64 16.78,0.11 2.98,-2.97 4.26,-6.57 4.1,-10.85 z" transform="translate(-21.19 -9.984)"/><path xmlns="http://www.w3.org/2000/svg" fill="#62656B" d="m 313.72,155.61 c 0,4.95 -0.02,9.03 0.02,13.1 0.01,0.8 -0.24,1.01 -1.01,0.99 -1.63,-0.06 -3.26,-0.05 -4.9,0 -0.76,0.02 -0.99,-0.27 -0.96,-0.99 0.04,-1.16 0.02,-2.32 0.01,-3.48 0,-0.3 0.09,-0.66 -0.34,-0.76 -0.37,-0.08 -0.46,0.22 -0.63,0.44 -1.69,2.23 -3.71,4.07 -6.38,5.08 -2.19,0.83 -4.41,1.08 -6.78,0.89 -2.33,-0.19 -4.5,-0.73 -6.51,-1.86 -3.35,-1.89 -5.78,-4.55 -6.68,-8.42 -1.47,-6.36 1.55,-11.91 7.59,-14.48 2.17,-0.93 4.46,-1.31 6.8,-1.56 4.17,-0.45 8.12,0.32 11.94,1.91 0.68,0.29 0.93,0.18 1.01,-0.61 0.59,-5.74 -4.11,-9.44 -8.28,-10.02 -4.57,-0.64 -8.57,0.6 -11.47,4.46 -0.24,0.33 -0.42,0.49 -0.83,0.22 -1.63,-1.05 -3.27,-2.09 -4.93,-3.09 -0.66,-0.4 -0.71,-0.71 -0.22,-1.32 2.43,-3.06 5.54,-5.03 9.3,-5.99 2.08,-0.53 4.22,-0.93 6.37,-0.79 5.01,0.33 9.69,1.51 13.21,5.48 2.04,2.3 3.14,5.03 3.48,8.04 0.49,4.54 0.03,9.09 0.19,12.76 z m -26.99,2.63 c -0.11,1.31 0.63,2.76 1.91,3.92 2.11,1.93 4.63,2.55 7.46,2.24 5.28,-0.57 9.68,-4.61 10.57,-9.81 0.24,-1.43 0.09,-1.82 -1.21,-2.48 -1.11,-0.57 -2.25,-1.07 -3.5,-1.3 -1.17,-0.22 -2.35,-0.31 -3.53,-0.41 -2.64,-0.21 -5.2,0.06 -7.55,1.33 -2.37,1.29 -4.12,3.08 -4.15,6.51 z" transform="translate(-21.19 -9.984)"/><path xmlns="http://www.w3.org/2000/svg" fill="#63666B" d="m 199.6,169.69 c -2.91,0 -5.57,-0.01 -8.24,0.01 -0.42,0 -0.59,-0.23 -0.79,-0.54 -3.67,-5.56 -7.36,-11.11 -11.04,-16.66 -0.16,-0.23 -0.33,-0.45 -0.49,-0.69 -0.32,-0.48 -0.73,-0.51 -1.1,-0.14 -1.84,1.8 -3.65,3.63 -5.47,5.44 -0.29,0.29 -0.21,0.64 -0.21,0.98 0,3.58 -0.02,7.16 0.01,10.73 0.01,0.7 -0.18,0.91 -0.89,0.89 -1.72,-0.05 -3.45,-0.06 -5.18,0 -0.8,0.03 -0.99,-0.24 -0.99,-1.01 0.02,-11.92 0.02,-23.85 0.02,-35.77 0,-6.46 0.01,-12.93 -0.02,-19.39 0,-0.8 0.24,-1 1,-0.98 1.72,0.06 3.45,0.07 5.18,-0.01 0.86,-0.04 0.87,0.37 0.87,1 -0.01,10.8 -0.01,21.59 0,32.39 0,0.53 -0.33,1.28 0.26,1.55 0.68,0.31 0.99,-0.52 1.37,-0.91 2.74,-2.8 5.57,-5.51 8.25,-8.37 2.27,-2.42 4.67,-4.71 7.02,-7.06 0.27,-0.27 0.51,-0.52 0.95,-0.52 2.76,0.02 5.52,0.01 8.29,0.02 0.08,0 0.16,0.06 0.29,0.1 -0.24,0.53 -0.69,0.82 -1.06,1.19 -4.53,4.53 -9.05,9.06 -13.59,13.57 -0.47,0.47 -0.51,0.79 -0.13,1.34 4.67,6.78 9.31,13.57 13.97,20.36 0.53,0.77 1.06,1.53 1.72,2.48 z" transform="translate(-21.19 -9.984)"/><path xmlns="http://www.w3.org/2000/svg" fill="#62656B" d="m 131.96,150.29 c 0.05,4.8 -1.25,9.17 -4.18,13.01 -3.23,4.23 -7.51,6.78 -12.76,7.48 -5.73,0.76 -11.08,-0.38 -15.69,-4.06 -3.75,-2.98 -5.97,-6.92 -6.96,-11.57 -0.36,-1.7 -0.63,-3.42 -0.58,-5.18 0.19,-5.88 2.02,-11.06 6.35,-15.22 2.85,-2.74 6.24,-4.36 10.09,-5.02 5.84,-1.01 11.24,0.12 15.96,3.77 3.98,3.09 6.4,7.2 7.4,12.14 0.31,1.53 0.46,3.08 0.37,4.65 z m -7.22,0.02 c 0.11,-0.83 -0.1,-1.63 -0.18,-2.43 -0.23,-2.25 -0.87,-4.4 -2.19,-6.22 -3,-4.14 -7.01,-6.17 -12.24,-5.51 -5,0.63 -9,4.5 -10.36,9.16 -0.76,2.62 -0.78,5.31 -0.4,8 0.47,3.26 1.96,5.97 4.45,8.12 2.93,2.53 6.37,3.31 10.15,2.75 4.08,-0.6 6.99,-2.86 8.99,-6.38 1.31,-2.32 1.67,-4.88 1.78,-7.49 z" transform="translate(-21.19 -9.984)"/><path xmlns="http://www.w3.org/2000/svg" fill="#38A856" d="m 295.96,47.81 c 0,-11.33 0,-22.65 0,-33.98 0,-1.28 0,-1.28 1.31,-1.28 2.7,0 5.4,0.02 8.09,-0.01 0.79,-0.01 1.02,0.25 1.02,1.03 -0.02,22.81 -0.02,45.62 0,68.42 0,0.71 -0.2,0.9 -0.9,0.89 -2.85,-0.04 -5.71,-0.05 -8.57,0 -0.81,0.01 -0.98,-0.25 -0.98,-1.01 0.04,-11.34 0.03,-22.7 0.03,-34.06 z" transform="translate(-21.19 -9.984)"/><path xmlns="http://www.w3.org/2000/svg" fill="#62656B" d="m 216.08,171.01 c -4.71,-0.09 -8.83,-1.4 -12.32,-4.51 -1.86,-1.66 -3.27,-3.58 -4.25,-5.86 -0.2,-0.46 -0.23,-0.66 0.33,-0.88 1.6,-0.63 3.19,-1.3 4.73,-2.06 0.71,-0.34 1.01,-0.2 1.33,0.47 1.25,2.65 3.2,4.63 5.92,5.74 1.74,0.71 3.55,0.9 5.48,0.68 1.96,-0.22 3.69,-0.77 5.27,-1.93 2.34,-1.73 2.09,-5.09 0.09,-6.76 -1.73,-1.45 -3.81,-2.08 -5.95,-2.61 -3.38,-0.84 -6.84,-1.47 -10.01,-3.01 -1.96,-0.95 -3.73,-2.15 -4.93,-4.06 -1.7,-2.71 -1.9,-5.58 -0.92,-8.54 1.2,-3.63 4,-5.66 7.38,-6.99 2.48,-0.98 5.13,-1.46 7.78,-1.33 4.61,0.22 8.82,1.64 12.17,5 1,1 1.76,2.19 2.38,3.47 0.19,0.38 0.12,0.52 -0.27,0.68 -1.71,0.69 -3.41,1.41 -5.11,2.13 -0.43,0.18 -0.67,0.17 -0.97,-0.3 -2,-3.12 -4.9,-4.53 -8.59,-4.56 -2.16,-0.02 -4.16,0.24 -5.97,1.49 -3.07,2.12 -2.86,5.5 0.46,7.23 1.57,0.82 3.29,1.14 4.98,1.6 3.31,0.89 6.71,1.47 9.82,3 2.72,1.34 5.02,3.19 5.97,6.17 1.15,3.63 0.81,7.12 -1.72,10.16 -2.63,3.16 -6.14,4.71 -10.1,5.37 -1.03,0.16 -2.07,0.15 -2.98,0.21 z" transform="translate(-21.19 -9.984)"/><path xmlns="http://www.w3.org/2000/svg" fill="#62656B" d="m 325.96,150.04 c -0.04,3.5 0.68,6.65 2.78,9.36 2.05,2.65 4.54,4.56 8.03,4.98 3.04,0.36 5.89,-0.02 8.54,-1.61 1.91,-1.15 3.24,-2.83 4.23,-4.78 0.29,-0.56 0.51,-0.7 1.12,-0.43 1.51,0.69 3.03,1.34 4.58,1.93 0.87,0.32 0.85,0.76 0.48,1.46 -2.55,4.93 -6.48,8.18 -11.88,9.43 -6.35,1.47 -12.3,0.43 -17.5,-3.64 -3.79,-2.97 -6,-6.98 -7.01,-11.65 -1.38,-6.39 -0.33,-12.37 3.47,-17.69 3.1,-4.34 7.41,-6.84 12.72,-7.71 4.28,-0.71 8.31,-0.15 12.15,1.79 3.65,1.84 6.26,4.72 7.96,8.43 0.18,0.39 0.27,0.61 -0.29,0.82 -1.67,0.63 -3.31,1.33 -4.93,2.06 -0.67,0.3 -0.96,0.17 -1.29,-0.48 -1.48,-2.95 -3.7,-5.15 -6.96,-6.01 -6.08,-1.61 -11.18,0.68 -14.39,6.16 -1.37,2.35 -1.88,4.98 -1.81,7.58 z" transform="translate(-21.19 -9.984)"/><path xmlns="http://www.w3.org/2000/svg" fill="#63666C" d="m 137.56,150.2 c 0,-6.21 0.01,-12.42 -0.02,-18.63 0,-0.74 0.19,-0.97 0.94,-0.94 1.63,0.06 3.26,0.06 4.89,0 0.85,-0.03 1.08,0.3 1.05,1.1 -0.05,1.44 -0.02,2.89 -0.01,4.33 0,0.26 -0.11,0.63 0.26,0.72 0.36,0.09 0.44,-0.27 0.57,-0.51 2.05,-3.78 5.42,-5.64 9.46,-6.56 2.06,-0.47 4.01,0.04 5.98,0.48 0.57,0.13 0.75,0.42 0.56,1.02 -0.58,1.81 -1.13,3.63 -1.65,5.46 -0.15,0.51 -0.39,0.53 -0.86,0.45 -1.98,-0.33 -4.02,-0.45 -5.97,-0.01 -4.05,0.92 -7.52,5.11 -8.03,9.23 -0.24,1.91 -0.14,3.81 -0.15,5.72 -0.03,5.58 -0.02,11.17 0,16.75 0,0.69 -0.16,0.92 -0.88,0.9 -1.72,-0.05 -3.45,-0.08 -5.17,0.01 -0.9,0.05 -1,-0.3 -1,-1.07 0.04,-6.15 0.03,-12.3 0.03,-18.45 z" transform="translate(-21.19 -9.984)"/>
		</g>
		<g id="img-share-screen">
			<g xmlns="http://www.w3.org/2000/svg" fill="none" fill-rule="evenodd"><path fill="#4D4D4D" d="M20,18 C21.1,18 21.99,17.1 21.99,16 L22,6 C22,4.8954305 21.1045695,4 20,4 L4,4 C2.89,4 2,4.89 2,6 L2,16 C2,17.1045695 2.8954305,18 4,18 L0,18 L0,20 L24,20 L24,18 L20,18 Z M13,14.47 L13,12.28 C10.22,12.28 8.39,13.13 7,15 C7.56,12.33 9.11,9.67 13,9.13 L13,7 L17,10.73 L13,14.47 Z"/><path fill-rule="nonzero" d="M0 0H24V24H0z"/></g>
		</g>
		<g id="img-view-centered">
			<path xmlns="http://www.w3.org/2000/svg" fill="#4D4D4D" fill-rule="evenodd" d="M0,9 L3,9 L3,7 L0,7 L0,9 Z M17,9 L20.001,9 L20.001,7 L17,7 L17,9 Z M9,3 L11,3 L11,0 L9,0 L9,3 Z M13,9 L11,9 L11,11 L9,11 L9,9 L7,9 L7,7 L9,7 L9,5 L11,5 L11,7 L13,7 L13,9 Z M9,16 L11,16 L11,13 L9,13 L9,16 Z M13,0 L13,2 L18,2 L18,5 L20,5 L20,0 L13,0 Z M18,14 L13,14 L13,16 L20,16 L20,11 L18,11 L18,14 Z M0,5 L2,5 L2,2 L7,2 L7,0 L0,0 L0,5 Z M2,11 L0,11 L0,16 L7,16 L7,14 L2,14 L2,11 Z" transform="translate(2 4)"/>
		</g>
		<g id="img-3d-selected">
			<g xmlns="http://www.w3.org/2000/svg" fill="none" fill-rule="evenodd"><path fill="#FFFFFF" d="M7.53,21.48 C4.18378999,19.9039455 1.91529134,16.6816895 1.56,13 L0.06,13 C0.57,19.16 5.72,24 12.01,24 L12.67,23.97 L8.86,20.16 L7.53,21.48 Z M8.42,14.96 C8.23,14.96 8.05,14.93 7.9,14.88 C7.75063871,14.8303912 7.61406013,14.7484441 7.5,14.64 C7.39,14.54 7.3,14.42 7.24,14.27 C7.18,14.13 7.15,13.97 7.15,13.8 L5.85,13.8 C5.85,14.16 5.92,14.48 6.06,14.75 C6.2,15.02 6.39,15.25 6.62,15.44 C6.86,15.62 7.13,15.76 7.44,15.85 C7.74,15.95 8.06,16 8.4,16 C8.77,16 9.12,15.95 9.43,15.85 C9.75,15.75 10.03,15.6 10.26,15.41 C10.49,15.22 10.68,14.98 10.81,14.69 C10.94,14.4 11.01,14.08 11.01,13.72 C11.01,13.53 10.99,13.34 10.94,13.16 C10.8925571,12.9782761 10.8147995,12.8058572 10.71,12.65 C10.61,12.49 10.47,12.35 10.31,12.22 C10.14,12.09 9.94,11.99 9.7,11.91 C10.0614617,11.7489382 10.3700021,11.4889322 10.59,11.16 C10.69,11.01 10.76,10.86 10.81,10.7 C10.86,10.54 10.88,10.38 10.88,10.22 C10.88,9.86 10.82,9.54 10.7,9.26 C10.58,8.98 10.41,8.75 10.19,8.57 C9.99,8.38 9.72,8.24 9.42,8.14 C9.11,8.05 8.77,8 8.4,8 C8.04,8 7.71,8.05 7.4,8.16 C7.1,8.27 6.83,8.42 6.61,8.61 C6.4,8.8 6.23,9.02 6.1,9.28 C5.98,9.54 5.92,9.82 5.92,10.13 L7.22,10.13 C7.22,9.96 7.25,9.81 7.31,9.68 C7.37,9.55 7.45,9.43 7.56,9.34 C7.67,9.25 7.79,9.17 7.94,9.12 C8.09,9.07 8.24,9.04 8.42,9.04 C8.82,9.04 9.12,9.14 9.31,9.35 C9.5,9.55 9.6,9.84 9.6,10.21 C9.6,10.39 9.57,10.55 9.52,10.7 C9.47,10.85 9.38,10.97 9.27,11.07 C9.16,11.17 9.02,11.25 8.86,11.31 C8.7,11.37 8.5,11.4 8.28,11.4 L7.51,11.4 L7.51,12.43 L8.28,12.43 C8.5,12.43 8.7,12.45 8.88,12.5 C9.06,12.55 9.21,12.63 9.33,12.73 C9.45,12.84 9.55,12.97 9.62,13.13 C9.69,13.29 9.72,13.48 9.72,13.7 C9.72,14.11 9.6,14.42 9.37,14.63 C9.14,14.86 8.82,14.96 8.42,14.96 L8.42,14.96 Z M16.97,9.04 C16.65,8.71 16.27,8.45 15.83,8.27 C15.39,8.09 14.9,8 14.36,8 L12,8 L12,16 L14.3,16 C14.85,16 15.36,15.91 15.81,15.73 C16.26,15.55 16.65,15.3 16.97,14.97 C17.29,14.64 17.54,14.24 17.71,13.78 C17.88,13.31 17.97,12.79 17.97,12.21 L17.97,11.81 C17.97,11.23 17.88,10.71 17.71,10.24 C17.54,9.77 17.29,9.37 16.97,9.04 Z M16.58,12.2 C16.58,12.62 16.53,12.99 16.44,13.33 C16.34,13.66 16.2,13.95 16.01,14.18 C15.82,14.41 15.58,14.59 15.3,14.71 C15.01,14.83 14.68,14.89 14.31,14.89 L13.4,14.89 L13.4,9.12 L14.37,9.12 C15.09,9.12 15.64,9.35 16.01,9.81 C16.39,10.27 16.58,10.93 16.58,11.8 L16.58,12.2 L16.58,12.2 Z M12.01,0 L11.35,0.03 L15.16,3.84 L16.49,2.51 C19.76,4.06 22.1,7.23 22.45,10.99 L23.95,10.99 C23.45,4.84 18.3,0 12.01,0 Z"/><path fill-rule="nonzero" d="M0 0H24V24H0z"/></g>
		</g>
		<g id="img-3d">
			<g xmlns="http://www.w3.org/2000/svg" fill="none" fill-rule="evenodd"><path fill="#4D4D4D" d="M7.53,21.48 C4.18378999,19.9039455 1.91529134,16.6816895 1.56,13 L0.06,13 C0.57,19.16 5.72,24 12.01,24 L12.67,23.97 L8.86,20.16 L7.53,21.48 Z M8.42,14.96 C8.23,14.96 8.05,14.93 7.9,14.88 C7.75063871,14.8303912 7.61406013,14.7484441 7.5,14.64 C7.39,14.54 7.3,14.42 7.24,14.27 C7.18,14.13 7.15,13.97 7.15,13.8 L5.85,13.8 C5.85,14.16 5.92,14.48 6.06,14.75 C6.2,15.02 6.39,15.25 6.62,15.44 C6.86,15.62 7.13,15.76 7.44,15.85 C7.74,15.95 8.06,16 8.4,16 C8.77,16 9.12,15.95 9.43,15.85 C9.75,15.75 10.03,15.6 10.26,15.41 C10.49,15.22 10.68,14.98 10.81,14.69 C10.94,14.4 11.01,14.08 11.01,13.72 C11.01,13.53 10.99,13.34 10.94,13.16 C10.8925571,12.9782761 10.8147995,12.8058572 10.71,12.65 C10.61,12.49 10.47,12.35 10.31,12.22 C10.14,12.09 9.94,11.99 9.7,11.91 C10.0614617,11.7489382 10.3700021,11.4889322 10.59,11.16 C10.69,11.01 10.76,10.86 10.81,10.7 C10.86,10.54 10.88,10.38 10.88,10.22 C10.88,9.86 10.82,9.54 10.7,9.26 C10.58,8.98 10.41,8.75 10.19,8.57 C9.99,8.38 9.72,8.24 9.42,8.14 C9.11,8.05 8.77,8 8.4,8 C8.04,8 7.71,8.05 7.4,8.16 C7.1,8.27 6.83,8.42 6.61,8.61 C6.4,8.8 6.23,9.02 6.1,9.28 C5.98,9.54 5.92,9.82 5.92,10.13 L7.22,10.13 C7.22,9.96 7.25,9.81 7.31,9.68 C7.37,9.55 7.45,9.43 7.56,9.34 C7.67,9.25 7.79,9.17 7.94,9.12 C8.09,9.07 8.24,9.04 8.42,9.04 C8.82,9.04 9.12,9.14 9.31,9.35 C9.5,9.55 9.6,9.84 9.6,10.21 C9.6,10.39 9.57,10.55 9.52,10.7 C9.47,10.85 9.38,10.97 9.27,11.07 C9.16,11.17 9.02,11.25 8.86,11.31 C8.7,11.37 8.5,11.4 8.28,11.4 L7.51,11.4 L7.51,12.43 L8.28,12.43 C8.5,12.43 8.7,12.45 8.88,12.5 C9.06,12.55 9.21,12.63 9.33,12.73 C9.45,12.84 9.55,12.97 9.62,13.13 C9.69,13.29 9.72,13.48 9.72,13.7 C9.72,14.11 9.6,14.42 9.37,14.63 C9.14,14.86 8.82,14.96 8.42,14.96 L8.42,14.96 Z M16.97,9.04 C16.65,8.71 16.27,8.45 15.83,8.27 C15.39,8.09 14.9,8 14.36,8 L12,8 L12,16 L14.3,16 C14.85,16 15.36,15.91 15.81,15.73 C16.26,15.55 16.65,15.3 16.97,14.97 C17.29,14.64 17.54,14.24 17.71,13.78 C17.88,13.31 17.97,12.79 17.97,12.21 L17.97,11.81 C17.97,11.23 17.88,10.71 17.71,10.24 C17.54,9.77 17.29,9.37 16.97,9.04 Z M16.58,12.2 C16.58,12.62 16.53,12.99 16.44,13.33 C16.34,13.66 16.2,13.95 16.01,14.18 C15.82,14.41 15.58,14.59 15.3,14.71 C15.01,14.83 14.68,14.89 14.31,14.89 L13.4,14.89 L13.4,9.12 L14.37,9.12 C15.09,9.12 15.64,9.35 16.01,9.81 C16.39,10.27 16.58,10.93 16.58,11.8 L16.58,12.2 L16.58,12.2 Z M12.01,0 L11.35,0.03 L15.16,3.84 L16.49,2.51 C19.76,4.06 22.1,7.23 22.45,10.99 L23.95,10.99 C23.45,4.84 18.3,0 12.01,0 Z"/><path fill-rule="nonzero" d="M0 0H24V24H0z"/></g>
		</g>
		<g id="img-add">
			<g xmlns="http://www.w3.org/2000/svg" fill="none" fill-rule="evenodd"><path fill="#4D4D4D" d="M19 13L13 13 13 19 11 19 11 13 5 13 5 11 11 11 11 5 13 5 13 11 19 11z"/><path fill-rule="nonzero" d="M0 0H24V24H0z"/></g>
		</g>
		<g id="img-addimg-inverted">
			<g xmlns="http://www.w3.org/2000/svg" fill="none" fill-rule="evenodd"><path fill="#ef4b3e" d="M5,3 C3.8954305,3 3,3.8954305 3,5 L3,19 C3,20.1045695 3.8954305,21 5,21 L14.09,21 C14.03,20.67 14,20.34 14,20 C14,19.32 14.12,18.64 14.35,18 L5,18 L8.5,13.5 L11,16.5 L14.5,12 L16.73,14.97 C17.7,14.34 18.84,14 20,14 C20.34,14 20.67,14.03 21,14.09 L21,5 C21,3.8954305 20.1045695,3 19,3 L5,3 M19,16 L19,19 L16,19 L16,21 L19,21 L19,24 L21,24 L21,21 L24,21 L24,19 L21,19 L21,16 L19,16 Z"/><path fill-rule="nonzero" d="M0 0H24V24H0z"/></g>
		</g>
		<g id="img-addimg">
			<g xmlns="http://www.w3.org/2000/svg" fill="none" fill-rule="evenodd"><path fill="#4D4D4D" d="M5,3 C3.8954305,3 3,3.8954305 3,5 L3,19 C3,20.1045695 3.8954305,21 5,21 L14.09,21 C14.03,20.67 14,20.34 14,20 C14,19.32 14.12,18.64 14.35,18 L5,18 L8.5,13.5 L11,16.5 L14.5,12 L16.73,14.97 C17.7,14.34 18.84,14 20,14 C20.34,14 20.67,14.03 21,14.09 L21,5 C21,3.8954305 20.1045695,3 19,3 L5,3 M19,16 L19,19 L16,19 L16,21 L19,21 L19,24 L21,24 L21,21 L24,21 L24,19 L21,19 L21,16 L19,16 Z"/><path fill-rule="nonzero" d="M0 0H24V24H0z"/></g>
		</g>
		<g id="img-bring-front">
			<g xmlns="http://www.w3.org/2000/svg" fill="none" fill-rule="evenodd"><path fill="#4D4D4D" d="M3,13 L5,13 L5,11 L3,11 L3,13 Z M3,17 L5,17 L5,15 L3,15 L3,17 Z M5,21 L5,19 L3,19 C3,20.1045695 3.8954305,21 5,21 Z M3,9 L5,9 L5,7 L3,7 L3,9 Z M15,21 L17,21 L17,19 L15,19 L15,21 Z M19,3 L9,3 C7.8954305,3 7,3.8954305 7,5 L7,15 C7,16.1045695 7.8954305,17 9,17 L19,17 C20.1,17 21,16.1 21,15 L21,5 C21,3.9 20.1,3 19,3 Z M19,15 L9,15 L9,5 L19,5 L19,15 Z M11,21 L13,21 L13,19 L11,19 L11,21 Z M7,21 L9,21 L9,19 L7,19 L7,21 Z"/><path fill-rule="nonzero" d="M0 0H24V24H0z"/></g>
		</g>
		<g id="img-close-inverted">
			<path xmlns="http://www.w3.org/2000/svg" fill="#fff" d="M8.48,12.25C6.4,10.17,4.37,8.16,2.35,6.15c-.34-.34-.68-.69-1-1.05a2.34,2.34,0,0,1,.17-3.26,2.3,2.3,0,0,1,3.25-.09C7,3.93,9.23,6.14,11.45,8.34a5.83,5.83,0,0,1,.43.58c.36-.4.62-.71.9-1,2-2,4.12-4,6.12-6.08a2.51,2.51,0,0,1,3.41,0,2.37,2.37,0,0,1,0,3.43c-2.18,2.22-4.39,4.41-6.58,6.62-.11.1-.21.22-.34.35l.44.48L22.09,19A2.7,2.7,0,0,1,23,20.56a2.49,2.49,0,0,1-1.29,2.54A2.36,2.36,0,0,1,19,22.69c-2-2-4-4-6.06-6-.33-.33-.62-.68-1-1.12-1.63,1.66-3.17,3.25-4.73,4.82-.79.8-1.6,1.59-2.42,2.36a2.32,2.32,0,0,1-3.21-.1,2.3,2.3,0,0,1-.19-3.25c2.14-2.2,4.31-4.36,6.48-6.54Z"/>
		</g>
		<g id="img-close">
			<path xmlns="http://www.w3.org/2000/svg" fill="#4D4D4D" d="M8.48,12.25C6.4,10.17,4.37,8.16,2.35,6.15c-.34-.34-.68-.69-1-1.05a2.34,2.34,0,0,1,.17-3.26,2.3,2.3,0,0,1,3.25-.09C7,3.93,9.23,6.14,11.45,8.34a5.83,5.83,0,0,1,.43.58c.36-.4.62-.71.9-1,2-2,4.12-4,6.12-6.08a2.51,2.51,0,0,1,3.41,0,2.37,2.37,0,0,1,0,3.43c-2.18,2.22-4.39,4.41-6.58,6.62-.11.1-.21.22-.34.35l.44.48L22.09,19A2.7,2.7,0,0,1,23,20.56a2.49,2.49,0,0,1-1.29,2.54A2.36,2.36,0,0,1,19,22.69c-2-2-4-4-6.06-6-.33-.33-.62-.68-1-1.12-1.63,1.66-3.17,3.25-4.73,4.82-.79.8-1.6,1.59-2.42,2.36a2.32,2.32,0,0,1-3.21-.1,2.3,2.3,0,0,1-.19-3.25c2.14-2.2,4.31-4.36,6.48-6.54Z"/>
		</g>
		<g id="img-corridor-inverted">
			<path xmlns="http://www.w3.org/2000/svg" fill="#ef4b3e" d="M22.13,2.65c0,.64,0,1.18,0,1.71a.82.82,0,0,1-.32.49q-3.12,2.37-6.28,4.71a.93.93,0,0,0-.42.84c0,1.5,0,3,0,4.49a.88.88,0,0,0,.4.8c2.09,1.55,4.16,3.12,6.25,4.67a.79.79,0,0,1,.39.78c0,.46,0,.92,0,1.5l-2.8-2.09c-1.61-1.21-3.21-2.43-4.84-3.62a1.57,1.57,0,0,0-.82-.27c-1,0-2.06,0-3.1,0a1.56,1.56,0,0,0-.86.29q-3.63,2.68-7.24,5.41l-.37.26c0-.67,0-1.25,0-1.82,0-.14.19-.28.32-.38,2.09-1.58,4.18-3.16,6.28-4.71a.93.93,0,0,0,.42-.84c0-1.48,0-3,0-4.44a.94.94,0,0,0-.44-.88C6.61,8,4.56,6.45,2.48,4.91a.79.79,0,0,1-.39-.79c0-.45,0-.91,0-1.49L3.61,3.76q3,2.3,6.12,4.58a1.57,1.57,0,0,0,.81.27c1,0,2.07,0,3.11,0a1.64,1.64,0,0,0,.86-.29q3.63-2.69,7.24-5.41Z"/><path xmlns="http://www.w3.org/2000/svg" fill="#ef4b3e" d="M2.13,6.74l.09,0c.6.47,1.42.82,1.75,1.43a5.09,5.09,0,0,1,.09,2.15c0,2.12,0,4.24,0,6.36a1.06,1.06,0,0,1-.34.7c-.48.42-1,.77-1.58,1.2Z"/><path xmlns="http://www.w3.org/2000/svg" fill="#ef4b3e" d="M22.1,18.6c-.64-.47-1.22-.89-1.78-1.34a.67.67,0,0,1-.16-.47q0-4.14,0-8.28a.74.74,0,0,1,.2-.51c.55-.44,1.12-.85,1.74-1.31Z"/><path xmlns="http://www.w3.org/2000/svg" fill="#ef4b3e" d="M6.12,9.66c.65.48,1.23.9,1.78,1.34a.73.73,0,0,1,.19.45c0,.79,0,1.57,0,2.35,0,.14,0,.32-.1.39-.59.47-1.2.92-1.87,1.42Z"/><path xmlns="http://www.w3.org/2000/svg" fill="#ef4b3e" d="M18.11,9.65v6L16.2,14.17c-.06-.05-.07-.19-.07-.29,0-.84,0-1.68,0-2.51a.44.44,0,0,1,.13-.32C16.84,10.59,17.44,10.15,18.11,9.65Z"/>
		</g>
		<g id="img-corridor">
			<path xmlns="http://www.w3.org/2000/svg" fill="#fff" d="M22.13,2.65c0,.64,0,1.18,0,1.71a.82.82,0,0,1-.32.49q-3.12,2.37-6.28,4.71a.93.93,0,0,0-.42.84c0,1.5,0,3,0,4.49a.88.88,0,0,0,.4.8c2.09,1.55,4.16,3.12,6.25,4.67a.79.79,0,0,1,.39.78c0,.46,0,.92,0,1.5l-2.8-2.09c-1.61-1.21-3.21-2.43-4.84-3.62a1.57,1.57,0,0,0-.82-.27c-1,0-2.06,0-3.1,0a1.56,1.56,0,0,0-.86.29q-3.63,2.68-7.24,5.41l-.37.26c0-.67,0-1.25,0-1.82,0-.14.19-.28.32-.38,2.09-1.58,4.18-3.16,6.28-4.71a.93.93,0,0,0,.42-.84c0-1.48,0-3,0-4.44a.94.94,0,0,0-.44-.88C6.61,8,4.56,6.45,2.48,4.91a.79.79,0,0,1-.39-.79c0-.45,0-.91,0-1.49L3.61,3.76q3,2.3,6.12,4.58a1.57,1.57,0,0,0,.81.27c1,0,2.07,0,3.11,0a1.64,1.64,0,0,0,.86-.29q3.63-2.69,7.24-5.41Z"/><path xmlns="http://www.w3.org/2000/svg" fill="#fff" d="M2.13,6.74l.09,0c.6.47,1.42.82,1.75,1.43a5.09,5.09,0,0,1,.09,2.15c0,2.12,0,4.24,0,6.36a1.06,1.06,0,0,1-.34.7c-.48.42-1,.77-1.58,1.2Z"/><path xmlns="http://www.w3.org/2000/svg" fill="#fff" d="M22.1,18.6c-.64-.47-1.22-.89-1.78-1.34a.67.67,0,0,1-.16-.47q0-4.14,0-8.28a.74.74,0,0,1,.2-.51c.55-.44,1.12-.85,1.74-1.31Z"/><path xmlns="http://www.w3.org/2000/svg" fill="#fff" d="M6.12,9.66c.65.48,1.23.9,1.78,1.34a.73.73,0,0,1,.19.45c0,.79,0,1.57,0,2.35,0,.14,0,.32-.1.39-.59.47-1.2.92-1.87,1.42Z"/><path xmlns="http://www.w3.org/2000/svg" fill="#fff" d="M18.11,9.65v6L16.2,14.17c-.06-.05-.07-.19-.07-.29,0-.84,0-1.68,0-2.51a.44.44,0,0,1,.13-.32C16.84,10.59,17.44,10.15,18.11,9.65Z"/>
		</g>
		<g id="img-edit">
			<g xmlns="http://www.w3.org/2000/svg" fill="none" fill-rule="evenodd"><path fill="#4D4D4D" d="M3,17.46 L3,20.5 C3,20.78 3.22,21 3.5,21 L6.54,21 C6.67,21 6.8,20.95 6.89,20.85 L17.81,9.94 L14.06,6.19 L3.15,17.1 C3.05,17.2 3,17.32 3,17.46 Z M20.71,7.04 C20.8972281,6.85315541 21.002444,6.59950947 21.002444,6.335 C21.002444,6.07049053 20.8972281,5.81684459 20.71,5.63 L18.37,3.29 C18.1831554,3.10277191 17.9295095,2.99755597 17.665,2.99755597 C17.4004905,2.99755597 17.1468446,3.10277191 16.96,3.29 L15.13,5.12 L18.88,8.87 L20.71,7.04 Z"/><path fill-rule="nonzero" d="M0 0H24V24H0z"/></g>
		</g>
		<g id="img-frame-lock">
			<g xmlns="http://www.w3.org/2000/svg" fill="none" fill-rule="evenodd"><path fill="#FFFFFF" d="M20,8 L17,8 L17,6.21 C17,3.6 15.09,1.27 12.49,1.02 C11.0853278,0.884174716 9.6885441,1.34731012 8.64328991,2.29546418 C7.59803573,3.24361825 7.00133867,4.5887769 7,6 L7,8 L4,8 L4,22 L20,22 L20,8 Z M12,17 C10.9,17 10,16.1 10,15 C10,13.9 10.9,13 12,13 C13.1,13 14,13.9 14,15 C14,16.1 13.1,17 12,17 Z M9,8 L9,6 C9,4.34 10.34,3 12,3 C13.66,3 15,4.34 15,6 L15,8 L9,8 Z"/><path fill-rule="nonzero" d="M0 0H24V24H0z"/></g>
		</g>
		<g id="img-frame-unlock">
			<g xmlns="http://www.w3.org/2000/svg" fill="none" fill-rule="evenodd"><path fill="#FFFFFF" d="M16,7 L13,7 L3,7 L0,7 L0,21 L16,21 L16,7 Z M8,12 C9.1,12 10,12.9 10,14 C10,15.1 9.1,16 8,16 C6.9,16 6,15.1 6,14 C6,12.9 6.9,12 8,12 Z M4.64328991,1.29546418 C5.6885441,0.347310115 7.08532782,-0.115825284 8.49,0.02 C11.09,0.27 13,2.6 13,5.21 L13,5.21 L13,7 L11,7 L11,5 C11,2.9 8.85,1.31 6.64,2.3 C5.6,2.76 5,3.87 5,5 L5,5 L3,5 C3.00133867,3.5887769 3.59803573,2.24361825 4.64328991,1.29546418 Z" transform="translate(4 1)"/><path fill-rule="nonzero" d="M0 0H24V24H0z"/></g>
		</g>
		<g id="img-fullscreen">
			<g xmlns="http://www.w3.org/2000/svg" fill="none" fill-rule="evenodd"><path fill="#4D4D4D" d="M7,14 L5,14 L5,19 L10,19 L10,17 L7,17 L7,14 Z M5,10 L7,10 L7,7 L10,7 L10,5 L5,5 L5,10 Z M17,17 L14,17 L14,19 L19,19 L19,14 L17,14 L17,17 Z M14,5 L14,7 L17,7 L17,10 L19,10 L19,5 L14,5 Z"/><path fill-rule="nonzero" d="M0 0H24V24H0z"/><path fill-rule="nonzero" d="M0 0H24V24H0z"/></g>
		</g>
		<g id="img-games-inverted">
			<path xmlns="http://www.w3.org/2000/svg" fill="#ef4b3e" d="M23.16,16.77v1.68a11.5,11.5,0,0,1-.4,1.3,1.33,1.33,0,0,1-1.48.88,4.38,4.38,0,0,1-2.55-1.36c-.76-.7-1.44-1.49-2.23-2.15A3.68,3.68,0,0,0,15,16.33a18.53,18.53,0,0,0-5.1-.13,3.7,3.7,0,0,0-2.52,1.16c-.33.35-.66.69-1,1a8.47,8.47,0,0,1-2.66,2.06,1.66,1.66,0,0,1-2.51-1.23L1,18.55V16.77c.12-.76.24-1.51.38-2.27a28.05,28.05,0,0,1,1.9-6.8A9.23,9.23,0,0,1,4.27,6,2.69,2.69,0,0,1,7.94,5a10.07,10.07,0,0,0,4.45.89,10.41,10.41,0,0,0,4-.94,2.66,2.66,0,0,1,3.35.84,6.44,6.44,0,0,1,.67,1,20.78,20.78,0,0,1,2.07,6.12C22.73,14.19,22.93,15.49,23.16,16.77Zm-15.6-3a3.11,3.11,0,1,0-3.11-3.08A3.1,3.1,0,0,0,7.56,13.72Zm9-4.35a.93.93,0,1,0-1-.91A1,1,0,0,0,16.52,9.37Zm-2.15.21a1,1,0,0,0,0,1.92,1,1,0,0,0,1-1A1,1,0,0,0,14.37,9.58Zm4.22,1.93a1,1,0,0,0,.95-.94.94.94,0,0,0-.89-1,1,1,0,0,0-1,.95A1,1,0,0,0,18.59,11.51Zm-2.08.21a1,1,0,0,0-1,.91,1,1,0,0,0,.93,1,.94.94,0,1,0,0-1.87Z"/><path xmlns="http://www.w3.org/2000/svg" fill="#ef4b3e" d="M5.84,10.59A1.75,1.75,0,0,1,7.6,8.87a1.73,1.73,0,0,1,1.71,1.77,1.74,1.74,0,1,1-3.47-.05Z"/>
		</g>
		<g id="img-games">
			<path xmlns="http://www.w3.org/2000/svg" fill="#fff" d="M23.16,16.77v1.68a11.5,11.5,0,0,1-.4,1.3,1.33,1.33,0,0,1-1.48.88,4.38,4.38,0,0,1-2.55-1.36c-.76-.7-1.44-1.49-2.23-2.15A3.68,3.68,0,0,0,15,16.33a18.53,18.53,0,0,0-5.1-.13,3.7,3.7,0,0,0-2.52,1.16c-.33.35-.66.69-1,1a8.47,8.47,0,0,1-2.66,2.06,1.66,1.66,0,0,1-2.51-1.23L1,18.55V16.77c.12-.76.24-1.51.38-2.27a28.05,28.05,0,0,1,1.9-6.8A9.23,9.23,0,0,1,4.27,6,2.69,2.69,0,0,1,7.94,5a10.07,10.07,0,0,0,4.45.89,10.41,10.41,0,0,0,4-.94,2.66,2.66,0,0,1,3.35.84,6.44,6.44,0,0,1,.67,1,20.78,20.78,0,0,1,2.07,6.12C22.73,14.19,22.93,15.49,23.16,16.77Zm-15.6-3a3.11,3.11,0,1,0-3.11-3.08A3.1,3.1,0,0,0,7.56,13.72Zm9-4.35a.93.93,0,1,0-1-.91A1,1,0,0,0,16.52,9.37Zm-2.15.21a1,1,0,0,0,0,1.92,1,1,0,0,0,1-1A1,1,0,0,0,14.37,9.58Zm4.22,1.93a1,1,0,0,0,.95-.94.94.94,0,0,0-.89-1,1,1,0,0,0-1,.95A1,1,0,0,0,18.59,11.51Zm-2.08.21a1,1,0,0,0-1,.91,1,1,0,0,0,.93,1,.94.94,0,1,0,0-1.87Z"/><path xmlns="http://www.w3.org/2000/svg" fill="#fff" d="M5.84,10.59A1.75,1.75,0,0,1,7.6,8.87a1.73,1.73,0,0,1,1.71,1.77,1.74,1.74,0,1,1-3.47-.05Z"/>
		</g>
		<g id="img-icon-door-joina">
			<path xmlns="http://www.w3.org/2000/svg" fill="#4d4d4d" d="M11,1.72V4H3v7.25H7.36L5.64,9.53,6.7,8.47,10.23,12,6.7,15.53,5.64,14.47l1.72-1.72H3V20h8v2.28l10-2.5V4.22Zm8,16.5-6,1.5V4.28l6,1.5Z"/><circle xmlns="http://www.w3.org/2000/svg" cx="15" cy="12" r="1" fill="#4d4d4d"/>
		</g>
		<g id="img-icon-door-leavea">
			<path xmlns="http://www.w3.org/2000/svg" fill="#D40000" d="M8,11a1,1,0,1,0,1,1A1,1,0,0,0,8,11Z"/><path xmlns="http://www.w3.org/2000/svg" fill="#D40000" d="M19.53,8.47,18.47,9.53l1.72,1.72H17V4H12V1.72L2,4.22V19.78l10,2.5V20h5V12.75h3.19l-1.72,1.72,1.06,1.06L23.06,12ZM4,5.78l6-1.5V19.72l-6-1.5Z"/>
		</g>
		<g id="img-icon-radar-inverted">
			<path xmlns="http://www.w3.org/2000/svg" fill="#ef4b3e" fill-rule="evenodd" d="M18.5373,18.5396 L19.5983,19.5996 C18.6183,20.5896 17.4683,21.3606 16.1883,21.9006 C14.8583,22.4696 13.4483,22.7496 11.9973,22.7496 C10.5483,22.7496 9.1383,22.4696 7.8183,21.9006 C7.2283,21.6506 6.6783,21.3606 6.1483,21.0196 C6.5883,20.7406 6.9483,20.3496 7.1883,19.8896 C7.5773,20.1396 7.9783,20.3396 8.3983,20.5196 C10.6783,21.4906 13.3273,21.4906 15.5983,20.5196 C16.6983,20.0596 17.6883,19.3896 18.5373,18.5396 Z M4.525,17 C5.353,17 6.025,17.672 6.025,18.5 C6.025,18.8052815 5.93364978,19.0893567 5.77681122,19.3263637 C5.77350472,19.3297594 5.77096781,19.3336518 5.7684125,19.3375312 L5.71921128,19.4074496 C5.71710302,19.410219 5.71498536,19.4129809 5.71285834,19.4157352 C5.69157076,19.4440777 5.66946343,19.4711046 5.64641518,19.4972958 C5.63920811,19.5039878 5.63293136,19.5109052 5.62659142,19.5177634 C5.51381394,19.6426823 5.37800428,19.7474575 5.2264959,19.8263053 C5.21544382,19.8318778 5.20434725,19.8375873 5.19317148,19.8431613 C5.1807022,19.849187 5.16844913,19.8549521 5.15610371,19.8605495 C4.96462982,19.9501106 4.75060565,20 4.525,20 C3.697,20 3.025,19.328 3.025,18.5 C3.025,17.9306733 3.34271065,17.4351008 3.81038931,17.1810252 C3.81669358,17.1789133 3.82279082,17.1756384 3.82891415,17.1724061 C4.03675846,17.0619034 4.27369402,17 4.525,17 Z M6.879,8.4204 C7.129,8.8804 7.498,9.2704 7.938,9.5494 C7.488,10.2804 7.248,11.1204 7.248,12.0004 C7.248,13.2694 7.748,14.4604 8.638,15.3604 C9.538,16.2594 10.728,16.7504 11.998,16.7504 C13.268,16.7504 14.458,16.2594 15.358,15.3604 L16.419,16.4204 C15.238,17.5994 13.669,18.2504 11.998,18.2504 C10.328,18.2504 8.758,17.5994 7.578,16.4204 C6.398,15.2404 5.748,13.6704 5.748,12.0004 C5.748,10.7004 6.138,9.4604 6.879,8.4204 Z M16.1883,2.1003 C17.1573,2.5103 18.0583,3.0503 18.8583,3.7193 L20.2183,2.3603 L21.6383,3.7803 L13.9283,11.4903 C13.9783,11.6503 13.9973,11.8203 13.9973,12.0003 C13.9973,13.0993 13.1083,14.0003 11.9973,14.0003 C10.8983,14.0003 9.9973,13.0993 9.9973,12.0003 C9.9973,10.9003 10.8983,10.0003 11.9973,10.0003 C12.1783,10.0003 12.3483,10.0203 12.5083,10.0703 L14.5683,8.0103 C13.9483,7.6003 13.2473,7.3603 12.5083,7.2803 C12.5283,7.1903 12.5283,7.1003 12.5283,7.0003 C12.5283,6.5603 12.4283,6.1403 12.2583,5.7603 C13.4883,5.8103 14.6573,6.2103 15.6483,6.9303 L17.7873,4.7903 C17.1173,4.2503 16.3883,3.8103 15.5983,3.4803 C13.3183,2.5103 10.6783,2.5103 8.3983,3.4803 C7.2983,3.9403 6.3083,4.6103 5.4573,5.4603 C4.6083,6.3103 3.9383,7.3003 3.4783,8.4003 C2.9973,9.5403 2.7473,10.7503 2.7473,12.0003 C2.7473,13.2503 2.9973,14.4603 3.4783,15.5993 C3.4883,15.6303 3.4973,15.6503 3.5183,15.6793 C3.0183,15.8493 2.5883,16.1503 2.2583,16.5403 C2.2073,16.4203 2.1483,16.3003 2.0983,16.1793 C1.5373,14.8603 1.2473,13.4503 1.2473,12.0003 C1.2473,10.5503 1.5373,9.1403 2.0983,7.8203 C2.6383,6.5403 3.4073,5.3903 4.3983,4.4003 C5.3883,3.4103 6.5373,2.6403 7.8183,2.1003 C10.4683,0.9693 13.5373,0.9693 16.1883,2.1003 Z M19.525,11.75 C20.353,11.75 21.025,12.421 21.025,13.25 C21.025,14.078 20.353,14.75 19.525,14.75 C18.697,14.75 18.025,14.078 18.025,13.25 C18.025,12.421 18.697,11.75 19.525,11.75 Z M9.525,5.5 C9.92885294,5.5 10.2955942,5.65986563 10.5653512,5.91972424 L10.568,5.92 L10.6246728,5.98016498 C10.6287109,5.98451686 10.6327235,5.98889271 10.6367104,5.99329232 L10.568,5.92 C10.6518889,6.00089286 10.7268016,6.09255716 10.7905866,6.19257254 C10.7944974,6.20094705 10.79952,6.20896201 10.8044686,6.21702728 C10.8241728,6.24695648 10.841748,6.27807219 10.8582494,6.30985617 C10.8626855,6.32086308 10.8678717,6.3311485 10.872942,6.3415008 C10.9719875,6.54075333 11.028,6.76570896 11.028,7 C11.028,7.09266667 11.0220367,7.18533333 11.0009002,7.278 C10.8693296,7.97363568 10.2583517,8.5 9.525,8.5 C8.697,8.5 8.025,7.829 8.025,7 C8.025,6.172 8.697,5.5 9.525,5.5 Z"/>
		</g>
		<g id="img-icon-radar">
			<path xmlns="http://www.w3.org/2000/svg" fill="#4D4D4D" fill-rule="evenodd" d="M18.5373,18.5396 L19.5983,19.5996 C18.6183,20.5896 17.4683,21.3606 16.1883,21.9006 C14.8583,22.4696 13.4483,22.7496 11.9973,22.7496 C10.5483,22.7496 9.1383,22.4696 7.8183,21.9006 C7.2283,21.6506 6.6783,21.3606 6.1483,21.0196 C6.5883,20.7406 6.9483,20.3496 7.1883,19.8896 C7.5773,20.1396 7.9783,20.3396 8.3983,20.5196 C10.6783,21.4906 13.3273,21.4906 15.5983,20.5196 C16.6983,20.0596 17.6883,19.3896 18.5373,18.5396 Z M4.525,17 C5.353,17 6.025,17.672 6.025,18.5 C6.025,18.8052815 5.93364978,19.0893567 5.77681122,19.3263637 C5.77350472,19.3297594 5.77096781,19.3336518 5.7684125,19.3375312 L5.71921128,19.4074496 C5.71710302,19.410219 5.71498536,19.4129809 5.71285834,19.4157352 C5.69157076,19.4440777 5.66946343,19.4711046 5.64641518,19.4972958 C5.63920811,19.5039878 5.63293136,19.5109052 5.62659142,19.5177634 C5.51381394,19.6426823 5.37800428,19.7474575 5.2264959,19.8263053 C5.21544382,19.8318778 5.20434725,19.8375873 5.19317148,19.8431613 C5.1807022,19.849187 5.16844913,19.8549521 5.15610371,19.8605495 C4.96462982,19.9501106 4.75060565,20 4.525,20 C3.697,20 3.025,19.328 3.025,18.5 C3.025,17.9306733 3.34271065,17.4351008 3.81038931,17.1810252 C3.81669358,17.1789133 3.82279082,17.1756384 3.82891415,17.1724061 C4.03675846,17.0619034 4.27369402,17 4.525,17 Z M6.879,8.4204 C7.129,8.8804 7.498,9.2704 7.938,9.5494 C7.488,10.2804 7.248,11.1204 7.248,12.0004 C7.248,13.2694 7.748,14.4604 8.638,15.3604 C9.538,16.2594 10.728,16.7504 11.998,16.7504 C13.268,16.7504 14.458,16.2594 15.358,15.3604 L16.419,16.4204 C15.238,17.5994 13.669,18.2504 11.998,18.2504 C10.328,18.2504 8.758,17.5994 7.578,16.4204 C6.398,15.2404 5.748,13.6704 5.748,12.0004 C5.748,10.7004 6.138,9.4604 6.879,8.4204 Z M16.1883,2.1003 C17.1573,2.5103 18.0583,3.0503 18.8583,3.7193 L20.2183,2.3603 L21.6383,3.7803 L13.9283,11.4903 C13.9783,11.6503 13.9973,11.8203 13.9973,12.0003 C13.9973,13.0993 13.1083,14.0003 11.9973,14.0003 C10.8983,14.0003 9.9973,13.0993 9.9973,12.0003 C9.9973,10.9003 10.8983,10.0003 11.9973,10.0003 C12.1783,10.0003 12.3483,10.0203 12.5083,10.0703 L14.5683,8.0103 C13.9483,7.6003 13.2473,7.3603 12.5083,7.2803 C12.5283,7.1903 12.5283,7.1003 12.5283,7.0003 C12.5283,6.5603 12.4283,6.1403 12.2583,5.7603 C13.4883,5.8103 14.6573,6.2103 15.6483,6.9303 L17.7873,4.7903 C17.1173,4.2503 16.3883,3.8103 15.5983,3.4803 C13.3183,2.5103 10.6783,2.5103 8.3983,3.4803 C7.2983,3.9403 6.3083,4.6103 5.4573,5.4603 C4.6083,6.3103 3.9383,7.3003 3.4783,8.4003 C2.9973,9.5403 2.7473,10.7503 2.7473,12.0003 C2.7473,13.2503 2.9973,14.4603 3.4783,15.5993 C3.4883,15.6303 3.4973,15.6503 3.5183,15.6793 C3.0183,15.8493 2.5883,16.1503 2.2583,16.5403 C2.2073,16.4203 2.1483,16.3003 2.0983,16.1793 C1.5373,14.8603 1.2473,13.4503 1.2473,12.0003 C1.2473,10.5503 1.5373,9.1403 2.0983,7.8203 C2.6383,6.5403 3.4073,5.3903 4.3983,4.4003 C5.3883,3.4103 6.5373,2.6403 7.8183,2.1003 C10.4683,0.9693 13.5373,0.9693 16.1883,2.1003 Z M19.525,11.75 C20.353,11.75 21.025,12.421 21.025,13.25 C21.025,14.078 20.353,14.75 19.525,14.75 C18.697,14.75 18.025,14.078 18.025,13.25 C18.025,12.421 18.697,11.75 19.525,11.75 Z M9.525,5.5 C9.92885294,5.5 10.2955942,5.65986563 10.5653512,5.91972424 L10.568,5.92 L10.6246728,5.98016498 C10.6287109,5.98451686 10.6327235,5.98889271 10.6367104,5.99329232 L10.568,5.92 C10.6518889,6.00089286 10.7268016,6.09255716 10.7905866,6.19257254 C10.7944974,6.20094705 10.79952,6.20896201 10.8044686,6.21702728 C10.8241728,6.24695648 10.841748,6.27807219 10.8582494,6.30985617 C10.8626855,6.32086308 10.8678717,6.3311485 10.872942,6.3415008 C10.9719875,6.54075333 11.028,6.76570896 11.028,7 C11.028,7.09266667 11.0220367,7.18533333 11.0009002,7.278 C10.8693296,7.97363568 10.2583517,8.5 9.525,8.5 C8.697,8.5 8.025,7.829 8.025,7 C8.025,6.172 8.697,5.5 9.525,5.5 Z"/>
		</g>
		<g id="img-join">
			<g xmlns="http://www.w3.org/2000/svg" fill="none" fill-rule="evenodd"><g fill="#4D4D4D"><path d="M9,2 L18,2 C19.1,2 20,2.9 20,4 L20,20 C20,21.1 19.1,22 18,22 L9,22 C7.9,22 7,21.1 7,20 L7,18 L9,18 L9,20 L18,20 L18,4 L9,4 L9,6 L7,6 L7,4 C7,2.9 7.9,2 9,2 Z"/><path d="M10.09 15.59L11.5 17 16.5 12 11.5 7 10.09 8.41 12.67 11 3 11 3 13 12.67 13z"/></g><path fill-rule="nonzero" d="M0 0H24V24H0z"/></g>
		</g>
		<g id="img-leave">
			<g xmlns="http://www.w3.org/2000/svg" fill="none" fill-rule="evenodd"><g fill="#F2F2F2"><path d="M6,2 L15,2 C16.1045695,2 17,2.8954305 17,4 L17,6 L15,6 L15,4 L6,4 L6,20 L15,20 L15,18 L17,18 L17,20 C17,21.1045695 16.1045695,22 15,22 L6,22 C4.8954305,22 4,21.1045695 4,20 L4,4 C4,2.8954305 4.8954305,2 6,2 Z"/><path d="M16.09 15.59L17.5 17 22.5 12 17.5 7 16.09 8.41 18.67 11 9 11 9 13 18.67 13z"/></g><path fill-rule="nonzero" d="M0 0H24V24H0z"/></g>
		</g>
		<g id="img-link-inverted">
			<path xmlns="http://www.w3.org/2000/svg" fill="#ef4b3e" d="M22.74,12.24A10.63,10.63,0,1,1,12.14,1.59,10.63,10.63,0,0,1,22.74,12.24ZM4.26,6.54a9.39,9.39,0,0,0-1.83,5.18H6.6l.52-4.09ZM2.43,12.73a9.36,9.36,0,0,0,1.83,5.18l2.86-1.09-.51-4.09ZM20,6.53,17.1,7.64l.52,4.07h4.17A9.44,9.44,0,0,0,20,6.53Zm0,11.38a9.2,9.2,0,0,0,1.82-5.17H17.61l-.51,4.08ZM11.6,11.73V8.24L8,7.86l-.48,3.87Zm1,0h4.07l-.49-3.87-3.58.4Zm-1,4.49V12.74h-4l.5,3.85Zm1-3.49v3.49l3.56.38.48-3.87Zm-1-5.42V2.65C10.5,2.67,8.89,4.79,8.42,7Zm1-4.75V7.3L15.88,7C15.19,5.13,14.57,3.4,12.62,2.55Zm-1,19.26V17.15l-3.21.34C8.92,19.67,10.28,21.5,11.61,21.81Zm1,0c1.18,0,2.75-2.28,3.2-4.31l-3.2-.34ZM7.3,6.69,9.22,3A9.51,9.51,0,0,0,4.88,5.78Zm9.63,0,2.39-.9A9,9,0,0,0,15,3Zm2.4,12-2.41-.89L15,21.45A8.89,8.89,0,0,0,19.33,18.65Zm-14.46,0a9.65,9.65,0,0,0,4.34,2.81L7.3,17.76Z"/>
		</g>
		<g id="img-link">
			<path xmlns="http://www.w3.org/2000/svg" fill="#4D4D4D" d="M22.74,12.24A10.63,10.63,0,1,1,12.14,1.59,10.63,10.63,0,0,1,22.74,12.24ZM4.26,6.54a9.39,9.39,0,0,0-1.83,5.18H6.6l.52-4.09ZM2.43,12.73a9.36,9.36,0,0,0,1.83,5.18l2.86-1.09-.51-4.09ZM20,6.53,17.1,7.64l.52,4.07h4.17A9.44,9.44,0,0,0,20,6.53Zm0,11.38a9.2,9.2,0,0,0,1.82-5.17H17.61l-.51,4.08ZM11.6,11.73V8.24L8,7.86l-.48,3.87Zm1,0h4.07l-.49-3.87-3.58.4Zm-1,4.49V12.74h-4l.5,3.85Zm1-3.49v3.49l3.56.38.48-3.87Zm-1-5.42V2.65C10.5,2.67,8.89,4.79,8.42,7Zm1-4.75V7.3L15.88,7C15.19,5.13,14.57,3.4,12.62,2.55Zm-1,19.26V17.15l-3.21.34C8.92,19.67,10.28,21.5,11.61,21.81Zm1,0c1.18,0,2.75-2.28,3.2-4.31l-3.2-.34ZM7.3,6.69,9.22,3A9.51,9.51,0,0,0,4.88,5.78Zm9.63,0,2.39-.9A9,9,0,0,0,15,3Zm2.4,12-2.41-.89L15,21.45A8.89,8.89,0,0,0,19.33,18.65Zm-14.46,0a9.65,9.65,0,0,0,4.34,2.81L7.3,17.76Z"/>
		</g>
		<g id="img-lock">
			<g xmlns="http://www.w3.org/2000/svg" fill="none" fill-rule="evenodd"><path fill="#4D4D4D" d="M20,8 L17,8 L17,6.21 C17,3.6 15.09,1.27 12.49,1.02 C11.0853278,0.884174716 9.6885441,1.34731012 8.64328991,2.29546418 C7.59803573,3.24361825 7.00133867,4.5887769 7,6 L7,8 L4,8 L4,22 L20,22 L20,8 Z M12,17 C10.9,17 10,16.1 10,15 C10,13.9 10.9,13 12,13 C13.1,13 14,13.9 14,15 C14,16.1 13.1,17 12,17 Z M9,8 L9,6 C9,4.34 10.34,3 12,3 C13.66,3 15,4.34 15,6 L15,8 L9,8 Z"/><path fill-rule="nonzero" d="M0 0H24V24H0z"/></g>
		</g>
		<g id="img-make-opaque">
			<g xmlns="http://www.w3.org/2000/svg" fill="none" fill-rule="evenodd"><g fill="#4D4D4D"><path d="M13,0 L2,0 C0.9,0 0,0.9 0,2 L0,13 C0,14.104 0.896,15 2,15 L2,2 L15,2 C15,0.896 14.104,0 13,0" transform="translate(2 2)"/><path d="M6,18 L18,18 L18,6 L6,6 L6,18 Z M17.866,4 L6.134,4 C4.96,4 4,4.8 4,5.777 L4,18.223 C4,19.2 4.96,20 6.134,20 L17.866,20 C19.04,20 20,19.2 20,18.223 L20,5.777 C20,4.8 19.04,4 17.866,4 L17.866,4 Z" transform="translate(2 2)"/><path d="M8 16L16 16 16 8 8 8z" transform="translate(2 2)"/></g><path fill-rule="nonzero" d="M0 0H24V24H0z"/></g>
		</g>
		<g id="img-make-trans">
			<g xmlns="http://www.w3.org/2000/svg" fill="none" fill-rule="evenodd"><path fill="#4D4D4D" d="M15,2 C16.104,2 17,2.896 17,4 L17,4 L4,4 L4,17 C2.896,17 2,16.104 2,15 L2,15 L2,4 C2,2.9 2.9,2 4,2 L4,2 Z M17.0039,10 L17.0039,15 C17.0039,16.1 16.1049,17 15.0039,17 L9.9439,17 L9.9439,15 L15.0039,15 L15.0039,10 L17.0039,10 Z"/><path fill="#4D4D4D" d="M8.004,20 L20.004,20 L20.004,8 L8.004,8 L8.004,20 Z M19.864,6 L8.135,6 C6.965,6 6.004,6.8 6.004,7.78 L6.004,20.22 C6.004,21.2 6.965,22 8.135,22 L19.864,22 C21.044,22 22.004,21.2 22.004,20.22 L22.004,7.78 C22.004,6.8 21.044,6 19.864,6 L19.864,6 Z"/><path fill-rule="nonzero" d="M0 0H24V24H0z"/></g>
		</g>
		<g id="img-more-active">
			<g xmlns="http://www.w3.org/2000/svg" fill="none" fill-rule="evenodd"><path fill="#06dae2" d="M12,8 C13.1,8 14,7.1 14,6 C14,4.9 13.1,4 12,4 C10.9,4 10,4.9 10,6 C10,7.1 10.9,8 12,8 Z M12,10 C10.9,10 10,10.9 10,12 C10,13.1 10.9,14 12,14 C13.1,14 14,13.1 14,12 C14,10.9 13.1,10 12,10 Z M12,16 C10.9,16 10,16.9 10,18 C10,19.1 10.9,20 12,20 C13.1,20 14,19.1 14,18 C14,16.9 13.1,16 12,16 Z"/><path fill-rule="nonzero" d="M0 0H24V24H0z"/></g>
		</g>
		<g id="img-more-options-inverted">
			<g xmlns="http://www.w3.org/2000/svg" fill="none" fill-rule="evenodd"><path fill="#ef4b3e" d="M12,8 C13.1,8 14,7.1 14,6 C14,4.9 13.1,4 12,4 C10.9,4 10,4.9 10,6 C10,7.1 10.9,8 12,8 Z M12,10 C10.9,10 10,10.9 10,12 C10,13.1 10.9,14 12,14 C13.1,14 14,13.1 14,12 C14,10.9 13.1,10 12,10 Z M12,16 C10.9,16 10,16.9 10,18 C10,19.1 10.9,20 12,20 C13.1,20 14,19.1 14,18 C14,16.9 13.1,16 12,16 Z"/><path fill-rule="nonzero" d="M0 0H24V24H0z"/></g>
		</g>
		<g id="img-more-options">
			<g xmlns="http://www.w3.org/2000/svg" fill="none" fill-rule="evenodd"><path fill="#ffffff" d="M12,8 C13.1,8 14,7.1 14,6 C14,4.9 13.1,4 12,4 C10.9,4 10,4.9 10,6 C10,7.1 10.9,8 12,8 Z M12,10 C10.9,10 10,10.9 10,12 C10,13.1 10.9,14 12,14 C13.1,14 14,13.1 14,12 C14,10.9 13.1,10 12,10 Z M12,16 C10.9,16 10,16.9 10,18 C10,19.1 10.9,20 12,20 C13.1,20 14,19.1 14,18 C14,16.9 13.1,16 12,16 Z"/><path fill-rule="nonzero" d="M0 0H24V24H0z"/></g>
		</g>
		<g id="img-more">
			<g xmlns="http://www.w3.org/2000/svg" fill="none" fill-rule="evenodd"><path fill="#FFFFFF" d="M12,8 C13.1,8 14,7.1 14,6 C14,4.9 13.1,4 12,4 C10.9,4 10,4.9 10,6 C10,7.1 10.9,8 12,8 Z M12,10 C10.9,10 10,10.9 10,12 C10,13.1 10.9,14 12,14 C13.1,14 14,13.1 14,12 C14,10.9 13.1,10 12,10 Z M12,16 C10.9,16 10,16.9 10,18 C10,19.1 10.9,20 12,20 C13.1,20 14,19.1 14,18 C14,16.9 13.1,16 12,16 Z"/><path fill-rule="nonzero" d="M0 0H24V24H0z"/></g>
		</g>
		<g id="img-mute">
			<g xmlns="http://www.w3.org/2000/svg" fill="none" fill-rule="evenodd"><path fill="#4D4D4D" d="M16.5,12 C16.4995712,10.2909166 15.531008,8.7295926 14,7.97 L14,10.18 L16.45,12.63 C16.48,12.43 16.5,12.22 16.5,12 L16.5,12 Z M19,12 C19,12.94 18.8,13.82 18.46,14.64 L19.97,16.15 C20.6494581,14.8724455 21.0032443,13.4469963 21.0000221,12 C21.0000221,7.72 18.01,4.14 14,3.23 L14,5.29 C16.89,6.15 19,8.83 19,12 Z M4.27,3 L3,4.27 L7.73,9 L3,9 L3,15 L7,15 L12,20 L12,13.27 L16.25,17.52 C15.58,18.04 14.83,18.45 14,18.7 L14,20.76 C15.3532634,20.4496963 16.6162667,19.8301743 17.69,18.95 L19.73,21 L21,19.73 L12,10.73 L4.27,3 Z M12,4 L9.91,6.09 L12,8.18 L12,4 Z"/><path fill-rule="nonzero" d="M0 0H24V24H0z"/></g>
		</g>
		<g id="img-new">
			<g xmlns="http://www.w3.org/2000/svg" fill="none" fill-rule="evenodd"><path fill="#4D4D4D" d="M18,8 L8,8 L8,18 L6,18 L6,8 C6,6.8954305 6.8954305,6 8,6 L18,6 L18,8 M14,2 L4,2 C2.8954305,2 2,2.8954305 2,4 L2,14 L4,14 L4,4 L14,4 L14,2 M22,12 L22,20 C22,21.1045695 21.1045695,22 20,22 L12,22 C10.8954305,22 10,21.1045695 10,20 L10,12 C10,10.8954305 10.8954305,10 12,10 L20,10 C21.1045695,10 22,10.8954305 22,12 M20,15 L17,15 L17,12 L15,12 L15,15 L12,15 L12,17 L15,17 L15,20 L17,20 L17,17 L20,17 L20,15 Z"/><path fill-rule="nonzero" d="M0 0H24V24H0z"/></g>
		</g>
		<g id="img-numberofoccupants">
			<path xmlns="http://www.w3.org/2000/svg" fill="#4D4D4D" d="M4.57,19.5c0.25-3.13,1.68-5.46,4.37-7.01c2.71,1.72,4.58,1.72,7.11-0.01c2.7,1.54,4.13,3.88,4.39,7.01 C15.13,19.5,9.88,19.5,4.57,19.5z"/><path xmlns="http://www.w3.org/2000/svg" fill="#4D4D4D" d="M17.1,8.36c-0.03,2.57-2.08,4.57-4.66,4.54c-2.55-0.02-4.58-2.1-4.55-4.66c0.03-2.6,2.1-4.61,4.69-4.57 C15.14,3.71,17.13,5.77,17.1,8.36z"/>
		</g>
		<g id="img-outline-hide0">
			<g xmlns="http://www.w3.org/2000/svg" fill="#4D4D4D" fill-rule="evenodd"><path d="M0 2L20.73 22.73 22.001 21.46 1.27 0.73z" transform="translate(0 1)"/><path d="M11 16L13 16 13 14 11 14z" transform="translate(0 1)"/><path d="M7.1095,3.9999 L18.0005,3.9999 C18.5495,3.9999 19.0005,4.4499 19.0005,4.9999 L19.0005,15.8909 L21.0005,17.8909 L21.0005,3.9999 C21.0005,2.8999 20.0995,1.9999 19.0005,1.9999 L5.1095,1.9999 L7.1095,3.9999 Z" transform="translate(0 1)"/><path d="M7 12L9 12 9 10 7 10z" transform="translate(0 1)"/><path d="M11 7.891L11.109 8 13 8 13 6 11 6z" transform="translate(0 1)"/><path d="M18.4494,17.8798 C18.3124,17.9498 18.1644,17.9998 18.0004,17.9998 L6.0004,17.9998 C5.4504,17.9998 5.0004,17.5498 5.0004,16.9998 L5.0004,4.9998 C5.0004,4.8358 5.0504,4.6878 5.1204,4.5508 L3.3924,2.8228 C3.1484,3.1538 3.0004,3.5598 3.0004,3.9998 L3.0004,17.9998 C3.0004,19.0998 3.8994,19.9998 5.0004,19.9998 L19.0004,19.9998 C19.4404,19.9998 19.8454,19.8508 20.1774,19.6078 L18.4494,17.8798 Z" transform="translate(0 1)"/><path d="M11 12L12.569 12 11 10.431z" transform="translate(0 1)"/><path d="M17 10L15 10 15 11.891 15.109 12 17 12z" transform="translate(0 1)"/></g>
		</g>
		<g id="img-outline-show0">
			<g xmlns="http://www.w3.org/2000/svg" fill="#4D4D4D" fill-rule="evenodd"><path d="M12,2 L14,2 L14,0 L12,0 L12,2 Z M12,18 L14,18 L14,16 L12,16 L12,18 Z M16,14 L18,14 L18,12 L16,12 L16,14 Z M16,6 L18,6 L18,4 L16,4 L16,6 Z M16,18 C17.1,18 18,17.1 18,16 L16,16 L16,18 Z M8,18 L10,18 L10,16 L8,16 L8,18 Z M4,2 L6,2 L6,0 L4,0 L4,2 Z M0,14 L2,14 L2,12 L0,12 L0,14 Z M2,18 L2,16 L0,16 C0,17.1 0.9,18 2,18 L2,18 Z M16,0 L16,2 L18,2 C18,0.9 17.1,0 16,0 L16,0 Z M8,2 L10,2 L10,0 L8,0 L8,2 Z M0,6 L2,6 L2,4 L0,4 L0,6 Z M4,18 L6,18 L6,16 L4,16 L4,18 Z M0,2 L2,2 L2,0 C0.9,0 0,0.9 0,2 L0,2 Z" transform="translate(3 3)"/><path d="M9.0003,6.7499 C7.7553,6.7499 6.7503,7.7549 6.7503,8.9999 C6.7503,10.2449 7.7553,11.2499 9.0003,11.2499 C10.2453,11.2499 11.2503,10.2449 11.2503,8.9999 C11.2503,7.7549 10.2453,6.7499 9.0003,6.7499 M9.0003,12.7499 C6.9303,12.7499 5.2503,11.0699 5.2503,8.9999 C5.2503,6.9299 6.9303,5.2499 9.0003,5.2499 C11.0693,5.2499 12.7503,6.9299 12.7503,8.9999 C12.7503,11.0699 11.0693,12.7499 9.0003,12.7499 M9.0003,3.3749 C5.2503,3.3749 2.0473,5.7079 0.7503,8.9999 C2.0473,12.2929 5.2503,14.6249 9.0003,14.6249 C12.7503,14.6249 15.9523,12.2929 17.2503,8.9999 C15.9523,5.7079 12.7503,3.3749 9.0003,3.3749" transform="translate(3 3)"/></g>
		</g>
		<g id="img-pdf-inverted">
			<path xmlns="http://www.w3.org/2000/svg" fill="#ef4b3e" d="M4.6 1.22L14.21 1.49 14.48 7.66 20.46 7.47 20.55 22.61 18.2 22.98 4.6 22.79 4.6 1.22z"/><path xmlns="http://www.w3.org/2000/svg" fill="#ef4b3e" d="M20.41,23.52H5.05a1.37,1.37,0,0,1-.91-1.47q0-10,0-19.95A1.38,1.38,0,0,1,5.05.63h9.56c.17.15.34.28.49.44C17.05,3,19,5,20.93,6.88a1.2,1.2,0,0,1,.39.94q0,7.11,0,14.23A1.37,1.37,0,0,1,20.41,23.52ZM5.3,22.35H20.15V8.07H14.79c-.76,0-.9-.14-.9-.88V1.81H5.3ZM19.09,6.91l-4-4.06V6.91Z"/><path xmlns="http://www.w3.org/2000/svg" fill="#fff" d="M14.19 1.68L20.1 7.63 14.19 7.63 14.19 1.68z"/>
		</g>
		<g id="img-pdf">
			<path xmlns="http://www.w3.org/2000/svg" fill="#fff" d="M4.43 1.04L14.03 1.32 14.31 7.48 20.29 7.3 20.38 22.44 18.02 22.8 4.43 22.62 4.43 1.04z"/><path xmlns="http://www.w3.org/2000/svg" fill="#4D4D4D" d="M20.24,23.34H4.87A1.39,1.39,0,0,1,4,21.88q0-10,0-19.95A1.39,1.39,0,0,1,4.87.46h9.57c.16.14.34.28.49.43,1.94,1.94,3.88,3.89,5.83,5.82a1.22,1.22,0,0,1,.39.94c0,4.74,0,9.48,0,14.23A1.37,1.37,0,0,1,20.24,23.34ZM5.13,22.18H20V7.89H14.61c-.76,0-.89-.13-.9-.87V1.63H5.13ZM18.92,6.74l-4-4.06V6.74Z"/><path xmlns="http://www.w3.org/2000/svg" fill="#4D4D4D" d="M14.02 1.5L19.93 7.45 14.02 7.45 14.02 1.5z"/>
		</g>
		<g id="img-pointer-selected">
			<g xmlns="http://www.w3.org/2000/svg" fill="none" fill-rule="evenodd"><path fill="#FFFFFF" d="M13.91 12.36L17 20.854 14.182 21.88 11.09 13.386 6.918 16.542 8.408 1.633 19.134 12.096z"/><path fill-rule="nonzero" d="M0 0H24V24H0z"/></g>
		</g>
		<g id="img-pointer">
			<g xmlns="http://www.w3.org/2000/svg" fill="none" fill-rule="evenodd"><path fill="#4D4D4D" d="M13.91 12.36L17 20.854 14.182 21.88 11.09 13.386 6.918 16.542 8.408 1.633 19.134 12.096z"/><path fill-rule="nonzero" d="M0 0H24V24H0z"/></g>
		</g>
		<g id="img-popsmash-inverted">
			<path xmlns="http://www.w3.org/2000/svg" fill="#ef4b3e" d="M8.26,15.48l-5.87.67,4.12-4.23L1.89,8.22,7.8,8.15l-.66-5.9,4.23,4.13,3.7-4.62.09,5.91L20.85,7l.07.11-4,4.13,4.63,3.67-5.91.1.66,5.87-4.23-4.12L8.35,21.4Zm1.42-1.6.06,3.48,2.16-2.72,2.51,2.43L14,13.6l3.47,0-2.72-2.16L17.2,8.88l-3.46.39L13.68,5.8,11.52,8.51,9,6.09,9.4,9.55l-3.47,0,2.71,2.17-2.42,2.5Z"/><path xmlns="http://www.w3.org/2000/svg" fill="#ef4b3e" d="M17.52,19.51l-2.2.25,1.54-1.59-1.73-1.38,2.21,0-.24-2.21,1.58,1.54,1.38-1.73,0,2.22,2.13-.25,0,0-1.5,1.55,1.73,1.37-2.21,0,.25,2.2L18.94,20l-1.39,1.73Zm.53-.6,0,1.3.81-1,.94.91-.15-1.29,1.3,0L20,18l.91-.94-1.29.14,0-1.29-.81,1L17.8,16l.14,1.3-1.29,0,1,.81-.9.93Z"/>
		</g>
		<g id="img-popsmash">
			<path xmlns="http://www.w3.org/2000/svg" fill="#fff" d="M8.26,15.48l-5.87.67,4.12-4.23L1.89,8.22,7.8,8.15l-.66-5.9,4.23,4.13,3.7-4.62.09,5.91L20.85,7l.07.11-4,4.13,4.63,3.67-5.91.1.66,5.87-4.23-4.12L8.35,21.4Zm1.42-1.6.06,3.48,2.16-2.72,2.51,2.43L14,13.6l3.47,0-2.72-2.16L17.2,8.88l-3.46.39L13.68,5.8,11.52,8.51,9,6.09,9.4,9.55l-3.47,0,2.71,2.17-2.42,2.5Z"/><path xmlns="http://www.w3.org/2000/svg" fill="#fff" d="M17.52,19.51l-2.2.25,1.54-1.59-1.73-1.38,2.21,0-.24-2.21,1.58,1.54,1.38-1.73,0,2.22,2.13-.25,0,0-1.5,1.55,1.73,1.37-2.21,0,.25,2.2L18.94,20l-1.39,1.73Zm.53-.6,0,1.3.81-1,.94.91-.15-1.29,1.3,0L20,18l.91-.94-1.29.14,0-1.29-.81,1L17.8,16l.14,1.3-1.29,0,1,.81-.9.93Z"/>
		</g>
		<g id="img-roomnavigation-presenation2">
			<path xmlns="http://www.w3.org/2000/svg" fill="#333333" d="M12.03,16.62c-1.7,0-3.38,0-5.07,0c-0.48,0-0.97,0-1.45-0.03c-1.2-0.09-1.57-0.45-1.58-1.66 c-0.02-2.12,0.01-4.24-0.03-6.36C3.91,8.25,3.67,7.93,3.55,7.61C3.46,7.37,3.33,7.12,3.32,6.87c-0.03-0.7,0-1.39-0.01-2.09 c-0.02-0.72,0.32-1.01,1.03-1c1.85,0.02,3.7,0.01,5.65,0.01c-0.11-1.04,0.53-1.13,1.31-1.1c0.86,0.04,1.72,0.03,2.57,0 c0.77-0.03,1.37,0.09,1.26,1.1c1.92,0,3.77,0,5.62,0c1.01,0,1.17,0.17,1.18,1.16c0.01,0.62,0.07,1.24-0.02,1.85 c-0.06,0.36-0.38,0.68-0.56,1.03c-0.12,0.23-0.27,0.48-0.27,0.73c-0.02,1.9-0.01,3.81-0.01,5.71c-0.01,1.8-0.58,2.37-2.35,2.36 c-0.99,0-1.99,0-2.98,0c-0.54,0-1.11-0.04-1.09-0.75c0.02-0.71,0.6-0.71,1.12-0.7c0.99,0,1.99-0.03,2.98,0.01 c0.67,0.03,0.89-0.2,0.88-0.87c-0.03-2.23-0.01-4.45-0.01-6.68c0-0.55-0.01-1.05,0.67-1.3c0.18-0.07,0.18-0.63,0.28-1.05 c-5.32,0-10.51,0-15.75,0c0,0.34,0,0.67,0,1.1c0.31,0,0.6,0,0.89,0c3.38,0,6.76,0,10.14,0c0.55,0,1.11,0.03,1.1,0.73 c0,0.69-0.56,0.73-1.11,0.73c-3.17-0.01-6.33,0-9.5,0c-0.29,0-0.58,0-0.91,0c0,2.44,0,4.81,0,7.28c0.35,0.02,0.72,0.06,1.08,0.05 c1.96,0,3.92-0.02,5.87-0.02c0.99,0,1.27,0.2,1.17,1.16c-0.13,1.17,0.3,1.84,1.34,2.38c1.43,0.73,2.76,1.65,4.14,2.48 c0.48,0.28,0.78,0.64,0.44,1.17c-0.32,0.5-0.77,0.34-1.2,0.07c-1.67-1.02-3.36-2.01-5.01-3.05c-0.44-0.28-0.76-0.31-1.22,0 c-1.51,1.03-3.05,1.99-4.58,2.99c-0.46,0.3-0.93,0.55-1.3-0.07c-0.35-0.58,0.1-0.87,0.52-1.15c1.6-1.04,3.18-2.09,4.79-3.1 C11.99,17.71,12.28,17.36,12.03,16.62z"/>
		</g>
		<g id="img-present-inverted">
			<path xmlns="http://www.w3.org/2000/svg" fill="#ef4b3e" d="M12.83,18.75l-.05.15c-.08,1.46-.08,1.46,1.13,2.27l.5.33c.35.25.52.56.24,1a.66.66,0,0,1-1,.12l-1.55-1-1.49,1c-.37.24-.75.31-1-.09s-.09-.74.28-1a4.3,4.3,0,0,1,.45-.29,1.76,1.76,0,0,0,1.06-2.42H4.43c-1.22,0-1.69-.47-1.69-1.69V6.79c-.06,0-.09-.09-.12-.09-1.2-.15-1.2-.15-1.2-1.36,0-.57,0-1.15,0-1.72,0-.78.15-.93,1-.93H21.3c1.49,0,1.49,0,1.49,1.52V5.75c0,.77-.12.88-.9.92l-.43,0V17.11c0,1.14-.49,1.64-1.62,1.64h-7ZM4.08,17.39h16V6.71h-16ZM21.45,4.05H2.77V5.3H21.45Z"/><path xmlns="http://www.w3.org/2000/svg" fill="#ef4b3e" d="M9.42,12c0-1,0-2.06,0-3.09,0-.8.45-1.08,1.15-.73,2.09,1,4.18,2.07,6.25,3.14a1.08,1.08,0,0,1,.56.71,1.08,1.08,0,0,1-.56.71c-2.07,1.07-4.16,2.1-6.25,3.14-.71.35-1.15.07-1.15-.73C9.42,14.12,9.42,13.07,9.42,12Zm5.89,0L10.77,9.79v4.52Z"/>
		</g>
		<g id="img-present">
			<path xmlns="http://www.w3.org/2000/svg" fill="#4D4D4D" stroke="#fff" stroke-miterlimit="10" stroke-width=".3" d="M12.83,18.38a1,1,0,0,0-.05.15C12.7,20,12.7,20,13.91,20.79l.5.34c.35.25.52.56.24.95a.67.67,0,0,1-1,.13l-1.55-1-1.49,1c-.37.24-.75.31-1-.09s-.09-.74.28-1a3.12,3.12,0,0,1,.45-.29,1.76,1.76,0,0,0,1.06-2.42H4.43c-1.22,0-1.69-.48-1.69-1.69V6.42c-.06,0-.09-.09-.12-.1-1.2-.14-1.2-.14-1.2-1.35,0-.57,0-1.15,0-1.73,0-.78.15-.92,1-.92H21.3c1.49,0,1.49,0,1.49,1.52V5.38c0,.77-.12.88-.9.91l-.43,0V16.74c0,1.14-.49,1.64-1.62,1.64h-7ZM4.08,17h16V6.34h-16ZM21.45,3.68H2.77V4.93H21.45Z"/><path xmlns="http://www.w3.org/2000/svg" fill="#4D4D4D" stroke="#4D4D4D" stroke-miterlimit="10" stroke-width=".3" d="M9.42,11.65c0-1,0-2.06,0-3.09,0-.8.45-1.08,1.15-.73,2.09,1,4.18,2.07,6.25,3.14a1.08,1.08,0,0,1,.56.71,1.08,1.08,0,0,1-.56.71c-2.07,1.07-4.16,2.1-6.25,3.14-.71.35-1.15.07-1.15-.73C9.42,13.75,9.42,12.7,9.42,11.65Zm5.89,0L10.77,9.41v4.53Z"/>
		</g>
		<g id="img-quub-inverted">
			<path xmlns="http://www.w3.org/2000/svg" fill="#ef4b3e" stroke="#ef4b3e" stroke-miterlimit="10" stroke-width=".5" d="M18.15,14.14c0,.9,0,1.8,0,2.69,0,.41.05.72.47.91.14.07.19.35.27.53-.21,0-.5.17-.63.08a.87.87,0,0,0-1.07,0c-1.5.82-3,1.6-4.51,2.44a.87.87,0,0,1-1,0c-1.43-.86-2.87-1.69-4.29-2.56a.92.92,0,0,0-1.08-.08.73.73,0,0,1-.68,0c-.23-.35.09-.53.36-.63a.72.72,0,0,0,.5-.81c0-1.81,0-3.63,0-5.44A.87.87,0,0,1,7,10.39c1.46-.75,2.9-1.55,4.36-2.32.34-.18.56-.36.54-.8,0-.16.21-.33.33-.5.13.15.27.3.39.45s.25.48.44.6c1.55.95,3.1,1.88,4.67,2.79a.72.72,0,0,1,.44.78c0,.92,0,1.83,0,2.75Zm-.75-2.32a24.33,24.33,0,0,1-3.08,1.63,2.3,2.3,0,0,0-1.72,2.83,30.53,30.53,0,0,1,0,3.72c1.6-.86,3.1-1.66,4.58-2.48a.47.47,0,0,0,.18-.36C17.41,15.41,17.4,13.67,17.4,11.82Zm-5.52,8.26c0-1.55-.07-3,0-4.38a1.8,1.8,0,0,0-1.12-2c-1.2-.6-2.32-1.35-3.57-2.1,0,1.9,0,3.68,0,5.46a.48.48,0,0,0,.19.35C8.85,18.29,10.3,19.14,11.88,20.08ZM7.59,11c1.51.91,2.92,1.76,4.33,2.59a.59.59,0,0,0,.5,0c1.54-.78,3.06-1.57,4.71-2.43L12.67,8.48a.59.59,0,0,0-.47,0C10.7,9.27,9.2,10.08,7.59,11Z"/><path xmlns="http://www.w3.org/2000/svg" fill="#ef4b3e" stroke="#ef4b3e" stroke-miterlimit="10" stroke-width=".5" d="M5.25,18.49c-.21.26-.28.4-.39.46a4.28,4.28,0,0,1-.93.47c-.15,0-.36-.07-.54-.12.07-.17.08-.41.2-.5a3.69,3.69,0,0,1,1-.5C4.74,18.25,5,18.4,5.25,18.49Z"/><path xmlns="http://www.w3.org/2000/svg" fill="#ef4b3e" stroke="#ef4b3e" stroke-miterlimit="10" stroke-width=".5" d="M21.17,19.45c-.2.08-.42.26-.55.21A5.8,5.8,0,0,1,19.49,19a.41.41,0,0,1-.06-.38c.05-.1.26-.23.33-.2.43.2.84.44,1.25.68C21.07,19.15,21.08,19.26,21.17,19.45Z"/><path xmlns="http://www.w3.org/2000/svg" fill="#ef4b3e" stroke="#ef4b3e" stroke-miterlimit="10" stroke-width=".5" d="M3.08,19.62c-.15.22-.2.35-.29.4a6.94,6.94,0,0,1-1,.54.51.51,0,0,1-.46-.14c-.07-.06,0-.36.06-.42a6.91,6.91,0,0,1,1.2-.64C2.66,19.31,2.87,19.51,3.08,19.62Z"/><path xmlns="http://www.w3.org/2000/svg" fill="#ef4b3e" stroke="#ef4b3e" stroke-miterlimit="10" stroke-width=".5" d="M23.25,20.62c-.15.08-.36.26-.47.22a7,7,0,0,1-1.14-.62.41.41,0,0,1-.07-.38c.05-.11.26-.26.32-.23.44.22.86.48,1.28.74C23.21,20.37,23.21,20.47,23.25,20.62Z"/><path xmlns="http://www.w3.org/2000/svg" fill="#ef4b3e" stroke="#ef4b3e" stroke-miterlimit="10" stroke-width=".5" d="M12.63,3c0,.08,0,.18,0,.25s-.25.39-.37.58a2.72,2.72,0,0,1-.36-.61,1.06,1.06,0,0,1,0-.61,2.11,2.11,0,0,1,.35-.51,4.7,4.7,0,0,1,.38.53A.91.91,0,0,1,12.63,3Z"/><path xmlns="http://www.w3.org/2000/svg" fill="#ef4b3e" stroke="#ef4b3e" stroke-miterlimit="10" stroke-width=".5" d="M12.63,5.55a.7.7,0,0,1,0,.33c0,.13-.22.32-.3.3a.54.54,0,0,1-.39-.29,1.67,1.67,0,0,1,0-.8c0-.19.25-.35.39-.52a5.54,5.54,0,0,1,.33.51A1.58,1.58,0,0,1,12.63,5.55Z"/>
		</g>
		<g id="img-quub">
			<path xmlns="http://www.w3.org/2000/svg" fill="#fff" stroke="#fff" stroke-miterlimit="10" stroke-width=".5" d="M18.15,14.14c0,.9,0,1.8,0,2.69,0,.41.05.72.47.91.14.07.19.35.27.53-.21,0-.5.17-.63.08a.87.87,0,0,0-1.07,0c-1.5.82-3,1.6-4.51,2.44a.87.87,0,0,1-1,0c-1.43-.86-2.87-1.69-4.29-2.56a.92.92,0,0,0-1.08-.08.73.73,0,0,1-.68,0c-.23-.35.09-.53.36-.63a.72.72,0,0,0,.5-.81c0-1.81,0-3.63,0-5.44A.87.87,0,0,1,7,10.39c1.46-.75,2.9-1.55,4.36-2.32.34-.18.56-.36.54-.8,0-.16.21-.33.33-.5.13.15.27.3.39.45s.25.48.44.6c1.55.95,3.1,1.88,4.67,2.79a.72.72,0,0,1,.44.78c0,.92,0,1.83,0,2.75Zm-.75-2.32a24.33,24.33,0,0,1-3.08,1.63,2.3,2.3,0,0,0-1.72,2.83,30.53,30.53,0,0,1,0,3.72c1.6-.86,3.1-1.66,4.58-2.48a.47.47,0,0,0,.18-.36C17.41,15.41,17.4,13.67,17.4,11.82Zm-5.52,8.26c0-1.55-.07-3,0-4.38a1.8,1.8,0,0,0-1.12-2c-1.2-.6-2.32-1.35-3.57-2.1,0,1.9,0,3.68,0,5.46a.48.48,0,0,0,.19.35C8.85,18.29,10.3,19.14,11.88,20.08ZM7.59,11c1.51.91,2.92,1.76,4.33,2.59a.59.59,0,0,0,.5,0c1.54-.78,3.06-1.57,4.71-2.43L12.67,8.48a.59.59,0,0,0-.47,0C10.7,9.27,9.2,10.08,7.59,11Z"/><path xmlns="http://www.w3.org/2000/svg" fill="#fff" stroke="#fff" stroke-miterlimit="10" stroke-width=".5" d="M5.25,18.49c-.21.26-.28.4-.39.46a4.28,4.28,0,0,1-.93.47c-.15,0-.36-.07-.54-.12.07-.17.08-.41.2-.5a3.69,3.69,0,0,1,1-.5C4.74,18.25,5,18.4,5.25,18.49Z"/><path xmlns="http://www.w3.org/2000/svg" fill="#fff" stroke="#fff" stroke-miterlimit="10" stroke-width=".5" d="M21.17,19.45c-.2.08-.42.26-.55.21A5.8,5.8,0,0,1,19.49,19a.41.41,0,0,1-.06-.38c.05-.1.26-.23.33-.2.43.2.84.44,1.25.68C21.07,19.15,21.08,19.26,21.17,19.45Z"/><path xmlns="http://www.w3.org/2000/svg" fill="#fff" stroke="#fff" stroke-miterlimit="10" stroke-width=".5" d="M3.08,19.62c-.15.22-.2.35-.29.4a6.94,6.94,0,0,1-1,.54.51.51,0,0,1-.46-.14c-.07-.06,0-.36.06-.42a6.91,6.91,0,0,1,1.2-.64C2.66,19.31,2.87,19.51,3.08,19.62Z"/><path xmlns="http://www.w3.org/2000/svg" fill="#fff" stroke="#fff" stroke-miterlimit="10" stroke-width=".5" d="M23.25,20.62c-.15.08-.36.26-.47.22a7,7,0,0,1-1.14-.62.41.41,0,0,1-.07-.38c.05-.11.26-.26.32-.23.44.22.86.48,1.28.74C23.21,20.37,23.21,20.47,23.25,20.62Z"/><path xmlns="http://www.w3.org/2000/svg" fill="#fff" stroke="#fff" stroke-miterlimit="10" stroke-width=".5" d="M12.63,3c0,.08,0,.18,0,.25s-.25.39-.37.58a2.72,2.72,0,0,1-.36-.61,1.06,1.06,0,0,1,0-.61,2.11,2.11,0,0,1,.35-.51,4.7,4.7,0,0,1,.38.53A.91.91,0,0,1,12.63,3Z"/><path xmlns="http://www.w3.org/2000/svg" fill="#fff" stroke="#fff" stroke-miterlimit="10" stroke-width=".5" d="M12.63,5.55a.7.7,0,0,1,0,.33c0,.13-.22.32-.3.3a.54.54,0,0,1-.39-.29,1.67,1.67,0,0,1,0-.8c0-.19.25-.35.39-.52a5.54,5.54,0,0,1,.33.51A1.58,1.58,0,0,1,12.63,5.55Z"/>
		</g>
		<g id="img-resize-indicator-bottom-left">
			<path xmlns="http://www.w3.org/2000/svg" fill="#aa0000" d="M.81.69a.5.5,0,0,0-.5.5v1a7.5,7.5,0,0,0,7.5,7.5h1a.5.5,0,0,0,.5-.5.51.51,0,0,0-.5-.5h-1a6.5,6.5,0,0,1-6.5-6.5v-1A.51.51,0,0,0,.81.69Z" opacity=".6"/><path xmlns="http://www.w3.org/2000/svg" fill="#ccf078" d="M1.5,0A.5.5,0,0,0,1,.5v1A7.5,7.5,0,0,0,8.5,9h1a.5.5,0,0,0,0-1h-1A6.51,6.51,0,0,1,2,1.5V.5A.5.5,0,0,0,1.5,0Z"/>
		</g>
		<g id="img-resize-indicator-bottom-right">
			<path xmlns="http://www.w3.org/2000/svg" fill="#aa0000" d="M9.19.69a.5.5,0,0,1,.5.5v1a7.5,7.5,0,0,1-7.5,7.5h-1a.5.5,0,0,1-.5-.5.51.51,0,0,1,.5-.5h1a6.5,6.5,0,0,0,6.5-6.5v-1A.51.51,0,0,1,9.19.69Z" opacity=".6"/><path xmlns="http://www.w3.org/2000/svg" fill="#ccf078" d="M8.5,0A.5.5,0,0,1,9,.5v1A7.5,7.5,0,0,1,1.5,9H.5a.5.5,0,0,1,0-1h1A6.51,6.51,0,0,0,8,1.5V.5A.5.5,0,0,1,8.5,0Z"/>
		</g>
		<g id="img-resize">
			<path xmlns="http://www.w3.org/2000/svg" fill="#fff" d="M1.14,13.87l3,3.18L16.72,4.4,13.5,1.26h9.12v9.09L19.36,7,6.8,19.63l3.26,3.07-.12.19H1V14Z"/>
		</g>
		<g id="img-send-back">
			<g xmlns="http://www.w3.org/2000/svg" fill="none" fill-rule="evenodd"><path fill="#4D4D4D" d="M6,4 L4,4 L4,6 L6,6 L6,4 Z M6,8 L4,8 L4,10 L6,10 L6,8 Z M6,0 C4.8954305,0 4,0.8954305 4,2 L6,2 L6,0 Z M10,12 L8,12 L8,14 L10,14 L10,12 Z M16,0 L16,2 L18,2 C18,0.9 17.1,0 16,0 Z M10,0 L8,0 L8,2 L10,2 L10,0 Z M6,14 L6,12 L4,12 C4,13.1045695 4.8954305,14 6,14 Z M16,10 L18,10 L18,8 L16,8 L16,10 Z M16,6 L18,6 L18,4 L16,4 L16,6 Z M16,14 C17.1,14 18,13.1 18,12 L16,12 L16,14 Z M2,4 L0,4 L0,16 C0,17.1045695 0.8954305,18 2,18 L14,18 L14,16 L2,16 L2,4 Z M12,2 L14,2 L14,0 L12,0 L12,2 Z M12,14 L14,14 L14,12 L12,12 L12,14 Z" transform="translate(3 3)"/><path fill-rule="nonzero" d="M0 0H24V24H0z"/></g>
		</g>
		<g id="img-share-screen-inverted">
			<g xmlns="http://www.w3.org/2000/svg" fill="none" fill-rule="evenodd"><path fill="#ef4b3e" d="M20,18 C21.1,18 21.99,17.1 21.99,16 L22,6 C22,4.8954305 21.1045695,4 20,4 L4,4 C2.89,4 2,4.89 2,6 L2,16 C2,17.1045695 2.8954305,18 4,18 L0,18 L0,20 L24,20 L24,18 L20,18 Z M13,14.47 L13,12.28 C10.22,12.28 8.39,13.13 7,15 C7.56,12.33 9.11,9.67 13,9.13 L13,7 L17,10.73 L13,14.47 Z"/><path fill-rule="nonzero" d="M0 0H24V24H0z"/></g>
		</g>
		<g id="img-text-fields-inverted">
			<g xmlns="http://www.w3.org/2000/svg" fill="none" fill-rule="evenodd"><path fill="#ef4b3e" d="M2.5,4 L2.5,7 L7.5,7 L7.5,19 L10.5,19 L10.5,7 L15.5,7 L15.5,4 L2.5,4 Z M21.5,9 L12.5,9 L12.5,12 L15.5,12 L15.5,19 L18.5,19 L18.5,12 L21.5,12 L21.5,9 Z"/><path fill-rule="nonzero" d="M0 0H24V24H0z"/></g>
		</g>
		<g id="img-tools-inverted">
			<g xmlns="http://www.w3.org/2000/svg" fill="none" fill-rule="evenodd"><path fill="#ef4b3e" d="M21.71,20.29 L20.29,21.71 C19.8999625,22.0977236 19.2700375,22.0977236 18.88,21.71 L7,9.85 C6.67481177,9.94420831 6.33851735,9.99465247 6,10 C4.70819541,9.99907774 3.4963573,9.3743492 2.74626198,8.32262825 C1.99616666,7.2709073 1.80016307,5.9216779 2.22,4.7 L4.76,7.24 L5.29,6.71 L6.71,5.29 L7.24,4.76 L4.7,2.22 C5.9216779,1.80016307 7.2709073,1.99616666 8.32262825,2.74626198 C9.3743492,3.4963573 9.99907774,4.70819541 10,6 C9.99465247,6.33851735 9.94420831,6.67481177 9.85,7 L21.71,18.88 C22.0977236,19.2700375 22.0977236,19.8999625 21.71,20.29 M2.29,18.88 C1.90227641,19.2700375 1.90227641,19.8999625 2.29,20.29 L3.71,21.71 C4.10003745,22.0977236 4.72996255,22.0977236 5.12,21.71 L10.59,16.25 L7.76,13.42 M20,2 L16,4 L16,6 L13.83,8.17 L15.83,10.17 L18,8 L20,8 L22,4 L20,2 Z"/><path fill-rule="nonzero" d="M0 0H24V24H0z"/></g>
		</g>
		<g id="img-text-fields">
			<g xmlns="http://www.w3.org/2000/svg" fill="none" fill-rule="evenodd"><path fill="#4D4D4D" d="M2.5,4 L2.5,7 L7.5,7 L7.5,19 L10.5,19 L10.5,7 L15.5,7 L15.5,4 L2.5,4 Z M21.5,9 L12.5,9 L12.5,12 L15.5,12 L15.5,19 L18.5,19 L18.5,12 L21.5,12 L21.5,9 Z"/><path fill-rule="nonzero" d="M0 0H24V24H0z"/></g>
		</g>
		<g id="img-tools">
			<g xmlns="http://www.w3.org/2000/svg" fill="none" fill-rule="evenodd"><path fill="#ffffff" d="M21.71,20.29 L20.29,21.71 C19.8999625,22.0977236 19.2700375,22.0977236 18.88,21.71 L7,9.85 C6.67481177,9.94420831 6.33851735,9.99465247 6,10 C4.70819541,9.99907774 3.4963573,9.3743492 2.74626198,8.32262825 C1.99616666,7.2709073 1.80016307,5.9216779 2.22,4.7 L4.76,7.24 L5.29,6.71 L6.71,5.29 L7.24,4.76 L4.7,2.22 C5.9216779,1.80016307 7.2709073,1.99616666 8.32262825,2.74626198 C9.3743492,3.4963573 9.99907774,4.70819541 10,6 C9.99465247,6.33851735 9.94420831,6.67481177 9.85,7 L21.71,18.88 C22.0977236,19.2700375 22.0977236,19.8999625 21.71,20.29 M2.29,18.88 C1.90227641,19.2700375 1.90227641,19.8999625 2.29,20.29 L3.71,21.71 C4.10003745,22.0977236 4.72996255,22.0977236 5.12,21.71 L10.59,16.25 L7.76,13.42 M20,2 L16,4 L16,6 L13.83,8.17 L15.83,10.17 L18,8 L20,8 L22,4 L20,2 Z"/><path fill-rule="nonzero" d="M0 0H24V24H0z"/></g>
		</g>
		<g id="img-trash-can">
			<g xmlns="http://www.w3.org/2000/svg" fill="none" fill-rule="evenodd"><path fill="#4D4D4D" d="M9,3 L9,4 L4,4 L4,6 L5,6 L5,19 C5,20.1045695 5.8954305,21 7,21 L17,21 C18.1045695,21 19,20.1045695 19,19 L19,6 L20,6 L20,4 L15,4 L15,3 L9,3 M9,8 L11,8 L11,17 L9,17 L9,8 M13,8 L15,8 L15,17 L13,17 L13,8 Z"/><path fill-rule="nonzero" d="M0 0H24V24H0z"/></g>
		</g>
		<g id="img-twitch-inverted">
			<path xmlns="http://www.w3.org/2000/svg" fill="#ef4b3e" stroke="#ef4b3e" stroke-miterlimit="10" stroke-width=".55" d="M7.56,22.54c0-.75,0-1.4,0-2,0-.47-.17-.64-.63-.63-1.29,0-2.59,0-3.89,0H2.28c0-.31,0-.55,0-.79,0-4.34,0-8.68,0-13a3.86,3.86,0,0,1,.18-1.12c.35-1.14.75-2.28,1.13-3.41H21.92c0,.25,0,.48,0,.72,0,3.8,0,7.6,0,11.41a1.61,1.61,0,0,1-.37,1q-2.2,2.43-4.49,4.79a1.42,1.42,0,0,1-.92.39c-1,.06-1.92,0-2.88,0a1.54,1.54,0,0,0-.88.37c-.66.59-1.25,1.27-1.92,1.87a1.73,1.73,0,0,1-.91.39C9,22.58,8.3,22.54,7.56,22.54Zm1.83-3c.94-.68,1.72-1.28,2.53-1.81a1.92,1.92,0,0,1,1-.31c1.16,0,2.32,0,3.48,0a1.29,1.29,0,0,0,1.1-.48c.94-1,1.93-2,2.86-3.11a1.72,1.72,0,0,0,.39-1c0-3.11,0-6.22,0-9.33,0-.64-.17-.82-.82-.82-4.78,0-9.57,0-14.35,0H4.82V17.39H9.39Z"/><path xmlns="http://www.w3.org/2000/svg" fill="#ef4b3e" stroke="#ef4b3e" stroke-miterlimit="10" stroke-width=".55" d="M12.72,11.89H10.79a2.84,2.84,0,0,1-.1-.49c0-1.36,0-2.72,0-4.08,0-.54.43-.55,1.09-.56s1,.1,1,.56C12.69,8.83,12.72,10.34,12.72,11.89Z"/><path xmlns="http://www.w3.org/2000/svg" fill="#ef4b3e" stroke="#ef4b3e" stroke-miterlimit="10" stroke-width=".55" d="M17.12,11.89H15.19a2.84,2.84,0,0,1-.1-.49c0-1.36,0-2.72,0-4.08,0-.54.43-.55,1.09-.56s1,.1,1,.56C17.09,8.83,17.12,10.34,17.12,11.89Z"/>
		</g>
		<g id="img-twitch">
			<path xmlns="http://www.w3.org/2000/svg" fill="#fff" stroke="#fff" stroke-miterlimit="10" stroke-width=".55" d="M7.66,23.13c0-.75,0-1.39,0-2,0-.47-.16-.63-.62-.63-1.3,0-2.6,0-3.89,0H2.38c0-.32,0-.56,0-.8q0-6.51,0-13a3.79,3.79,0,0,1,.18-1.11c.36-1.15.75-2.28,1.13-3.42H22c0,.25.06.49.06.72,0,3.81,0,7.61,0,11.41a1.66,1.66,0,0,1-.36,1c-1.47,1.63-3,3.22-4.5,4.8a1.51,1.51,0,0,1-.91.39c-1,.05-1.93,0-2.89,0a1.47,1.47,0,0,0-.87.36c-.67.6-1.26,1.28-1.93,1.87a1.68,1.68,0,0,1-.91.4C9.05,23.18,8.4,23.13,7.66,23.13Zm1.83-3c.95-.69,1.72-1.28,2.54-1.82A2,2,0,0,1,13,18c1.16,0,2.33,0,3.49,0a1.29,1.29,0,0,0,1.09-.48c1-1.05,1.94-2.05,2.86-3.11a1.62,1.62,0,0,0,.39-1c0-3.11,0-6.21,0-9.32,0-.64-.17-.83-.81-.82-4.79,0-9.57,0-14.36,0H4.92V18H9.49Z"/><path xmlns="http://www.w3.org/2000/svg" fill="#fff" stroke="#fff" stroke-miterlimit="10" stroke-width=".55" d="M12.82,12.49H10.9a2.11,2.11,0,0,1-.1-.5c0-1.36,0-2.72,0-4.08,0-.53.43-.55,1.08-.55s1,.1,1,.56C12.8,9.43,12.82,10.94,12.82,12.49Z"/><path xmlns="http://www.w3.org/2000/svg" fill="#fff" stroke="#fff" stroke-miterlimit="10" stroke-width=".55" d="M17.22,12.49H15.3a2.11,2.11,0,0,1-.1-.5c0-1.36,0-2.72,0-4.08,0-.53.43-.55,1.08-.55s1,.1,1,.56C17.2,9.43,17.22,10.94,17.22,12.49Z"/>
		</g>
		<g id="img-unlock">
			<g xmlns="http://www.w3.org/2000/svg" fill="none" fill-rule="evenodd"><path fill="#4D4D4D" d="M16,7 L13,7 L3,7 L0,7 L0,21 L16,21 L16,7 Z M8,12 C9.1,12 10,12.9 10,14 C10,15.1 9.1,16 8,16 C6.9,16 6,15.1 6,14 C6,12.9 6.9,12 8,12 Z M4.64328991,1.29546418 C5.6885441,0.347310115 7.08532782,-0.115825284 8.49,0.02 C11.09,0.27 13,2.6 13,5.21 L13,5.21 L13,7 L11,7 L11,5 C11,2.9 8.85,1.31 6.64,2.3 C5.6,2.76 5,3.87 5,5 L5,5 L3,5 C3.00133867,3.5887769 3.59803573,2.24361825 4.64328991,1.29546418 Z" transform="translate(4 1)"/><path fill-rule="nonzero" d="M0 0H24V24H0z"/></g>
		</g>
		<g id="img-unmute">
			<g xmlns="http://www.w3.org/2000/svg" fill="none" fill-rule="evenodd"><path fill="#FFFFFF" d="M3,9 L3,15 L7,15 L12,20 L12,4 L7,9 L3,9 Z M16.5,12 C16.4995712,10.2909166 15.531008,8.7295926 14,7.97 L14,16.02 C15.48,15.29 16.5,13.77 16.5,12 Z M14,3.23 L14,5.29 C16.89,6.15 19,8.83 19,12 C19,15.17 16.89,17.85 14,18.71 L14,20.77 C18.01,19.86 21,16.28 21,12 C21,7.72 18.01,4.14 14,3.23 Z"/><path fill-rule="nonzero" d="M0 0H24V24H0z"/></g>
		</g>
		<g id="img-unshare-screen">
			<g xmlns="http://www.w3.org/2000/svg" fill="none" fill-rule="evenodd"><path fill="#4D4D4D" d="M21.22,18.02 L23.22,20.02 L24,20.02 L24,18.02 L21.22,18.02 Z M21.99,16.02 L22,6.02 C22,4.9154305 21.1045695,4.02 20,4.02 L7.22,4.02 L12.45,9.25 C12.63,9.21 12.81,9.18 13,9.15 L13,7.02 L17,10.75 L15.42,12.22 L20.96,17.76 C21.57,17.43 21.99,16.77 21.99,16.02 L21.99,16.02 Z M2.39,1.73 L1.11,3 L2.65,4.54 C2.25,4.9 2,5.43 2,6.02 L2,16.02 C2,17.1245695 2.8954305,18.02 4,18.02 L0,18.02 L0,20.02 L18.13,20.02 L20.84,22.73 L22.11,21.46 L2.39,1.73 Z M7,15.02 C7.31,13.54 7.92,12.07 9.07,10.96 L10.66,12.55 C9.12,12.93 7.96,13.73 7,15.02 L7,15.02 Z"/><path fill-rule="nonzero" d="M0 0H24V24H0z"/></g>
		</g>
		<g id="img-upload-inverted">
			<g xmlns="http://www.w3.org/2000/svg" fill="none" fill-rule="evenodd"><path fill="#ef4b3e" d="M9,16 L9,10 L5,10 L12,3 L19,10 L15,10 L15,16 L9,16 M5,20 L5,18 L19,18 L19,20 L5,20 Z"/><path fill-rule="nonzero" d="M0 0H24V24H0z"/></g>
		</g>
		<g id="img-upload">
			<g xmlns="http://www.w3.org/2000/svg" fill="none" fill-rule="evenodd"><path fill="#4D4D4D" d="M9,16 L9,10 L5,10 L12,3 L19,10 L15,10 L15,16 L9,16 M5,20 L5,18 L19,18 L19,20 L5,20 Z"/><path fill-rule="nonzero" d="M0 0H24V24H0z"/></g>
		</g>
		<g id="img-video-inverted">
			<path xmlns="http://www.w3.org/2000/svg" fill="#ef4b3e" d="M1.78,20.45V3.72A2.24,2.24,0,0,1,3.48,2H20.21a2.25,2.25,0,0,1,1.7,1.7V20.45a2.25,2.25,0,0,1-1.7,1.7H3.48A2.24,2.24,0,0,1,1.78,20.45ZM8.7,12.08c0,1.22,0,2.44,0,3.67,0,.73.41,1,1,.61l6.38-3.68c.62-.36.62-.83,0-1.18L9.76,7.82c-.65-.37-1-.13-1,.63C8.7,9.66,8.7,10.87,8.7,12.08ZM7.81,4V5.71H9.52V4Zm6.36,0V5.72h1.72V4ZM7.81,18.46v1.7H9.54v-1.7Zm8.08,0H14.17v1.7h1.72ZM6.35,4H4.63V5.72H6.35Zm6.36,0H11v1.7h1.7Zm6.36,0H17.36v1.7h1.71ZM6.34,18.46H4.64v1.7h1.7Zm6.35,1.71V18.46H11v1.71Zm4.68-1.71v1.69h1.69V18.46Z"/>
		</g>
		<g id="img-video-off">
			<g xmlns="http://www.w3.org/2000/svg" fill="none" fill-rule="evenodd"><path fill="#4D4D4D" d="M21,6.5 L17,10.5 L17,7 C17,6.45 16.55,6 16,6 L9.82,6 L21,17.18 L21,6.5 Z M3.27,2 L2,3.27 L4.73,6 L4,6 C3.45,6 3,6.45 3,7 L3,17 C3,17.55 3.45,18 4,18 L16,18 C16.21,18 16.39,17.92 16.54,17.82 L19.73,21 L21,19.73 L3.27,2 Z"/><path fill-rule="nonzero" d="M0 0H24V24H0z"/></g>
		</g>
		<g id="img-video-on">
			<g xmlns="http://www.w3.org/2000/svg" fill="none" fill-rule="evenodd"><path fill="#F2F2F2" d="M17,10.5 L17,7 C17,6.45 16.55,6 16,6 L4,6 C3.45,6 3,6.45 3,7 L3,17 C3,17.55 3.45,18 4,18 L16,18 C16.55,18 17,17.55 17,17 L17,13.5 L21,17.5 L21,6.5 L17,10.5 Z"/><path fill-rule="nonzero" d="M0 0H24V24H0z"/></g>
		</g>
		<g id="img-video">
			<path xmlns="http://www.w3.org/2000/svg" fill="#fff" d="M1.78,20.45V3.72A2.24,2.24,0,0,1,3.48,2H20.21a2.25,2.25,0,0,1,1.7,1.7V20.45a2.25,2.25,0,0,1-1.7,1.7H3.48A2.24,2.24,0,0,1,1.78,20.45ZM8.7,12.08c0,1.22,0,2.44,0,3.67,0,.73.41,1,1,.61l6.38-3.68c.62-.36.62-.83,0-1.18L9.76,7.82c-.65-.37-1-.13-1,.63C8.7,9.66,8.7,10.87,8.7,12.08ZM7.81,4V5.71H9.52V4Zm6.36,0V5.72h1.72V4ZM7.81,18.46v1.7H9.54v-1.7Zm8.08,0H14.17v1.7h1.72ZM6.35,4H4.63V5.72H6.35Zm6.36,0H11v1.7h1.7Zm6.36,0H17.36v1.7h1.71ZM6.34,18.46H4.64v1.7h1.7Zm6.35,1.71V18.46H11v1.71Zm4.68-1.71v1.69h1.69V18.46Z"/>
		</g>
		<g id="img-view-zoom-in">
			<g xmlns="http://www.w3.org/2000/svg" fill="none" fill-rule="evenodd"><path fill="#4D4D4D" d="M19 13L13 13 13 19 11 19 11 13 5 13 5 11 11 11 11 5 13 5 13 11 19 11z"/><path fill-rule="nonzero" d="M0 0H24V24H0z"/></g>
		</g>
		<g id="img-view-zoom-out">
			<g xmlns="http://www.w3.org/2000/svg" fill="none" fill-rule="evenodd"><path fill="#4D4D4D" d="M19 12.998L5 12.998 5 10.998 19 10.998z"/><path fill-rule="nonzero" d="M0 0H24V24H0z"/></g>
		</g>
		<g id="img-view-centered-inverted">
			<path xmlns="http://www.w3.org/2000/svg" fill="#ef4b3e" fill-rule="evenodd" d="M0,9 L3,9 L3,7 L0,7 L0,9 Z M17,9 L20.001,9 L20.001,7 L17,7 L17,9 Z M9,3 L11,3 L11,0 L9,0 L9,3 Z M13,9 L11,9 L11,11 L9,11 L9,9 L7,9 L7,7 L9,7 L9,5 L11,5 L11,7 L13,7 L13,9 Z M9,16 L11,16 L11,13 L9,13 L9,16 Z M13,0 L13,2 L18,2 L18,5 L20,5 L20,0 L13,0 Z M18,14 L13,14 L13,16 L20,16 L20,11 L18,11 L18,14 Z M0,5 L2,5 L2,2 L7,2 L7,0 L0,0 L0,5 Z M2,11 L0,11 L0,16 L7,16 L7,14 L2,14 L2,11 Z" transform="translate(2 4)"/>
		</g>
		<g id="img-whiteboard-inverted">
			<g xmlns="http://www.w3.org/2000/svg" fill="none" fill-rule="evenodd"><path fill="#ef4b3e" d="M7.75,17.85 C9.53,17.15 9.14,15.22 8.24,14 C7.35,12.75 6.12,11.89 4.88,11.06 C3.99525172,10.502359 3.20529297,9.8069252 2.54,9 C2.26,8.67 1.69,8.06 2.27,7.94 C2.86,7.82 3.88,8.4 4.4,8.62 C5.31,9 6.21,9.44 7.05,9.96 L8.06,8.26 C6.5,7.23 4.5,6.32 2.64,6.05 C1.58,5.89 0.46,6.11 0.1,7.26 C-0.22,8.25 0.29,9.25 0.87,10.03 C2.24,11.86 4.37,12.74 5.96,14.32 C6.3,14.65 6.71,15.04 6.91,15.5 C7.12,15.94 7.07,15.97 6.6,15.97 C5.36,15.97 3.81,15 2.8,14.36 L1.79,16.06 C3.32,17 5.88,18.47 7.75,17.85 M18.84,2.25 C19.06,2.03 19.06,1.67 18.84,1.46 L17.54,0.16 C17.3223215,-0.049796083 16.9776785,-0.049796083 16.76,0.16 L15.74,1.18 L17.82,3.26 M9,7.92 L9,10 L11.08,10 L17.23,3.85 L15.15,1.77 L9,7.92 Z" transform="translate(2 3)"/><path fill-rule="nonzero" d="M0 0H24V24H0z"/></g>
		</g>
		<g id="img-whiteboard">
			<g xmlns="http://www.w3.org/2000/svg" fill="none" fill-rule="evenodd"><path fill="#4D4D4D" d="M7.75,17.85 C9.53,17.15 9.14,15.22 8.24,14 C7.35,12.75 6.12,11.89 4.88,11.06 C3.99525172,10.502359 3.20529297,9.8069252 2.54,9 C2.26,8.67 1.69,8.06 2.27,7.94 C2.86,7.82 3.88,8.4 4.4,8.62 C5.31,9 6.21,9.44 7.05,9.96 L8.06,8.26 C6.5,7.23 4.5,6.32 2.64,6.05 C1.58,5.89 0.46,6.11 0.1,7.26 C-0.22,8.25 0.29,9.25 0.87,10.03 C2.24,11.86 4.37,12.74 5.96,14.32 C6.3,14.65 6.71,15.04 6.91,15.5 C7.12,15.94 7.07,15.97 6.6,15.97 C5.36,15.97 3.81,15 2.8,14.36 L1.79,16.06 C3.32,17 5.88,18.47 7.75,17.85 M18.84,2.25 C19.06,2.03 19.06,1.67 18.84,1.46 L17.54,0.16 C17.3223215,-0.049796083 16.9776785,-0.049796083 16.76,0.16 L15.74,1.18 L17.82,3.26 M9,7.92 L9,10 L11.08,10 L17.23,3.85 L15.15,1.77 L9,7.92 Z" transform="translate(2 3)"/><path fill-rule="nonzero" d="M0 0H24V24H0z"/></g>
		</g>
		<g id="img-youtube-inverted">
			<path xmlns="http://www.w3.org/2000/svg" fill="#ef4b3e" d="M12.32,19.94c-2.36-.11-4.67-.17-7-.34-1.91-.14-2.65-.91-2.89-2.91a29.26,29.26,0,0,1,.09-8.2A2.63,2.63,0,0,1,5.11,6.11,102.77,102.77,0,0,1,18.59,6a8.52,8.52,0,0,1,1.12.12C21.15,6.38,21.88,7.2,22.1,9A29.32,29.32,0,0,1,22,17.19a2.58,2.58,0,0,1-2.59,2.4C17,19.73,14.66,19.82,12.32,19.94Zm-2.06-4.05,5.29-3-5.29-3Z"/>
		</g>
		<g id="img-youtube">
			<path xmlns="http://www.w3.org/2000/svg" fill="#4D4D4D" d="M12.32,19.94c-2.36-.11-4.67-.17-7-.34-1.91-.14-2.65-.91-2.89-2.91a29.26,29.26,0,0,1,.09-8.2A2.63,2.63,0,0,1,5.11,6.11,102.77,102.77,0,0,1,18.59,6a8.52,8.52,0,0,1,1.12.12C21.15,6.38,21.88,7.2,22.1,9A29.32,29.32,0,0,1,22,17.19a2.58,2.58,0,0,1-2.59,2.4C17,19.73,14.66,19.82,12.32,19.94Zm-2.06-4.05,5.29-3-5.29-3Z"/>
		</g>
	</defs>
</svg>
