<?xml version="1.0" encoding="UTF-8"?>
<svg width="40px" height="40px" viewBox="0 0 40 40" version="1.1" xmlns="http://www.w3.org/2000/svg" xmlns:xlink="http://www.w3.org/1999/xlink">
    <title>toggle-icon_video-on@3x</title>
    <defs>
        <linearGradient x1="50%" y1="0%" x2="50%" y2="100%" id="linearGradient-1">
            <stop stop-color="#FFFFFF" offset="0%"></stop>
            <stop stop-color="#FFFFFF" stop-opacity="0" offset="100%"></stop>
        </linearGradient>
        <circle id="path-2" cx="20" cy="20" r="20"></circle>
        <polygon id="path-3" points="0 24 24 24 24 0 0 0"></polygon>
    </defs>
    <g id="Symbols" stroke="none" stroke-width="1" fill="none" fill-rule="evenodd">
        <g id="toggle-icon_video-on">
            <g id="Oval-Copy" stroke-linejoin="square">
                <circle stroke="url(#linearGradient-1)" stroke-width="1" cx="20" cy="20" r="19.5"></circle>
                <circle stroke="#808080" stroke-width="2" cx="20" cy="20" r="19"></circle>
            </g>
            <g id="Group-5" transform="translate(8.000000, 8.000000)">
                <path d="M16.9989,6.2046 L17.0006042,10.6195468 C18.2902356,10.0672756 19.1986074,9.68953796 20.8459,9.0276 C20.9479,8.9836 20.9609,8.9896 20.9609,9.0666 L20.9609,14.9176 C20.9609,15.0146 20.9609,15.0146 20.8779,14.9756 C19.2433502,14.2817211 18.3163993,13.8844741 17.0003388,13.3270161 L16.9989,17.8996 C16.9989,18.0996 17.0199,18.0996 16.8189,18.0996 L3.1809,18.0996 C3.03165,18.0996 3.005025,18.0996 3.00104062,18.015225 L3.00104062,6.088975 C3.005025,6.0046 3.03165,6.0046 3.1809,6.0046 L16.8189,6.0036 C17.0199,6.0036 16.9989,6.0036 16.9989,6.2046 Z" id="Fill-1" fill="#808080"></path>
                <mask id="mask-4" fill="white">
                    <use xlink:href="#path-3"></use>
                </mask>
                <g id="Clip-4"></g>
            </g>
        </g>
    </g>
</svg>
