<?xml version="1.0" encoding="UTF-8"?>
<svg width="24px" height="24px" viewBox="0 0 24 24" version="1.1" xmlns="http://www.w3.org/2000/svg" xmlns:xlink="http://www.w3.org/1999/xlink">
    <!-- Generator: Sketch 64 (93537) - https://sketch.com -->
    <title>icon/material/addimg</title>
    <desc>Created with Sketch.</desc>
    <g id="icon/material/addimg" stroke="none" stroke-width="1" fill="none" fill-rule="evenodd">
        <g id="mdi-image-plus">
            <g id="Icon" fill="#ef4b3e">
                <path d="M5,3 C3.8954305,3 3,3.8954305 3,5 L3,19 C3,20.1045695 3.8954305,21 5,21 L14.09,21 C14.03,20.67 14,20.34 14,20 C14,19.32 14.12,18.64 14.35,18 L5,18 L8.5,13.5 L11,16.5 L14.5,12 L16.73,14.97 C17.7,14.34 18.84,14 20,14 C20.34,14 20.67,14.03 21,14.09 L21,5 C21,3.8954305 20.1045695,3 19,3 L5,3 M19,16 L19,19 L16,19 L16,21 L19,21 L19,24 L21,24 L21,21 L24,21 L24,19 L21,19 L21,16 L19,16 Z" id="Icon-Shape"></path>
            </g>
            <rect id="ViewBox" fill-rule="nonzero" x="0" y="0" width="24" height="24"></rect>
        </g>
    </g>
</svg>