<svg id="Layer_1" data-name="Layer 1" xmlns="http://www.w3.org/2000/svg" viewBox="0 0 24 24"><path d="M8.48,12.25C6.4,10.17,4.37,8.16,2.35,6.15c-.34-.34-.68-.69-1-1.05a2.34,2.34,0,0,1,.17-3.26,2.3,2.3,0,0,1,3.25-.09C7,3.93,9.23,6.14,11.45,8.34a5.83,5.83,0,0,1,.43.58c.36-.4.62-.71.9-1,2-2,4.12-4,6.12-6.08a2.51,2.51,0,0,1,3.41,0,2.37,2.37,0,0,1,0,3.43c-2.18,2.22-4.39,4.41-6.58,6.62-.11.1-.21.22-.34.35l.44.48L22.09,19A2.7,2.7,0,0,1,23,20.56a2.49,2.49,0,0,1-1.29,2.54A2.36,2.36,0,0,1,19,22.69c-2-2-4-4-6.06-6-.33-.33-.62-.68-1-1.12-1.63,1.66-3.17,3.25-4.73,4.82-.79.8-1.6,1.59-2.42,2.36a2.32,2.32,0,0,1-3.21-.1,2.3,2.3,0,0,1-.19-3.25c2.14-2.2,4.31-4.36,6.48-6.54Z" fill="#fff"/></svg>