<svg id="Layer_1" data-name="Layer 1" xmlns="http://www.w3.org/2000/svg" viewBox="0 0 24 24"><path d="M22.13,2.65c0,.64,0,1.18,0,1.71a.82.82,0,0,1-.32.49q-3.12,2.37-6.28,4.71a.93.93,0,0,0-.42.84c0,1.5,0,3,0,4.49a.88.88,0,0,0,.4.8c2.09,1.55,4.16,3.12,6.25,4.67a.79.79,0,0,1,.39.78c0,.46,0,.92,0,1.5l-2.8-2.09c-1.61-1.21-3.21-2.43-4.84-3.62a1.57,1.57,0,0,0-.82-.27c-1,0-2.06,0-3.1,0a1.56,1.56,0,0,0-.86.29q-3.63,2.68-7.24,5.41l-.37.26c0-.67,0-1.25,0-1.82,0-.14.19-.28.32-.38,2.09-1.58,4.18-3.16,6.28-4.71a.93.93,0,0,0,.42-.84c0-1.48,0-3,0-4.44a.94.94,0,0,0-.44-.88C6.61,8,4.56,6.45,2.48,4.91a.79.79,0,0,1-.39-.79c0-.45,0-.91,0-1.49L3.61,3.76q3,2.3,6.12,4.58a1.57,1.57,0,0,0,.81.27c1,0,2.07,0,3.11,0a1.64,1.64,0,0,0,.86-.29q3.63-2.69,7.24-5.41Z" fill="#ef4b3e"/><path d="M2.13,6.74l.09,0c.6.47,1.42.82,1.75,1.43a5.09,5.09,0,0,1,.09,2.15c0,2.12,0,4.24,0,6.36a1.06,1.06,0,0,1-.34.7c-.48.42-1,.77-1.58,1.2Z" fill="#ef4b3e"/><path d="M22.1,18.6c-.64-.47-1.22-.89-1.78-1.34a.67.67,0,0,1-.16-.47q0-4.14,0-8.28a.74.74,0,0,1,.2-.51c.55-.44,1.12-.85,1.74-1.31Z" fill="#ef4b3e"/><path d="M6.12,9.66c.65.48,1.23.9,1.78,1.34a.73.73,0,0,1,.19.45c0,.79,0,1.57,0,2.35,0,.14,0,.32-.1.39-.59.47-1.2.92-1.87,1.42Z" fill="#ef4b3e"/><path d="M18.11,9.65v6L16.2,14.17c-.06-.05-.07-.19-.07-.29,0-.84,0-1.68,0-2.51a.44.44,0,0,1,.13-.32C16.84,10.59,17.44,10.15,18.11,9.65Z" fill="#ef4b3e"/></svg>