<?xml version="1.0" encoding="UTF-8"?>
<svg width="24px" height="24px" viewBox="0 0 24 24" version="1.1" xmlns="http://www.w3.org/2000/svg" xmlns:xlink="http://www.w3.org/1999/xlink">
    <title>icon/material/unlock</title>
    <g id="icon/material/unlock" stroke="none" stroke-width="1" fill="none" fill-rule="evenodd">
        <g id="ic-sharp-lock-open">
            <g id="Icon" transform="translate(4.000000, 1.000000)" fill="#FFFFFF">
                <path d="M16,7 L13,7 L3,7 L0,7 L0,21 L16,21 L16,7 Z M8,12 C9.1,12 10,12.9 10,14 C10,15.1 9.1,16 8,16 C6.9,16 6,15.1 6,14 C6,12.9 6.9,12 8,12 Z M4.64328991,1.29546418 C5.6885441,0.347310115 7.08532782,-0.115825284 8.49,0.02 C11.09,0.27 13,2.6 13,5.21 L13,5.21 L13,7 L11,7 L11,5 C11,2.9 8.85,1.31 6.64,2.3 C5.6,2.76 5,3.87 5,5 L5,5 L3,5 C3.00133867,3.5887769 3.59803573,2.24361825 4.64328991,1.29546418 Z" id="Icon-Shape"></path>
            </g>
            <rect id="ViewBox" fill-rule="nonzero" x="0" y="0" width="24" height="24"></rect>
        </g>
    </g>
</svg>
