<?xml version="1.0" encoding="UTF-8"?>
<svg width="24px" height="24px" viewBox="0 0 24 24" version="1.1" xmlns="http://www.w3.org/2000/svg" xmlns:xlink="http://www.w3.org/1999/xlink">
    <title>icon/materialfullscreen</title>
    <g id="icon/materialfullscreen" stroke="none" stroke-width="1" fill="none" fill-rule="evenodd">
        <g id="ic-baseline-fullscreen">
            <g id="Icon" fill="#4D4D4D">
                <path d="M7,14 L5,14 L5,19 L10,19 L10,17 L7,17 L7,14 Z M5,10 L7,10 L7,7 L10,7 L10,5 L5,5 L5,10 Z M17,17 L14,17 L14,19 L19,19 L19,14 L17,14 L17,17 Z M14,5 L14,7 L17,7 L17,10 L19,10 L19,5 L14,5 Z" id="Icon-Shape"></path>
            </g>
            <rect id="ViewBox" fill-rule="nonzero" x="0" y="0" width="24" height="24"></rect>
            <rect id="ViewBox" fill-rule="nonzero" x="0" y="0" width="24" height="24"></rect>
        </g>
    </g>
</svg>