<svg id="Layer_1" data-name="Layer 1" xmlns="http://www.w3.org/2000/svg" viewBox="0 0 24 24"><path d="M23.16,16.77v1.68a11.5,11.5,0,0,1-.4,1.3,1.33,1.33,0,0,1-1.48.88,4.38,4.38,0,0,1-2.55-1.36c-.76-.7-1.44-1.49-2.23-2.15A3.68,3.68,0,0,0,15,16.33a18.53,18.53,0,0,0-5.1-.13,3.7,3.7,0,0,0-2.52,1.16c-.33.35-.66.69-1,1a8.47,8.47,0,0,1-2.66,2.06,1.66,1.66,0,0,1-2.51-1.23L1,18.55V16.77c.12-.76.24-1.51.38-2.27a28.05,28.05,0,0,1,1.9-6.8A9.23,9.23,0,0,1,4.27,6,2.69,2.69,0,0,1,7.94,5a10.07,10.07,0,0,0,4.45.89,10.41,10.41,0,0,0,4-.94,2.66,2.66,0,0,1,3.35.84,6.44,6.44,0,0,1,.67,1,20.78,20.78,0,0,1,2.07,6.12C22.73,14.19,22.93,15.49,23.16,16.77Zm-15.6-3a3.11,3.11,0,1,0-3.11-3.08A3.1,3.1,0,0,0,7.56,13.72Zm9-4.35a.93.93,0,1,0-1-.91A1,1,0,0,0,16.52,9.37Zm-2.15.21a1,1,0,0,0,0,1.92,1,1,0,0,0,1-1A1,1,0,0,0,14.37,9.58Zm4.22,1.93a1,1,0,0,0,.95-.94.94.94,0,0,0-.89-1,1,1,0,0,0-1,.95A1,1,0,0,0,18.59,11.51Zm-2.08.21a1,1,0,0,0-1,.91,1,1,0,0,0,.93,1,.94.94,0,1,0,0-1.87Z" fill="#fff"/><path d="M5.84,10.59A1.75,1.75,0,0,1,7.6,8.87a1.73,1.73,0,0,1,1.71,1.77,1.74,1.74,0,1,1-3.47-.05Z" fill="#fff"/></svg>