<?xml version="1.0" encoding="UTF-8"?>
<svg width="25px" height="24px" viewBox="0 0 25 24" version="1.1" xmlns="http://www.w3.org/2000/svg" xmlns:xlink="http://www.w3.org/1999/xlink">
    <title>icon/radar</title>
    <defs>
        <polygon id="path-1" points="0 24.0001 24.025 24.0001 24.025 0.0001 0 0.0001"></polygon>
    </defs>
    <g id="icon/radar" stroke="none" stroke-width="1" fill="none" fill-rule="evenodd">
        <g id="Group-19">
            <path d="M18.5373,18.5396 L19.5983,19.5996 C18.6183,20.5896 17.4683,21.3606 16.1883,21.9006 C14.8583,22.4696 13.4483,22.7496 11.9973,22.7496 C10.5483,22.7496 9.1383,22.4696 7.8183,21.9006 C7.2283,21.6506 6.6783,21.3606 6.1483,21.0196 C6.5883,20.7406 6.9483,20.3496 7.1883,19.8896 C7.5773,20.1396 7.9783,20.3396 8.3983,20.5196 C10.6783,21.4906 13.3273,21.4906 15.5983,20.5196 C16.6983,20.0596 17.6883,19.3896 18.5373,18.5396 Z M4.525,17 C5.353,17 6.025,17.672 6.025,18.5 C6.025,18.8052815 5.93364978,19.0893567 5.77681122,19.3263637 C5.77350472,19.3297594 5.77096781,19.3336518 5.7684125,19.3375312 L5.71921128,19.4074496 C5.71710302,19.410219 5.71498536,19.4129809 5.71285834,19.4157352 C5.69157076,19.4440777 5.66946343,19.4711046 5.64641518,19.4972958 C5.63920811,19.5039878 5.63293136,19.5109052 5.62659142,19.5177634 C5.51381394,19.6426823 5.37800428,19.7474575 5.2264959,19.8263053 C5.21544382,19.8318778 5.20434725,19.8375873 5.19317148,19.8431613 C5.1807022,19.849187 5.16844913,19.8549521 5.15610371,19.8605495 C4.96462982,19.9501106 4.75060565,20 4.525,20 C3.697,20 3.025,19.328 3.025,18.5 C3.025,17.9306733 3.34271065,17.4351008 3.81038931,17.1810252 C3.81669358,17.1789133 3.82279082,17.1756384 3.82891415,17.1724061 C4.03675846,17.0619034 4.27369402,17 4.525,17 Z M6.879,8.4204 C7.129,8.8804 7.498,9.2704 7.938,9.5494 C7.488,10.2804 7.248,11.1204 7.248,12.0004 C7.248,13.2694 7.748,14.4604 8.638,15.3604 C9.538,16.2594 10.728,16.7504 11.998,16.7504 C13.268,16.7504 14.458,16.2594 15.358,15.3604 L16.419,16.4204 C15.238,17.5994 13.669,18.2504 11.998,18.2504 C10.328,18.2504 8.758,17.5994 7.578,16.4204 C6.398,15.2404 5.748,13.6704 5.748,12.0004 C5.748,10.7004 6.138,9.4604 6.879,8.4204 Z M16.1883,2.1003 C17.1573,2.5103 18.0583,3.0503 18.8583,3.7193 L20.2183,2.3603 L21.6383,3.7803 L13.9283,11.4903 C13.9783,11.6503 13.9973,11.8203 13.9973,12.0003 C13.9973,13.0993 13.1083,14.0003 11.9973,14.0003 C10.8983,14.0003 9.9973,13.0993 9.9973,12.0003 C9.9973,10.9003 10.8983,10.0003 11.9973,10.0003 C12.1783,10.0003 12.3483,10.0203 12.5083,10.0703 L14.5683,8.0103 C13.9483,7.6003 13.2473,7.3603 12.5083,7.2803 C12.5283,7.1903 12.5283,7.1003 12.5283,7.0003 C12.5283,6.5603 12.4283,6.1403 12.2583,5.7603 C13.4883,5.8103 14.6573,6.2103 15.6483,6.9303 L17.7873,4.7903 C17.1173,4.2503 16.3883,3.8103 15.5983,3.4803 C13.3183,2.5103 10.6783,2.5103 8.3983,3.4803 C7.2983,3.9403 6.3083,4.6103 5.4573,5.4603 C4.6083,6.3103 3.9383,7.3003 3.4783,8.4003 C2.9973,9.5403 2.7473,10.7503 2.7473,12.0003 C2.7473,13.2503 2.9973,14.4603 3.4783,15.5993 C3.4883,15.6303 3.4973,15.6503 3.5183,15.6793 C3.0183,15.8493 2.5883,16.1503 2.2583,16.5403 C2.2073,16.4203 2.1483,16.3003 2.0983,16.1793 C1.5373,14.8603 1.2473,13.4503 1.2473,12.0003 C1.2473,10.5503 1.5373,9.1403 2.0983,7.8203 C2.6383,6.5403 3.4073,5.3903 4.3983,4.4003 C5.3883,3.4103 6.5373,2.6403 7.8183,2.1003 C10.4683,0.9693 13.5373,0.9693 16.1883,2.1003 Z M19.525,11.75 C20.353,11.75 21.025,12.421 21.025,13.25 C21.025,14.078 20.353,14.75 19.525,14.75 C18.697,14.75 18.025,14.078 18.025,13.25 C18.025,12.421 18.697,11.75 19.525,11.75 Z M9.525,5.5 C9.92885294,5.5 10.2955942,5.65986563 10.5653512,5.91972424 L10.568,5.92 L10.6246728,5.98016498 C10.6287109,5.98451686 10.6327235,5.98889271 10.6367104,5.99329232 L10.568,5.92 C10.6518889,6.00089286 10.7268016,6.09255716 10.7905866,6.19257254 C10.7944974,6.20094705 10.79952,6.20896201 10.8044686,6.21702728 C10.8241728,6.24695648 10.841748,6.27807219 10.8582494,6.30985617 C10.8626855,6.32086308 10.8678717,6.3311485 10.872942,6.3415008 C10.9719875,6.54075333 11.028,6.76570896 11.028,7 C11.028,7.09266667 11.0220367,7.18533333 11.0009002,7.278 C10.8693296,7.97363568 10.2583517,8.5 9.525,8.5 C8.697,8.5 8.025,7.829 8.025,7 C8.025,6.172 8.697,5.5 9.525,5.5 Z" id="Combined-Shape" fill="#4D4D4D"></path>
            <mask id="mask-2" fill="white">
                <use xlink:href="#path-1"></use>
            </mask>
            <g id="Clip-18"></g>
        </g>
    </g>
</svg>
