<?xml version="1.0" encoding="UTF-8"?>
<svg width="24px" height="24px" viewBox="0 0 24 24" version="1.1" xmlns="http://www.w3.org/2000/svg" xmlns:xlink="http://www.w3.org/1999/xlink">
    <title>icon/material/leave</title>
    <g id="icon/material/leave" stroke="none" stroke-width="1" fill="none" fill-rule="evenodd">
        <g id="ic-baseline-log-out">
            <g id="Icon" fill="#F2F2F2">
                <path d="M6,2 L15,2 C16.1045695,2 17,2.8954305 17,4 L17,6 L15,6 L15,4 L6,4 L6,20 L15,20 L15,18 L17,18 L17,20 C17,21.1045695 16.1045695,22 15,22 L6,22 C4.8954305,22 4,21.1045695 4,20 L4,4 C4,2.8954305 4.8954305,2 6,2 Z" id="Icon-Path"></path>
                <polygon id="Icon-Path" points="16.09 15.59 17.5 17 22.5 12 17.5 7 16.09 8.41 18.67 11 9 11 9 13 18.67 13"></polygon>
            </g>
            <rect id="ViewBox" fill-rule="nonzero" x="0" y="0" width="24" height="24"></rect>
        </g>
    </g>
</svg>
