<svg id="Layer_1" data-name="Layer 1" xmlns="http://www.w3.org/2000/svg" viewBox="0 0 24 24"><path d="M22.74,12.24A10.63,10.63,0,1,1,12.14,1.59,10.63,10.63,0,0,1,22.74,12.24ZM4.26,6.54a9.39,9.39,0,0,0-1.83,5.18H6.6l.52-4.09ZM2.43,12.73a9.36,9.36,0,0,0,1.83,5.18l2.86-1.09-.51-4.09ZM20,6.53,17.1,7.64l.52,4.07h4.17A9.44,9.44,0,0,0,20,6.53Zm0,11.38a9.2,9.2,0,0,0,1.82-5.17H17.61l-.51,4.08ZM11.6,11.73V8.24L8,7.86l-.48,3.87Zm1,0h4.07l-.49-3.87-3.58.4Zm-1,4.49V12.74h-4l.5,3.85Zm1-3.49v3.49l3.56.38.48-3.87Zm-1-5.42V2.65C10.5,2.67,8.89,4.79,8.42,7Zm1-4.75V7.3L15.88,7C15.19,5.13,14.57,3.4,12.62,2.55Zm-1,19.26V17.15l-3.21.34C8.92,19.67,10.28,21.5,11.61,21.81Zm1,0c1.18,0,2.75-2.28,3.2-4.31l-3.2-.34ZM7.3,6.69,9.22,3A9.51,9.51,0,0,0,4.88,5.78Zm9.63,0,2.39-.9A9,9,0,0,0,15,3Zm2.4,12-2.41-.89L15,21.45A8.89,8.89,0,0,0,19.33,18.65Zm-14.46,0a9.65,9.65,0,0,0,4.34,2.81L7.3,17.76Z" fill="#ef4b3e"/></svg>