<?xml version="1.0" encoding="UTF-8"?>
<svg width="24px" height="24px" viewBox="0 0 24 24" version="1.1" xmlns="http://www.w3.org/2000/svg" xmlns:xlink="http://www.w3.org/1999/xlink">
    <title>icon/make-opaque</title>
    <g id="icon/make-opaque" stroke="none" stroke-width="1" fill="none" fill-rule="evenodd">
        <g id="icon" transform="translate(2.000000, 2.000000)" fill="#4D4D4D">
            <path d="M13,0 L2,0 C0.9,0 0,0.9 0,2 L0,13 C0,14.104 0.896,15 2,15 L2,2 L15,2 C15,0.896 14.104,0 13,0" id="Fill-1"></path>
            <path d="M6,18 L18,18 L18,6 L6,6 L6,18 Z M17.866,4 L6.134,4 C4.96,4 4,4.8 4,5.777 L4,18.223 C4,19.2 4.96,20 6.134,20 L17.866,20 C19.04,20 20,19.2 20,18.223 L20,5.777 C20,4.8 19.04,4 17.866,4 L17.866,4 Z" id="Fill-3"></path>
            <polygon id="Fill-5" points="8 16 16 16 16 8 8 8"></polygon>
        </g>
        <rect id="ViewBox" fill-rule="nonzero" x="0" y="0" width="24" height="24"></rect>
    </g>
</svg>