<?xml version="1.0" encoding="utf-8"?>
<!-- Generator: Adobe Illustrator 24.3.0, SVG Export Plug-In . SVG Version: 6.00 Build 0)  -->
<svg version="1.1" xmlns="http://www.w3.org/2000/svg" xmlns:xlink="http://www.w3.org/1999/xlink" x="0px" y="0px"
	 viewBox="0 0 25 25" style="enable-background:new 0 0 25 25;" xml:space="preserve">
<style type="text/css">
	.st0{display:none;}
	.st1{display:inline;fill:#393838;}
	.st2{fill:#FFFFFF;}
	.st3{fill:#006837;}
	.st4{fill:#FFFFFF;stroke:#393838;stroke-width:0.0519;stroke-miterlimit:10;}
	.st5{fill:#FFFFFF;stroke:#393838;stroke-width:0.2282;stroke-miterlimit:10;}
	.st6{fill:#FFFFFF;stroke:#393838;stroke-width:0.8088;stroke-miterlimit:10;}
	.st7{fill:#FFFFFF;stroke:#393838;stroke-width:0.364;stroke-miterlimit:10;}
	.st8{fill:#E85656;stroke:#393838;stroke-width:0.2485;stroke-miterlimit:10;}
	.st9{fill:#E85656;}
	.st10{fill:#E85656;stroke:#393838;stroke-width:0.2282;stroke-miterlimit:10;}
	.st11{fill:#393838;}
	.st12{fill:#FFFFFF;stroke:#393838;stroke-width:0.2485;stroke-miterlimit:10;}
	.st13{fill:#191919;}
	.st14{fill:#FFFFFF;stroke:#393838;stroke-width:0.513;stroke-miterlimit:10;}
	.st15{fill:none;stroke:#E85656;stroke-width:0.5;stroke-miterlimit:10;}
	.st16{fill:#899EBB;}
	.st17{fill:#333333;}
	.st18{fill:#454966;}
	.st19{fill:#DF4554;}
	.st20{fill:#949495;}
	.st21{fill:#7D7D82;}
	.st22{fill:#077751;}
	.st23{fill:#A4DAB0;}
	.st24{fill:#23272B;stroke:#23272B;stroke-width:0.75;stroke-miterlimit:10;}
	.st25{fill:#23272B;}
	.st26{fill:#A6A8A9;}
	.st27{fill:#FEFEFE;}
	.st28{fill:#F3F3F3;}
	.st29{fill:#BE4CDA;}
	.st30{fill:#077751;stroke:#077751;stroke-miterlimit:10;}
	.st31{fill:#EBECED;}
	.st32{fill:#17AABF;}
	.st33{fill:#077751;stroke:#FFFFFF;stroke-width:3.331;stroke-miterlimit:10;}
	.st34{fill:#4D4D4D;}
	.st35{fill:none;stroke:#606060;stroke-width:0.5;stroke-miterlimit:10;}
	.st36{fill:#FAD634;}
	.st37{fill:#FEEC57;}
	.st38{fill:#F6A724;}
</style>
<g id="Layer_1" class="st0">
</g>
<g id="Layer_2">
	<g>
		<path class="st26" d="M17.95,2.7c1.31,1.3,2.62,2.6,3.92,3.9c0.36,0.36,0.32,0.6-0.13,1.04c-2.46,2.46-4.92,4.92-7.38,7.37
			c-0.51,0.51-1.03,1-1.51,1.53c-0.33,0.36-0.71,0.53-1.18,0.62c-1.35,0.25-2.69,0.53-4.03,0.8c-0.62,0.12-0.91-0.14-0.79-0.77
			c0.28-1.46,0.56-2.93,0.87-4.39c0.05-0.22,0.18-0.46,0.34-0.62c3.04-3.06,6.1-6.11,9.15-9.16c0.12-0.12,0.25-0.22,0.38-0.32
			C17.7,2.7,17.83,2.7,17.95,2.7z M11.49,16.09c-0.92-0.92-1.85-1.85-2.78-2.78c-0.1,0.48-0.15,1.03-0.32,1.54
			c-0.21,0.61-0.07,1.05,0.45,1.4c0.15,0.1,0.34,0.28,0.48,0.26C10.07,16.39,10.81,16.23,11.49,16.09z"/>
		<path class="st26" d="M19.78,23.31c-0.12-0.13-0.31-0.23-0.37-0.38c-0.73-1.88-2.22-2.73-4.1-3.1c-1.99-0.39-3.81-0.04-5.47,1.13
			c-1.08,0.76-2.15,1.56-3.45,1.93c-0.65,0.19-1.31,0.29-1.98,0.13c-1.23-0.28-1.86-1.54-1.33-2.72c0.53-1.18,1.57-1.74,2.74-2.1
			c0.14-0.04,0.5,0.18,0.53,0.33c0.04,0.19-0.08,0.51-0.24,0.64c-0.3,0.23-0.69,0.31-1.01,0.52c-0.3,0.19-0.59,0.44-0.84,0.7
			c-0.29,0.3-0.41,0.68-0.21,1.09c0.21,0.43,0.57,0.66,1.03,0.61c0.42-0.05,0.86-0.12,1.23-0.31c0.77-0.39,1.54-0.81,2.24-1.3
			c1.37-0.95,2.81-1.75,4.5-1.88c2.68-0.2,5.05,0.47,6.73,2.76c0.23,0.31,0.37,0.7,0.55,1.05c0.19,0.36,0.15,0.66-0.2,0.9
			C20.02,23.31,19.9,23.31,19.78,23.31z"/>
	</g>
</g>
</svg>
