<?xml version="1.0" encoding="UTF-8"?>
<svg width="24px" height="24px" viewBox="0 0 24 24" version="1.1" xmlns="http://www.w3.org/2000/svg" xmlns:xlink="http://www.w3.org/1999/xlink">
    <title>icon/material/mute</title>
    <g id="icon/material/mute" stroke="none" stroke-width="1" fill="none" fill-rule="evenodd">
        <g id="ic-baseline-volume-off">
            <g id="Icon" fill="#4D4D4D">
                <path d="M16.5,12 C16.4995712,10.2909166 15.531008,8.7295926 14,7.97 L14,10.18 L16.45,12.63 C16.48,12.43 16.5,12.22 16.5,12 L16.5,12 Z M19,12 C19,12.94 18.8,13.82 18.46,14.64 L19.97,16.15 C20.6494581,14.8724455 21.0032443,13.4469963 21.0000221,12 C21.0000221,7.72 18.01,4.14 14,3.23 L14,5.29 C16.89,6.15 19,8.83 19,12 Z M4.27,3 L3,4.27 L7.73,9 L3,9 L3,15 L7,15 L12,20 L12,13.27 L16.25,17.52 C15.58,18.04 14.83,18.45 14,18.7 L14,20.76 C15.3532634,20.4496963 16.6162667,19.8301743 17.69,18.95 L19.73,21 L21,19.73 L12,10.73 L4.27,3 Z M12,4 L9.91,6.09 L12,8.18 L12,4 Z" id="Icon-Shape"></path>
            </g>
            <rect id="ViewBox" fill-rule="nonzero" x="0" y="0" width="24" height="24"></rect>
        </g>
    </g>
</svg>
