<?xml version="1.0" encoding="UTF-8"?>
<svg width="24px" height="24px" viewBox="0 0 24 24" version="1.1" xmlns="http://www.w3.org/2000/svg" xmlns:xlink="http://www.w3.org/1999/xlink">
    <title>icon/material/outline-hide0</title>
    <g id="icon/material/outline-hide" stroke="none" stroke-width="1" fill="none" fill-rule="evenodd">
        <g id="Group-13" transform="translate(0.000000, 1.000000)" fill="#4D4D4D">
            <polygon id="Fill-2" points="0 2.0003 20.73 22.7303 22.001 21.4603 1.27 0.7303"></polygon>
            <polygon id="Fill-3" points="11 16 13 16 13 14 11 14"></polygon>
            <path d="M7.1095,3.9999 L18.0005,3.9999 C18.5495,3.9999 19.0005,4.4499 19.0005,4.9999 L19.0005,15.8909 L21.0005,17.8909 L21.0005,3.9999 C21.0005,2.8999 20.0995,1.9999 19.0005,1.9999 L5.1095,1.9999 L7.1095,3.9999 Z" id="Fill-4"></path>
            <polygon id="Fill-6" points="7 12 9 12 9 10 7 10"></polygon>
            <polygon id="Fill-8" points="11.0002 7.8906 11.1092 7.9996 13.0002 7.9996 13.0002 5.9996 11.0002 5.9996"></polygon>
            <path d="M18.4494,17.8798 C18.3124,17.9498 18.1644,17.9998 18.0004,17.9998 L6.0004,17.9998 C5.4504,17.9998 5.0004,17.5498 5.0004,16.9998 L5.0004,4.9998 C5.0004,4.8358 5.0504,4.6878 5.1204,4.5508 L3.3924,2.8228 C3.1484,3.1538 3.0004,3.5598 3.0004,3.9998 L3.0004,17.9998 C3.0004,19.0998 3.8994,19.9998 5.0004,19.9998 L19.0004,19.9998 C19.4404,19.9998 19.8454,19.8508 20.1774,19.6078 L18.4494,17.8798 Z" id="Fill-9"></path>
            <polygon id="Fill-10" points="11.0002 11.9999 12.5692 11.9999 11.0002 10.4309"></polygon>
            <polygon id="Fill-11" points="17.0002 9.9999 15.0002 9.9999 15.0002 11.8909 15.1092 11.9999 17.0002 11.9999"></polygon>
        </g>
    </g>
</svg>