<?xml version="1.0" encoding="UTF-8"?>
<svg width="24px" height="24px" viewBox="0 0 24 24" version="1.1" xmlns="http://www.w3.org/2000/svg" xmlns:xlink="http://www.w3.org/1999/xlink">
    <title>icon/material/outline-show0</title>
    <g id="icon/material/outline-show" stroke="none" stroke-width="1" fill="none" fill-rule="evenodd">
        <g id="Group-5" transform="translate(3.000000, 3.000000)" fill="#4D4D4D">
            <path d="M12,2 L14,2 L14,0 L12,0 L12,2 Z M12,18 L14,18 L14,16 L12,16 L12,18 Z M16,14 L18,14 L18,12 L16,12 L16,14 Z M16,6 L18,6 L18,4 L16,4 L16,6 Z M16,18 C17.1,18 18,17.1 18,16 L16,16 L16,18 Z M8,18 L10,18 L10,16 L8,16 L8,18 Z M4,2 L6,2 L6,0 L4,0 L4,2 Z M0,14 L2,14 L2,12 L0,12 L0,14 Z M2,18 L2,16 L0,16 C0,17.1 0.9,18 2,18 L2,18 Z M16,0 L16,2 L18,2 C18,0.9 17.1,0 16,0 L16,0 Z M8,2 L10,2 L10,0 L8,0 L8,2 Z M0,6 L2,6 L2,4 L0,4 L0,6 Z M4,18 L6,18 L6,16 L4,16 L4,18 Z M0,2 L2,2 L2,0 C0.9,0 0,0.9 0,2 L0,2 Z" id="Fill-1"></path>
            <path d="M9.0003,6.7499 C7.7553,6.7499 6.7503,7.7549 6.7503,8.9999 C6.7503,10.2449 7.7553,11.2499 9.0003,11.2499 C10.2453,11.2499 11.2503,10.2449 11.2503,8.9999 C11.2503,7.7549 10.2453,6.7499 9.0003,6.7499 M9.0003,12.7499 C6.9303,12.7499 5.2503,11.0699 5.2503,8.9999 C5.2503,6.9299 6.9303,5.2499 9.0003,5.2499 C11.0693,5.2499 12.7503,6.9299 12.7503,8.9999 C12.7503,11.0699 11.0693,12.7499 9.0003,12.7499 M9.0003,3.3749 C5.2503,3.3749 2.0473,5.7079 0.7503,8.9999 C2.0473,12.2929 5.2503,14.6249 9.0003,14.6249 C12.7503,14.6249 15.9523,12.2929 17.2503,8.9999 C15.9523,5.7079 12.7503,3.3749 9.0003,3.3749" id="Fill-4"></path>
        </g>
    </g>
</svg>