<svg id="Layer_1" data-name="Layer 1" xmlns="http://www.w3.org/2000/svg" viewBox="0 0 24 24"><polygon points="4.6 1.22 14.21 1.49 14.48 7.66 20.46 7.47 20.55 22.61 18.2 22.98 4.6 22.79 4.6 1.22" fill="#ef4b3e"/><path d="M20.41,23.52H5.05a1.37,1.37,0,0,1-.91-1.47q0-10,0-19.95A1.38,1.38,0,0,1,5.05.63h9.56c.17.15.34.28.49.44C17.05,3,19,5,20.93,6.88a1.2,1.2,0,0,1,.39.94q0,7.11,0,14.23A1.37,1.37,0,0,1,20.41,23.52ZM5.3,22.35H20.15V8.07H14.79c-.76,0-.9-.14-.9-.88V1.81H5.3ZM19.09,6.91l-4-4.06V6.91Z" fill="#ef4b3e"/><polygon points="14.19 1.68 20.1 7.63 14.19 7.63 14.19 1.68" fill="#fff"/></svg>