<svg id="Layer_1" data-name="Layer 1" xmlns="http://www.w3.org/2000/svg" viewBox="0 0 24 24"><polygon points="4.43 1.04 14.03 1.32 14.31 7.48 20.29 7.3 20.38 22.44 18.02 22.8 4.43 22.62 4.43 1.04" fill="#fff"/><path d="M20.24,23.34H4.87A1.39,1.39,0,0,1,4,21.88q0-10,0-19.95A1.39,1.39,0,0,1,4.87.46h9.57c.16.14.34.28.49.43,1.94,1.94,3.88,3.89,5.83,5.82a1.22,1.22,0,0,1,.39.94c0,4.74,0,9.48,0,14.23A1.37,1.37,0,0,1,20.24,23.34ZM5.13,22.18H20V7.89H14.61c-.76,0-.89-.13-.9-.87V1.63H5.13ZM18.92,6.74l-4-4.06V6.74Z" fill="#4D4D4D"/><polygon points="14.02 1.5 19.93 7.45 14.02 7.45 14.02 1.5" fill="#4D4D4D"/></svg>
