<svg id="Layer_1" data-name="Layer 1" xmlns="http://www.w3.org/2000/svg" viewBox="0 0 24 24"><path d="M8.26,15.48l-5.87.67,4.12-4.23L1.89,8.22,7.8,8.15l-.66-5.9,4.23,4.13,3.7-4.62.09,5.91L20.85,7l.07.11-4,4.13,4.63,3.67-5.91.1.66,5.87-4.23-4.12L8.35,21.4Zm1.42-1.6.06,3.48,2.16-2.72,2.51,2.43L14,13.6l3.47,0-2.72-2.16L17.2,8.88l-3.46.39L13.68,5.8,11.52,8.51,9,6.09,9.4,9.55l-3.47,0,2.71,2.17-2.42,2.5Z" fill="#fff"/><path d="M17.52,19.51l-2.2.25,1.54-1.59-1.73-1.38,2.21,0-.24-2.21,1.58,1.54,1.38-1.73,0,2.22,2.13-.25,0,0-1.5,1.55,1.73,1.37-2.21,0,.25,2.2L18.94,20l-1.39,1.73Zm.53-.6,0,1.3.81-1,.94.91-.15-1.29,1.3,0L20,18l.91-.94-1.29.14,0-1.29-.81,1L17.8,16l.14,1.3-1.29,0,1,.81-.9.93Z" fill="#fff"/></svg>