<svg id="Layer_1" data-name="Layer 1" xmlns="http://www.w3.org/2000/svg" viewBox="0 0 24 24"><path d="M12.83,18.75l-.05.15c-.08,1.46-.08,1.46,1.13,2.27l.5.33c.35.25.52.56.24,1a.66.66,0,0,1-1,.12l-1.55-1-1.49,1c-.37.24-.75.31-1-.09s-.09-.74.28-1a4.3,4.3,0,0,1,.45-.29,1.76,1.76,0,0,0,1.06-2.42H4.43c-1.22,0-1.69-.47-1.69-1.69V6.79c-.06,0-.09-.09-.12-.09-1.2-.15-1.2-.15-1.2-1.36,0-.57,0-1.15,0-1.72,0-.78.15-.93,1-.93H21.3c1.49,0,1.49,0,1.49,1.52V5.75c0,.77-.12.88-.9.92l-.43,0V17.11c0,1.14-.49,1.64-1.62,1.64h-7ZM4.08,17.39h16V6.71h-16ZM21.45,4.05H2.77V5.3H21.45Z" fill="#ef4b3e"/><path d="M9.42,12c0-1,0-2.06,0-3.09,0-.8.45-1.08,1.15-.73,2.09,1,4.18,2.07,6.25,3.14a1.08,1.08,0,0,1,.56.71,1.08,1.08,0,0,1-.56.71c-2.07,1.07-4.16,2.1-6.25,3.14-.71.35-1.15.07-1.15-.73C9.42,14.12,9.42,13.07,9.42,12Zm5.89,0L10.77,9.79v4.52Z" fill="#ef4b3e"/></svg>