<svg id="Layer_1" data-name="Layer 1" xmlns="http://www.w3.org/2000/svg" viewBox="0 0 24 24"><path d="M12.83,18.38a1,1,0,0,0-.05.15C12.7,20,12.7,20,13.91,20.79l.5.34c.35.25.52.56.24.95a.67.67,0,0,1-1,.13l-1.55-1-1.49,1c-.37.24-.75.31-1-.09s-.09-.74.28-1a3.12,3.12,0,0,1,.45-.29,1.76,1.76,0,0,0,1.06-2.42H4.43c-1.22,0-1.69-.48-1.69-1.69V6.42c-.06,0-.09-.09-.12-.1-1.2-.14-1.2-.14-1.2-1.35,0-.57,0-1.15,0-1.73,0-.78.15-.92,1-.92H21.3c1.49,0,1.49,0,1.49,1.52V5.38c0,.77-.12.88-.9.91l-.43,0V16.74c0,1.14-.49,1.64-1.62,1.64h-7ZM4.08,17h16V6.34h-16ZM21.45,3.68H2.77V4.93H21.45Z" fill="#4D4D4D" stroke="#fff" stroke-miterlimit="10" stroke-width="0.3"/><path d="M9.42,11.65c0-1,0-2.06,0-3.09,0-.8.45-1.08,1.15-.73,2.09,1,4.18,2.07,6.25,3.14a1.08,1.08,0,0,1,.56.71,1.08,1.08,0,0,1-.56.71c-2.07,1.07-4.16,2.1-6.25,3.14-.71.35-1.15.07-1.15-.73C9.42,13.75,9.42,12.7,9.42,11.65Zm5.89,0L10.77,9.41v4.53Z" fill="#4D4D4D" stroke="#4D4D4D" stroke-miterlimit="10" stroke-width="0.3"/></svg>
