<svg id="Layer_1" data-name="Layer 1" xmlns="http://www.w3.org/2000/svg" viewBox="0 0 24 24"><path d="M18.15,14.14c0,.9,0,1.8,0,2.69,0,.41.05.72.47.91.14.07.19.35.27.53-.21,0-.5.17-.63.08a.87.87,0,0,0-1.07,0c-1.5.82-3,1.6-4.51,2.44a.87.87,0,0,1-1,0c-1.43-.86-2.87-1.69-4.29-2.56a.92.92,0,0,0-1.08-.08.73.73,0,0,1-.68,0c-.23-.35.09-.53.36-.63a.72.72,0,0,0,.5-.81c0-1.81,0-3.63,0-5.44A.87.87,0,0,1,7,10.39c1.46-.75,2.9-1.55,4.36-2.32.34-.18.56-.36.54-.8,0-.16.21-.33.33-.5.13.15.27.3.39.45s.25.48.44.6c1.55.95,3.1,1.88,4.67,2.79a.72.72,0,0,1,.44.78c0,.92,0,1.83,0,2.75Zm-.75-2.32a24.33,24.33,0,0,1-3.08,1.63,2.3,2.3,0,0,0-1.72,2.83,30.53,30.53,0,0,1,0,3.72c1.6-.86,3.1-1.66,4.58-2.48a.47.47,0,0,0,.18-.36C17.41,15.41,17.4,13.67,17.4,11.82Zm-5.52,8.26c0-1.55-.07-3,0-4.38a1.8,1.8,0,0,0-1.12-2c-1.2-.6-2.32-1.35-3.57-2.1,0,1.9,0,3.68,0,5.46a.48.48,0,0,0,.19.35C8.85,18.29,10.3,19.14,11.88,20.08ZM7.59,11c1.51.91,2.92,1.76,4.33,2.59a.59.59,0,0,0,.5,0c1.54-.78,3.06-1.57,4.71-2.43L12.67,8.48a.59.59,0,0,0-.47,0C10.7,9.27,9.2,10.08,7.59,11Z" fill="#ef4b3e" stroke="#ef4b3e" stroke-miterlimit="10" stroke-width="0.5"/><path d="M5.25,18.49c-.21.26-.28.4-.39.46a4.28,4.28,0,0,1-.93.47c-.15,0-.36-.07-.54-.12.07-.17.08-.41.2-.5a3.69,3.69,0,0,1,1-.5C4.74,18.25,5,18.4,5.25,18.49Z" fill="#ef4b3e" stroke="#ef4b3e" stroke-miterlimit="10" stroke-width="0.5"/><path d="M21.17,19.45c-.2.08-.42.26-.55.21A5.8,5.8,0,0,1,19.49,19a.41.41,0,0,1-.06-.38c.05-.1.26-.23.33-.2.43.2.84.44,1.25.68C21.07,19.15,21.08,19.26,21.17,19.45Z" fill="#ef4b3e" stroke="#ef4b3e" stroke-miterlimit="10" stroke-width="0.5"/><path d="M3.08,19.62c-.15.22-.2.35-.29.4a6.94,6.94,0,0,1-1,.54.51.51,0,0,1-.46-.14c-.07-.06,0-.36.06-.42a6.91,6.91,0,0,1,1.2-.64C2.66,19.31,2.87,19.51,3.08,19.62Z" fill="#ef4b3e" stroke="#ef4b3e" stroke-miterlimit="10" stroke-width="0.5"/><path d="M23.25,20.62c-.15.08-.36.26-.47.22a7,7,0,0,1-1.14-.62.41.41,0,0,1-.07-.38c.05-.11.26-.26.32-.23.44.22.86.48,1.28.74C23.21,20.37,23.21,20.47,23.25,20.62Z" fill="#ef4b3e" stroke="#ef4b3e" stroke-miterlimit="10" stroke-width="0.5"/><path d="M12.63,3c0,.08,0,.18,0,.25s-.25.39-.37.58a2.72,2.72,0,0,1-.36-.61,1.06,1.06,0,0,1,0-.61,2.11,2.11,0,0,1,.35-.51,4.7,4.7,0,0,1,.38.53A.91.91,0,0,1,12.63,3Z" fill="#ef4b3e" stroke="#ef4b3e" stroke-miterlimit="10" stroke-width="0.5"/><path d="M12.63,5.55a.7.7,0,0,1,0,.33c0,.13-.22.32-.3.3a.54.54,0,0,1-.39-.29,1.67,1.67,0,0,1,0-.8c0-.19.25-.35.39-.52a5.54,5.54,0,0,1,.33.51A1.58,1.58,0,0,1,12.63,5.55Z" fill="#ef4b3e" stroke="#ef4b3e" stroke-miterlimit="10" stroke-width="0.5"/></svg>