<?xml version="1.0" encoding="UTF-8"?>
<svg width="24px" height="24px" viewBox="0 0 24 24" version="1.1" xmlns="http://www.w3.org/2000/svg" xmlns:xlink="http://www.w3.org/1999/xlink">
    <title>icon/material/send-back</title>
    <g id="icon/material/send-back" stroke="none" stroke-width="1" fill="none" fill-rule="evenodd">
        <g id="ic-baseline-flip-to-back">
            <g id="Icon" transform="translate(3.000000, 3.000000)" fill="#4D4D4D">
                <path d="M6,4 L4,4 L4,6 L6,6 L6,4 Z M6,8 L4,8 L4,10 L6,10 L6,8 Z M6,0 C4.8954305,0 4,0.8954305 4,2 L6,2 L6,0 Z M10,12 L8,12 L8,14 L10,14 L10,12 Z M16,0 L16,2 L18,2 C18,0.9 17.1,0 16,0 Z M10,0 L8,0 L8,2 L10,2 L10,0 Z M6,14 L6,12 L4,12 C4,13.1045695 4.8954305,14 6,14 Z M16,10 L18,10 L18,8 L16,8 L16,10 Z M16,6 L18,6 L18,4 L16,4 L16,6 Z M16,14 C17.1,14 18,13.1 18,12 L16,12 L16,14 Z M2,4 L0,4 L0,16 C0,17.1045695 0.8954305,18 2,18 L14,18 L14,16 L2,16 L2,4 Z M12,2 L14,2 L14,0 L12,0 L12,2 Z M12,14 L14,14 L14,12 L12,12 L12,14 Z" id="Icon-Shape"></path>
            </g>
            <rect id="ViewBox" fill-rule="nonzero" x="0" y="0" width="24" height="24"></rect>
        </g>
    </g>
</svg>