<?xml version="1.0" encoding="UTF-8"?>
<svg width="24px" height="24px" viewBox="0 0 24 24" version="1.1" xmlns="http://www.w3.org/2000/svg" xmlns:xlink="http://www.w3.org/1999/xlink">
    <!-- Generator: Sketch 64 (93537) - https://sketch.com -->
    <title>icon/material/tools</title>
    <desc>Created with Sketch.</desc>
    <g id="icon/material/tools" stroke="none" stroke-width="1" fill="none" fill-rule="evenodd">
        <g id="mdi-tools">
            <g id="Icon" fill="#ef4b3e">
                <path d="M21.71,20.29 L20.29,21.71 C19.8999625,22.0977236 19.2700375,22.0977236 18.88,21.71 L7,9.85 C6.67481177,9.94420831 6.33851735,9.99465247 6,10 C4.70819541,9.99907774 3.4963573,9.3743492 2.74626198,8.32262825 C1.99616666,7.2709073 1.80016307,5.9216779 2.22,4.7 L4.76,7.24 L5.29,6.71 L6.71,5.29 L7.24,4.76 L4.7,2.22 C5.9216779,1.80016307 7.2709073,1.99616666 8.32262825,2.74626198 C9.3743492,3.4963573 9.99907774,4.70819541 10,6 C9.99465247,6.33851735 9.94420831,6.67481177 9.85,7 L21.71,18.88 C22.0977236,19.2700375 22.0977236,19.8999625 21.71,20.29 M2.29,18.88 C1.90227641,19.2700375 1.90227641,19.8999625 2.29,20.29 L3.71,21.71 C4.10003745,22.0977236 4.72996255,22.0977236 5.12,21.71 L10.59,16.25 L7.76,13.42 M20,2 L16,4 L16,6 L13.83,8.17 L15.83,10.17 L18,8 L20,8 L22,4 L20,2 Z" id="Icon-Shape"></path>
            </g>
            <rect id="ViewBox" fill-rule="nonzero" x="0" y="0" width="24" height="24"></rect>
        </g>
    </g>
</svg>