<?xml version="1.0" encoding="UTF-8"?>
<svg width="24px" height="24px" viewBox="0 0 24 24" version="1.1" xmlns="http://www.w3.org/2000/svg" xmlns:xlink="http://www.w3.org/1999/xlink">
    <!-- Generator: Sketch 64 (93537) - https://sketch.com -->
    <title>icon/material/trash-can</title>
    <desc>Created with Sketch.</desc>
    <g id="icon/material/trash-can" stroke="none" stroke-width="1" fill="none" fill-rule="evenodd">
        <g id="mdi-trash-can">
            <g id="Icon" fill="#4D4D4D">
                <path d="M9,3 L9,4 L4,4 L4,6 L5,6 L5,19 C5,20.1045695 5.8954305,21 7,21 L17,21 C18.1045695,21 19,20.1045695 19,19 L19,6 L20,6 L20,4 L15,4 L15,3 L9,3 M9,8 L11,8 L11,17 L9,17 L9,8 M13,8 L15,8 L15,17 L13,17 L13,8 Z" id="Icon-Shape"></path>
            </g>
            <rect id="ViewBox" fill-rule="nonzero" x="0" y="0" width="24" height="24"></rect>
        </g>
    </g>
</svg>