<svg id="Layer_1" data-name="Layer 1" xmlns="http://www.w3.org/2000/svg" viewBox="0 0 24 24"><path d="M7.56,22.54c0-.75,0-1.4,0-2,0-.47-.17-.64-.63-.63-1.29,0-2.59,0-3.89,0H2.28c0-.31,0-.55,0-.79,0-4.34,0-8.68,0-13a3.86,3.86,0,0,1,.18-1.12c.35-1.14.75-2.28,1.13-3.41H21.92c0,.25,0,.48,0,.72,0,3.8,0,7.6,0,11.41a1.61,1.61,0,0,1-.37,1q-2.2,2.43-4.49,4.79a1.42,1.42,0,0,1-.92.39c-1,.06-1.92,0-2.88,0a1.54,1.54,0,0,0-.88.37c-.66.59-1.25,1.27-1.92,1.87a1.73,1.73,0,0,1-.91.39C9,22.58,8.3,22.54,7.56,22.54Zm1.83-3c.94-.68,1.72-1.28,2.53-1.81a1.92,1.92,0,0,1,1-.31c1.16,0,2.32,0,3.48,0a1.29,1.29,0,0,0,1.1-.48c.94-1,1.93-2,2.86-3.11a1.72,1.72,0,0,0,.39-1c0-3.11,0-6.22,0-9.33,0-.64-.17-.82-.82-.82-4.78,0-9.57,0-14.35,0H4.82V17.39H9.39Z" fill="#ef4b3e" stroke="#ef4b3e" stroke-miterlimit="10" stroke-width="0.55"/><path d="M12.72,11.89H10.79a2.84,2.84,0,0,1-.1-.49c0-1.36,0-2.72,0-4.08,0-.54.43-.55,1.09-.56s1,.1,1,.56C12.69,8.83,12.72,10.34,12.72,11.89Z" fill="#ef4b3e" stroke="#ef4b3e" stroke-miterlimit="10" stroke-width="0.55"/><path d="M17.12,11.89H15.19a2.84,2.84,0,0,1-.1-.49c0-1.36,0-2.72,0-4.08,0-.54.43-.55,1.09-.56s1,.1,1,.56C17.09,8.83,17.12,10.34,17.12,11.89Z" fill="#ef4b3e" stroke="#ef4b3e" stroke-miterlimit="10" stroke-width="0.55"/></svg>