<svg id="Layer_1" data-name="Layer 1" xmlns="http://www.w3.org/2000/svg" viewBox="0 0 24 24"><path d="M7.66,23.13c0-.75,0-1.39,0-2,0-.47-.16-.63-.62-.63-1.3,0-2.6,0-3.89,0H2.38c0-.32,0-.56,0-.8q0-6.51,0-13a3.79,3.79,0,0,1,.18-1.11c.36-1.15.75-2.28,1.13-3.42H22c0,.25.06.49.06.72,0,3.81,0,7.61,0,11.41a1.66,1.66,0,0,1-.36,1c-1.47,1.63-3,3.22-4.5,4.8a1.51,1.51,0,0,1-.91.39c-1,.05-1.93,0-2.89,0a1.47,1.47,0,0,0-.87.36c-.67.6-1.26,1.28-1.93,1.87a1.68,1.68,0,0,1-.91.4C9.05,23.18,8.4,23.13,7.66,23.13Zm1.83-3c.95-.69,1.72-1.28,2.54-1.82A2,2,0,0,1,13,18c1.16,0,2.33,0,3.49,0a1.29,1.29,0,0,0,1.09-.48c1-1.05,1.94-2.05,2.86-3.11a1.62,1.62,0,0,0,.39-1c0-3.11,0-6.21,0-9.32,0-.64-.17-.83-.81-.82-4.79,0-9.57,0-14.36,0H4.92V18H9.49Z" fill="#fff" stroke="#fff" stroke-miterlimit="10" stroke-width="0.55"/><path d="M12.82,12.49H10.9a2.11,2.11,0,0,1-.1-.5c0-1.36,0-2.72,0-4.08,0-.53.43-.55,1.08-.55s1,.1,1,.56C12.8,9.43,12.82,10.94,12.82,12.49Z" fill="#fff" stroke="#fff" stroke-miterlimit="10" stroke-width="0.55"/><path d="M17.22,12.49H15.3a2.11,2.11,0,0,1-.1-.5c0-1.36,0-2.72,0-4.08,0-.53.43-.55,1.08-.55s1,.1,1,.56C17.2,9.43,17.22,10.94,17.22,12.49Z" fill="#fff" stroke="#fff" stroke-miterlimit="10" stroke-width="0.55"/></svg>