<?xml version="1.0" encoding="UTF-8"?>
<svg width="24px" height="24px" viewBox="0 0 24 24" version="1.1" xmlns="http://www.w3.org/2000/svg" xmlns:xlink="http://www.w3.org/1999/xlink">
    <title>icon/material/unshare-screen</title>
    <g id="icon/material/unshare-screen" stroke="none" stroke-width="1" fill="none" fill-rule="evenodd">
        <g id="ic-baseline-stop-screen-share">
            <g id="Icon" fill="#4D4D4D">
                <path d="M21.22,18.02 L23.22,20.02 L24,20.02 L24,18.02 L21.22,18.02 Z M21.99,16.02 L22,6.02 C22,4.9154305 21.1045695,4.02 20,4.02 L7.22,4.02 L12.45,9.25 C12.63,9.21 12.81,9.18 13,9.15 L13,7.02 L17,10.75 L15.42,12.22 L20.96,17.76 C21.57,17.43 21.99,16.77 21.99,16.02 L21.99,16.02 Z M2.39,1.73 L1.11,3 L2.65,4.54 C2.25,4.9 2,5.43 2,6.02 L2,16.02 C2,17.1245695 2.8954305,18.02 4,18.02 L0,18.02 L0,20.02 L18.13,20.02 L20.84,22.73 L22.11,21.46 L2.39,1.73 Z M7,15.02 C7.31,13.54 7.92,12.07 9.07,10.96 L10.66,12.55 C9.12,12.93 7.96,13.73 7,15.02 L7,15.02 Z" id="Icon-Shape"></path>
            </g>
            <rect id="ViewBox" fill-rule="nonzero" x="0" y="0" width="24" height="24"></rect>
        </g>
    </g>
</svg>