<?xml version="1.0" encoding="UTF-8"?>
<svg width="24px" height="24px" viewBox="0 0 24 24" version="1.1" xmlns="http://www.w3.org/2000/svg" xmlns:xlink="http://www.w3.org/1999/xlink">
    <title>icon/material/video-off</title>
    <g id="icon/material/video-off" stroke="none" stroke-width="1" fill="none" fill-rule="evenodd">
        <g id="ic-baseline-videocam-off">
            <g id="Icon" fill="#4D4D4D">
                <path d="M21,6.5 L17,10.5 L17,7 C17,6.45 16.55,6 16,6 L9.82,6 L21,17.18 L21,6.5 Z M3.27,2 L2,3.27 L4.73,6 L4,6 C3.45,6 3,6.45 3,7 L3,17 C3,17.55 3.45,18 4,18 L16,18 C16.21,18 16.39,17.92 16.54,17.82 L19.73,21 L21,19.73 L3.27,2 Z" id="Icon-Shape"></path>
            </g>
            <rect id="ViewBox" fill-rule="nonzero" x="0" y="0" width="24" height="24"></rect>
        </g>
    </g>
</svg>
