<svg id="Layer_1" data-name="Layer 1" xmlns="http://www.w3.org/2000/svg" viewBox="0 0 24 24"><path d="M1.78,20.45V3.72A2.24,2.24,0,0,1,3.48,2H20.21a2.25,2.25,0,0,1,1.7,1.7V20.45a2.25,2.25,0,0,1-1.7,1.7H3.48A2.24,2.24,0,0,1,1.78,20.45ZM8.7,12.08c0,1.22,0,2.44,0,3.67,0,.73.41,1,1,.61l6.38-3.68c.62-.36.62-.83,0-1.18L9.76,7.82c-.65-.37-1-.13-1,.63C8.7,9.66,8.7,10.87,8.7,12.08ZM7.81,4V5.71H9.52V4Zm6.36,0V5.72h1.72V4ZM7.81,18.46v1.7H9.54v-1.7Zm8.08,0H14.17v1.7h1.72ZM6.35,4H4.63V5.72H6.35Zm6.36,0H11v1.7h1.7Zm6.36,0H17.36v1.7h1.71ZM6.34,18.46H4.64v1.7h1.7Zm6.35,1.71V18.46H11v1.71Zm4.68-1.71v1.69h1.69V18.46Z" fill="#fff"/></svg>