<?xml version="1.0" encoding="UTF-8"?>
<svg width="24px" height="24px" viewBox="0 0 24 24" version="1.1" xmlns="http://www.w3.org/2000/svg" xmlns:xlink="http://www.w3.org/1999/xlink">
    <title>icon/view-centered</title>
    <g id="icon/view-centered" stroke="none" stroke-width="1" fill="none" fill-rule="evenodd">
        <g id="Group-3" transform="translate(2.000000, 4.000000)" fill="#4D4D4D">
            <path d="M0,9 L3,9 L3,7 L0,7 L0,9 Z M17,9 L20.001,9 L20.001,7 L17,7 L17,9 Z M9,3 L11,3 L11,0 L9,0 L9,3 Z M13,9 L11,9 L11,11 L9,11 L9,9 L7,9 L7,7 L9,7 L9,5 L11,5 L11,7 L13,7 L13,9 Z M9,16 L11,16 L11,13 L9,13 L9,16 Z M13,0 L13,2 L18,2 L18,5 L20,5 L20,0 L13,0 Z M18,14 L13,14 L13,16 L20,16 L20,11 L18,11 L18,14 Z M0,5 L2,5 L2,2 L7,2 L7,0 L0,0 L0,5 Z M2,11 L0,11 L0,16 L7,16 L7,14 L2,14 L2,11 Z" id="Fill-1"></path>
        </g>
    </g>
</svg>
